<svg xmlns="http://www.w3.org/2000/svg" xmlns:xlink="http://www.w3.org/1999/xlink" width="500" zoomAndPan="magnify" viewBox="0 0 375 374.999991" height="500" preserveAspectRatio="xMidYMid meet" version="1.0"><defs><g/><clipPath id="169fdb25e6"><path d="M 157.996094 139.339844 L 217 139.339844 L 217 176.089844 L 157.996094 176.089844 Z M 157.996094 139.339844 " clip-rule="nonzero"/></clipPath></defs><g fill="#000000" fill-opacity="1"><g transform="translate(78.398174, 208.332393)"><g><path d="M 17.625 0.609375 C 14.457031 0.609375 11.519531 0.171875 8.8125 -0.703125 C 6.101562 -1.585938 3.96875 -2.609375 2.40625 -3.765625 L 2.15625 -13 L 2.953125 -13.125 C 3.816406 -10.78125 5 -8.671875 6.5 -6.796875 C 8 -4.929688 9.816406 -3.441406 11.953125 -2.328125 C 14.085938 -1.222656 16.507812 -0.671875 19.21875 -0.671875 C 20.65625 -0.671875 21.988281 -0.96875 23.21875 -1.5625 C 24.457031 -2.164062 25.46875 -3.039062 26.25 -4.1875 C 27.03125 -5.34375 27.421875 -6.757812 27.421875 -8.4375 C 27.421875 -9.957031 26.988281 -11.28125 26.125 -12.40625 C 25.257812 -13.539062 24.160156 -14.53125 22.828125 -15.375 C 21.492188 -16.21875 20.085938 -16.957031 18.609375 -17.59375 C 17.128906 -18.226562 15.773438 -18.789062 14.546875 -19.28125 C 12.441406 -20.1875 10.503906 -21.085938 8.734375 -21.984375 C 6.972656 -22.890625 5.554688 -24.050781 4.484375 -25.46875 C 3.421875 -26.882812 2.890625 -28.785156 2.890625 -31.171875 C 2.890625 -34.992188 4.316406 -38.015625 7.171875 -40.234375 C 10.023438 -42.453125 13.878906 -43.5625 18.734375 -43.5625 C 21.023438 -43.5625 23.164062 -43.332031 25.15625 -42.875 C 27.15625 -42.425781 28.957031 -41.789062 30.5625 -40.96875 L 30.796875 -32.96875 L 30.125 -32.71875 C 28.851562 -35.875 26.992188 -38.296875 24.546875 -39.984375 C 22.109375 -41.671875 19.390625 -42.515625 16.390625 -42.515625 C 13.921875 -42.515625 11.832031 -41.820312 10.125 -40.4375 C 8.425781 -39.0625 7.578125 -37.164062 7.578125 -34.75 C 7.578125 -33.394531 7.914062 -32.210938 8.59375 -31.203125 C 9.269531 -30.203125 10.171875 -29.332031 11.296875 -28.59375 C 12.429688 -27.851562 13.644531 -27.203125 14.9375 -26.640625 C 16.226562 -26.085938 17.492188 -25.566406 18.734375 -25.078125 C 20.296875 -24.460938 21.882812 -23.804688 23.5 -23.109375 C 25.125 -22.410156 26.613281 -21.585938 27.96875 -20.640625 C 29.320312 -19.691406 30.410156 -18.5625 31.234375 -17.25 C 32.054688 -15.9375 32.46875 -14.351562 32.46875 -12.5 C 32.46875 -10.40625 32.035156 -8.535156 31.171875 -6.890625 C 30.304688 -5.253906 29.15625 -3.878906 27.71875 -2.765625 C 26.28125 -1.660156 24.675781 -0.820312 22.90625 -0.25 C 21.144531 0.320312 19.382812 0.609375 17.625 0.609375 Z M 17.625 0.609375 "/></g></g></g><g fill="#000000" fill-opacity="1"><g transform="translate(128.550056, 208.332393)"><g><path d="M 1.234375 0 L 1.234375 -0.859375 C 2.253906 -1.191406 2.921875 -1.878906 3.234375 -2.921875 C 3.546875 -3.972656 3.703125 -5.609375 3.703125 -7.828125 L 3.703125 -40.484375 C 3.703125 -42.285156 3.484375 -43.472656 3.046875 -44.046875 C 2.617188 -44.617188 2.015625 -45.070312 1.234375 -45.40625 L 1.234375 -46.265625 L 9.359375 -49.84375 L 9.984375 -49.34375 L 9.984375 -25.6875 C 11.660156 -27.082031 13.585938 -28.351562 15.765625 -29.5 C 17.941406 -30.65625 20.222656 -31.234375 22.609375 -31.234375 C 25.441406 -31.234375 27.726562 -30.441406 29.46875 -28.859375 C 31.21875 -27.273438 32.09375 -24.679688 32.09375 -21.078125 L 32.09375 -7.828125 C 32.09375 -5.609375 32.242188 -3.972656 32.546875 -2.921875 C 32.859375 -1.878906 33.53125 -1.191406 34.5625 -0.859375 L 34.5625 0 L 23.34375 0 L 23.34375 -0.859375 C 24.375 -1.191406 25.039062 -1.878906 25.34375 -2.921875 C 25.65625 -3.972656 25.8125 -5.609375 25.8125 -7.828125 L 25.8125 -19.96875 C 25.8125 -22.757812 25.222656 -24.921875 24.046875 -26.453125 C 22.878906 -27.992188 21.148438 -28.765625 18.859375 -28.765625 C 17.421875 -28.765625 16 -28.414062 14.59375 -27.71875 C 13.195312 -27.019531 11.660156 -25.992188 9.984375 -24.640625 L 9.984375 -7.828125 C 9.984375 -5.609375 10.132812 -3.972656 10.4375 -2.921875 C 10.75 -1.878906 11.414062 -1.191406 12.4375 -0.859375 L 12.4375 0 Z M 1.234375 0 "/></g></g></g><g fill="#000000" fill-opacity="1"><g transform="translate(180.426901, 208.332393)"><g><path d="M 1.71875 0 L 1.71875 -0.859375 C 2.75 -1.191406 3.414062 -1.878906 3.71875 -2.921875 C 4.03125 -3.972656 4.1875 -5.609375 4.1875 -7.828125 L 4.1875 -22 C 4.1875 -23.800781 3.96875 -24.988281 3.53125 -25.5625 C 3.101562 -26.144531 2.5 -26.597656 1.71875 -26.921875 L 1.71875 -27.78125 L 9.859375 -31.359375 L 10.46875 -30.859375 L 10.46875 -7.828125 C 10.46875 -5.609375 10.617188 -3.972656 10.921875 -2.921875 C 11.234375 -1.878906 11.90625 -1.191406 12.9375 -0.859375 L 12.9375 0 Z M 2.765625 -37.640625 C 2.765625 -38.835938 3.175781 -39.84375 4 -40.65625 C 4.820312 -41.476562 5.8125 -41.890625 6.96875 -41.890625 C 8.195312 -41.890625 9.203125 -41.476562 9.984375 -40.65625 C 10.765625 -39.84375 11.15625 -38.835938 11.15625 -37.640625 C 11.15625 -36.492188 10.753906 -35.507812 9.953125 -34.6875 C 9.148438 -33.863281 8.15625 -33.453125 6.96875 -33.453125 C 5.8125 -33.453125 4.820312 -33.863281 4 -34.6875 C 3.175781 -35.507812 2.765625 -36.492188 2.765625 -37.640625 Z M 2.765625 -37.640625 "/></g></g></g><g fill="#000000" fill-opacity="1"><g transform="translate(211.296034, 208.332393)"><g><path d="M 1.71875 0 L 1.71875 -0.859375 C 2.75 -1.191406 3.414062 -1.878906 3.71875 -2.921875 C 4.03125 -3.972656 4.1875 -5.609375 4.1875 -7.828125 L 4.1875 -22 C 4.1875 -23.800781 3.96875 -24.988281 3.53125 -25.5625 C 3.101562 -26.144531 2.5 -26.597656 1.71875 -26.921875 L 1.71875 -27.78125 L 9.859375 -31.359375 L 10.46875 -30.859375 L 10.46875 -25.6875 C 12.15625 -27.082031 14.085938 -28.351562 16.265625 -29.5 C 18.441406 -30.65625 20.722656 -31.234375 23.109375 -31.234375 C 25.941406 -31.234375 28.226562 -30.441406 29.96875 -28.859375 C 31.71875 -27.273438 32.59375 -24.679688 32.59375 -21.078125 L 32.59375 -7.828125 C 32.59375 -5.609375 32.742188 -3.972656 33.046875 -2.921875 C 33.359375 -1.878906 34.03125 -1.191406 35.0625 -0.859375 L 35.0625 0 L 23.84375 0 L 23.84375 -0.859375 C 24.875 -1.191406 25.539062 -1.878906 25.84375 -2.921875 C 26.15625 -3.972656 26.3125 -5.609375 26.3125 -7.828125 L 26.3125 -19.96875 C 26.3125 -22.757812 25.722656 -24.921875 24.546875 -26.453125 C 23.378906 -27.992188 21.644531 -28.765625 19.34375 -28.765625 C 17.90625 -28.765625 16.488281 -28.414062 15.09375 -27.71875 C 13.695312 -27.019531 12.15625 -25.992188 10.46875 -24.640625 L 10.46875 -7.828125 C 10.46875 -5.609375 10.617188 -3.972656 10.921875 -2.921875 C 11.234375 -1.878906 11.90625 -1.191406 12.9375 -0.859375 L 12.9375 0 Z M 1.71875 0 "/></g></g></g><g fill="#000000" fill-opacity="1"><g transform="translate(263.665736, 208.332393)"><g><path d="M 16.515625 0.609375 C 14.785156 0.609375 13.066406 0.300781 11.359375 -0.3125 C 9.660156 -0.925781 8.09375 -1.847656 6.65625 -3.078125 C 5.21875 -4.304688 4.066406 -5.84375 3.203125 -7.6875 C 2.335938 -9.539062 1.90625 -11.722656 1.90625 -14.234375 C 1.90625 -16.859375 2.367188 -19.21875 3.296875 -21.3125 C 4.222656 -23.40625 5.460938 -25.191406 7.015625 -26.671875 C 8.578125 -28.148438 10.3125 -29.28125 12.21875 -30.0625 C 14.132812 -30.84375 16.097656 -31.234375 18.109375 -31.234375 C 20.898438 -31.234375 23.238281 -30.675781 25.125 -29.5625 C 27.019531 -28.457031 28.445312 -27.0625 29.40625 -25.375 C 30.375 -23.695312 30.859375 -21.953125 30.859375 -20.140625 L 7.515625 -20.140625 C 7.472656 -19.816406 7.441406 -19.488281 7.421875 -19.15625 C 7.398438 -18.832031 7.390625 -18.503906 7.390625 -18.171875 C 7.390625 -15.503906 7.910156 -13.125 8.953125 -11.03125 C 10.003906 -8.9375 11.484375 -7.300781 13.390625 -6.125 C 15.304688 -4.957031 17.554688 -4.375 20.140625 -4.375 C 22.441406 -4.375 24.472656 -4.820312 26.234375 -5.71875 C 28.003906 -6.625 29.523438 -7.796875 30.796875 -9.234375 L 31.359375 -8.625 C 30.410156 -7.1875 29.238281 -5.757812 27.84375 -4.34375 C 26.445312 -2.925781 24.800781 -1.742188 22.90625 -0.796875 C 21.019531 0.140625 18.890625 0.609375 16.515625 0.609375 Z M 7.578125 -21.015625 L 24.640625 -21.015625 C 24.398438 -22.691406 23.878906 -24.21875 23.078125 -25.59375 C 22.273438 -26.96875 21.285156 -28.066406 20.109375 -28.890625 C 18.941406 -29.710938 17.640625 -30.125 16.203125 -30.125 C 14.472656 -30.164062 13.015625 -29.753906 11.828125 -28.890625 C 10.640625 -28.023438 9.695312 -26.894531 9 -25.5 C 8.300781 -24.101562 7.828125 -22.609375 7.578125 -21.015625 Z M 7.578125 -21.015625 "/></g></g></g><g clip-path="url(#169fdb25e6)"><path fill="#ffd97d" d="M 216.992188 168.839844 C 189.714844 170.066406 188.722656 171.058594 187.496094 198.339844 C 186.269531 171.058594 185.273438 170.066406 157.996094 168.839844 C 185.273438 167.613281 186.269531 166.617188 187.496094 139.339844 C 188.722656 166.617188 189.714844 167.613281 216.992188 168.839844 Z M 216.992188 168.839844 " fill-opacity="1" fill-rule="nonzero"/></g><path fill="#ffd97d" d="M 180.835938 153.257812 C 174.742188 153.53125 174.519531 153.753906 174.246094 159.847656 C 173.972656 153.753906 173.75 153.53125 167.660156 153.257812 C 173.75 152.984375 173.972656 152.761719 174.246094 146.671875 C 174.519531 152.761719 174.742188 152.984375 180.835938 153.257812 Z M 180.835938 153.257812 " fill-opacity="1" fill-rule="nonzero"/><path fill="#ffd97d" d="M 213.914062 152.699219 C 204.96875 153.101562 204.640625 153.429688 204.238281 162.375 C 203.835938 153.429688 203.511719 153.101562 194.566406 152.699219 C 203.511719 152.300781 203.835938 151.972656 204.238281 143.027344 C 204.640625 151.972656 204.96875 152.300781 213.914062 152.699219 Z M 213.914062 152.699219 " fill-opacity="1" fill-rule="nonzero"/><path fill="#ffd97d" d="M 213.914062 146.113281 C 211.476562 146.222656 211.386719 146.3125 211.277344 148.75 C 211.167969 146.3125 211.078125 146.222656 208.644531 146.113281 C 211.078125 146.003906 211.167969 145.914062 211.277344 143.476562 C 211.386719 145.914062 211.476562 146.003906 213.914062 146.113281 Z M 213.914062 146.113281 " fill-opacity="1" fill-rule="nonzero"/><path fill="#ffd97d" d="M 198.714844 143.027344 C 196.277344 143.136719 196.1875 143.226562 196.078125 145.664062 C 195.96875 143.226562 195.882812 143.136719 193.445312 143.027344 C 195.882812 142.917969 195.96875 142.828125 196.078125 140.390625 C 196.1875 142.828125 196.277344 142.917969 198.714844 143.027344 Z M 198.714844 143.027344 " fill-opacity="1" fill-rule="nonzero"/><g fill="#000000" fill-opacity="1"><g transform="translate(77.807099, 237.261629)"><g><path d="M 4.953125 -4.171875 C 5.242188 -4.117188 5.507812 -3.992188 5.75 -3.796875 C 6 -3.609375 6.191406 -3.367188 6.328125 -3.078125 C 6.472656 -2.796875 6.546875 -2.492188 6.546875 -2.171875 C 6.546875 -1.765625 6.441406 -1.394531 6.234375 -1.0625 C 6.023438 -0.726562 5.71875 -0.46875 5.3125 -0.28125 C 4.914062 -0.09375 4.445312 0 3.90625 0 L 0.890625 0 L 0.890625 -8.09375 L 3.796875 -8.09375 C 4.347656 -8.09375 4.816406 -8 5.203125 -7.8125 C 5.585938 -7.632812 5.875 -7.390625 6.0625 -7.078125 C 6.257812 -6.773438 6.359375 -6.425781 6.359375 -6.03125 C 6.359375 -5.550781 6.226562 -5.15625 5.96875 -4.84375 C 5.707031 -4.53125 5.367188 -4.304688 4.953125 -4.171875 Z M 1.953125 -4.59375 L 3.734375 -4.59375 C 4.222656 -4.59375 4.601562 -4.707031 4.875 -4.9375 C 5.144531 -5.175781 5.28125 -5.5 5.28125 -5.90625 C 5.28125 -6.320312 5.144531 -6.644531 4.875 -6.875 C 4.601562 -7.101562 4.210938 -7.21875 3.703125 -7.21875 L 1.953125 -7.21875 Z M 3.8125 -0.875 C 4.34375 -0.875 4.753906 -0.992188 5.046875 -1.234375 C 5.335938 -1.484375 5.484375 -1.832031 5.484375 -2.28125 C 5.484375 -2.726562 5.328125 -3.082031 5.015625 -3.34375 C 4.710938 -3.601562 4.300781 -3.734375 3.78125 -3.734375 L 1.953125 -3.734375 L 1.953125 -0.875 Z M 3.8125 -0.875 "/></g></g></g><g fill="#000000" fill-opacity="1"><g transform="translate(89.565467, 237.261629)"><g><path d="M 5.15625 0 L 3.234375 -3.3125 L 1.953125 -3.3125 L 1.953125 0 L 0.890625 0 L 0.890625 -8.09375 L 3.5 -8.09375 C 4.113281 -8.09375 4.628906 -7.988281 5.046875 -7.78125 C 5.472656 -7.570312 5.789062 -7.285156 6 -6.921875 C 6.207031 -6.566406 6.3125 -6.164062 6.3125 -5.71875 C 6.3125 -5.15625 6.148438 -4.660156 5.828125 -4.234375 C 5.515625 -3.804688 5.035156 -3.523438 4.390625 -3.390625 L 6.421875 0 Z M 1.953125 -4.15625 L 3.5 -4.15625 C 4.070312 -4.15625 4.5 -4.296875 4.78125 -4.578125 C 5.070312 -4.859375 5.21875 -5.238281 5.21875 -5.71875 C 5.21875 -6.195312 5.078125 -6.566406 4.796875 -6.828125 C 4.515625 -7.085938 4.082031 -7.21875 3.5 -7.21875 L 1.953125 -7.21875 Z M 1.953125 -4.15625 "/></g></g></g><g fill="#000000" fill-opacity="1"><g transform="translate(101.265811, 237.261629)"><g><path d="M 1.953125 -8.09375 L 1.953125 0 L 0.890625 0 L 0.890625 -8.09375 Z M 1.953125 -8.09375 "/></g></g></g><g fill="#000000" fill-opacity="1"><g transform="translate(108.764945, 237.261629)"><g><path d="M 1.953125 -0.859375 L 4.78125 -0.859375 L 4.78125 0 L 0.890625 0 L 0.890625 -8.09375 L 1.953125 -8.09375 Z M 1.953125 -0.859375 "/></g></g></g><g fill="#000000" fill-opacity="1"><g transform="translate(118.422721, 237.261629)"><g><path d="M 1.953125 -0.859375 L 4.78125 -0.859375 L 4.78125 0 L 0.890625 0 L 0.890625 -8.09375 L 1.953125 -8.09375 Z M 1.953125 -0.859375 "/></g></g></g><g fill="#000000" fill-opacity="1"><g transform="translate(128.080498, 237.261629)"><g><path d="M 5.671875 -1.796875 L 2.140625 -1.796875 L 1.5 0 L 0.390625 0 L 3.3125 -8.046875 L 4.53125 -8.046875 L 7.4375 0 L 6.328125 0 Z M 5.375 -2.65625 L 3.90625 -6.75 L 2.453125 -2.65625 Z M 5.375 -2.65625 "/></g></g></g><g fill="#000000" fill-opacity="1"><g transform="translate(140.546806, 237.261629)"><g/></g></g><g fill="#000000" fill-opacity="1"><g transform="translate(148.28966, 237.261629)"><g><path d="M 0.5 -4.046875 C 0.5 -4.835938 0.675781 -5.546875 1.03125 -6.171875 C 1.382812 -6.804688 1.867188 -7.300781 2.484375 -7.65625 C 3.097656 -8.019531 3.785156 -8.203125 4.546875 -8.203125 C 5.421875 -8.203125 6.1875 -7.988281 6.84375 -7.5625 C 7.507812 -7.132812 7.988281 -6.53125 8.28125 -5.75 L 7.03125 -5.75 C 6.800781 -6.238281 6.472656 -6.613281 6.046875 -6.875 C 5.628906 -7.132812 5.128906 -7.265625 4.546875 -7.265625 C 3.972656 -7.265625 3.460938 -7.132812 3.015625 -6.875 C 2.566406 -6.613281 2.210938 -6.238281 1.953125 -5.75 C 1.703125 -5.269531 1.578125 -4.703125 1.578125 -4.046875 C 1.578125 -3.410156 1.703125 -2.847656 1.953125 -2.359375 C 2.210938 -1.878906 2.566406 -1.503906 3.015625 -1.234375 C 3.460938 -0.972656 3.972656 -0.84375 4.546875 -0.84375 C 5.128906 -0.84375 5.628906 -0.972656 6.046875 -1.234375 C 6.472656 -1.492188 6.800781 -1.867188 7.03125 -2.359375 L 8.28125 -2.359375 C 7.988281 -1.585938 7.507812 -0.988281 6.84375 -0.5625 C 6.1875 -0.144531 5.421875 0.0625 4.546875 0.0625 C 3.785156 0.0625 3.097656 -0.109375 2.484375 -0.453125 C 1.867188 -0.804688 1.382812 -1.296875 1.03125 -1.921875 C 0.675781 -2.554688 0.5 -3.265625 0.5 -4.046875 Z M 0.5 -4.046875 "/></g></g></g><g fill="#000000" fill-opacity="1"><g transform="translate(161.893316, 237.261629)"><g><path d="M 4.5625 0.078125 C 3.8125 0.078125 3.125 -0.09375 2.5 -0.4375 C 1.882812 -0.789062 1.394531 -1.285156 1.03125 -1.921875 C 0.675781 -2.554688 0.5 -3.265625 0.5 -4.046875 C 0.5 -4.835938 0.675781 -5.546875 1.03125 -6.171875 C 1.394531 -6.804688 1.882812 -7.300781 2.5 -7.65625 C 3.125 -8.007812 3.8125 -8.1875 4.5625 -8.1875 C 5.320312 -8.1875 6.007812 -8.007812 6.625 -7.65625 C 7.25 -7.300781 7.738281 -6.8125 8.09375 -6.1875 C 8.445312 -5.5625 8.625 -4.847656 8.625 -4.046875 C 8.625 -3.253906 8.445312 -2.539062 8.09375 -1.90625 C 7.738281 -1.28125 7.25 -0.789062 6.625 -0.4375 C 6.007812 -0.09375 5.320312 0.078125 4.5625 0.078125 Z M 4.5625 -0.828125 C 5.125 -0.828125 5.628906 -0.957031 6.078125 -1.21875 C 6.535156 -1.488281 6.894531 -1.867188 7.15625 -2.359375 C 7.414062 -2.847656 7.546875 -3.410156 7.546875 -4.046875 C 7.546875 -4.703125 7.414062 -5.269531 7.15625 -5.75 C 6.894531 -6.238281 6.539062 -6.613281 6.09375 -6.875 C 5.644531 -7.132812 5.132812 -7.265625 4.5625 -7.265625 C 3.988281 -7.265625 3.476562 -7.132812 3.03125 -6.875 C 2.582031 -6.613281 2.226562 -6.238281 1.96875 -5.75 C 1.707031 -5.269531 1.578125 -4.703125 1.578125 -4.046875 C 1.578125 -3.410156 1.707031 -2.847656 1.96875 -2.359375 C 2.226562 -1.867188 2.582031 -1.488281 3.03125 -1.21875 C 3.488281 -0.957031 4 -0.828125 4.5625 -0.828125 Z M 4.5625 -0.828125 "/></g></g></g><g fill="#000000" fill-opacity="1"><g transform="translate(175.659442, 237.261629)"><g><path d="M 7.25 0 L 6.203125 0 L 1.953125 -6.4375 L 1.953125 0 L 0.890625 0 L 0.890625 -8.109375 L 1.953125 -8.109375 L 6.203125 -1.671875 L 6.203125 -8.109375 L 7.25 -8.109375 Z M 7.25 0 "/></g></g></g><g fill="#000000" fill-opacity="1"><g transform="translate(188.46232, 237.261629)"><g/></g></g><g fill="#000000" fill-opacity="1"><g transform="translate(196.205167, 237.261629)"><g><path d="M 6.296875 -5.71875 C 6.296875 -5.050781 6.066406 -4.492188 5.609375 -4.046875 C 5.148438 -3.597656 4.445312 -3.375 3.5 -3.375 L 1.953125 -3.375 L 1.953125 0 L 0.890625 0 L 0.890625 -8.09375 L 3.5 -8.09375 C 4.414062 -8.09375 5.109375 -7.867188 5.578125 -7.421875 C 6.054688 -6.984375 6.296875 -6.414062 6.296875 -5.71875 Z M 3.5 -4.25 C 4.09375 -4.25 4.523438 -4.375 4.796875 -4.625 C 5.078125 -4.882812 5.21875 -5.25 5.21875 -5.71875 C 5.21875 -6.71875 4.644531 -7.21875 3.5 -7.21875 L 1.953125 -7.21875 L 1.953125 -4.25 Z M 3.5 -4.25 "/></g></g></g><g fill="#000000" fill-opacity="1"><g transform="translate(207.568946, 237.261629)"><g><path d="M 5.15625 0 L 3.234375 -3.3125 L 1.953125 -3.3125 L 1.953125 0 L 0.890625 0 L 0.890625 -8.09375 L 3.5 -8.09375 C 4.113281 -8.09375 4.628906 -7.988281 5.046875 -7.78125 C 5.472656 -7.570312 5.789062 -7.285156 6 -6.921875 C 6.207031 -6.566406 6.3125 -6.164062 6.3125 -5.71875 C 6.3125 -5.15625 6.148438 -4.660156 5.828125 -4.234375 C 5.515625 -3.804688 5.035156 -3.523438 4.390625 -3.390625 L 6.421875 0 Z M 1.953125 -4.15625 L 3.5 -4.15625 C 4.070312 -4.15625 4.5 -4.296875 4.78125 -4.578125 C 5.070312 -4.859375 5.21875 -5.238281 5.21875 -5.71875 C 5.21875 -6.195312 5.078125 -6.566406 4.796875 -6.828125 C 4.515625 -7.085938 4.082031 -7.21875 3.5 -7.21875 L 1.953125 -7.21875 Z M 1.953125 -4.15625 "/></g></g></g><g fill="#000000" fill-opacity="1"><g transform="translate(219.269291, 237.261629)"><g><path d="M 4.5625 0.078125 C 3.8125 0.078125 3.125 -0.09375 2.5 -0.4375 C 1.882812 -0.789062 1.394531 -1.285156 1.03125 -1.921875 C 0.675781 -2.554688 0.5 -3.265625 0.5 -4.046875 C 0.5 -4.835938 0.675781 -5.546875 1.03125 -6.171875 C 1.394531 -6.804688 1.882812 -7.300781 2.5 -7.65625 C 3.125 -8.007812 3.8125 -8.1875 4.5625 -8.1875 C 5.320312 -8.1875 6.007812 -8.007812 6.625 -7.65625 C 7.25 -7.300781 7.738281 -6.8125 8.09375 -6.1875 C 8.445312 -5.5625 8.625 -4.847656 8.625 -4.046875 C 8.625 -3.253906 8.445312 -2.539062 8.09375 -1.90625 C 7.738281 -1.28125 7.25 -0.789062 6.625 -0.4375 C 6.007812 -0.09375 5.320312 0.078125 4.5625 0.078125 Z M 4.5625 -0.828125 C 5.125 -0.828125 5.628906 -0.957031 6.078125 -1.21875 C 6.535156 -1.488281 6.894531 -1.867188 7.15625 -2.359375 C 7.414062 -2.847656 7.546875 -3.410156 7.546875 -4.046875 C 7.546875 -4.703125 7.414062 -5.269531 7.15625 -5.75 C 6.894531 -6.238281 6.539062 -6.613281 6.09375 -6.875 C 5.644531 -7.132812 5.132812 -7.265625 4.5625 -7.265625 C 3.988281 -7.265625 3.476562 -7.132812 3.03125 -6.875 C 2.582031 -6.613281 2.226562 -6.238281 1.96875 -5.75 C 1.707031 -5.269531 1.578125 -4.703125 1.578125 -4.046875 C 1.578125 -3.410156 1.707031 -2.847656 1.96875 -2.359375 C 2.226562 -1.867188 2.582031 -1.488281 3.03125 -1.21875 C 3.488281 -0.957031 4 -0.828125 4.5625 -0.828125 Z M 4.5625 -0.828125 "/></g></g></g><g fill="#000000" fill-opacity="1"><g transform="translate(233.035417, 237.261629)"><g><path d="M 6.296875 -5.71875 C 6.296875 -5.050781 6.066406 -4.492188 5.609375 -4.046875 C 5.148438 -3.597656 4.445312 -3.375 3.5 -3.375 L 1.953125 -3.375 L 1.953125 0 L 0.890625 0 L 0.890625 -8.09375 L 3.5 -8.09375 C 4.414062 -8.09375 5.109375 -7.867188 5.578125 -7.421875 C 6.054688 -6.984375 6.296875 -6.414062 6.296875 -5.71875 Z M 3.5 -4.25 C 4.09375 -4.25 4.523438 -4.375 4.796875 -4.625 C 5.078125 -4.882812 5.21875 -5.25 5.21875 -5.71875 C 5.21875 -6.71875 4.644531 -7.21875 3.5 -7.21875 L 1.953125 -7.21875 L 1.953125 -4.25 Z M 3.5 -4.25 "/></g></g></g><g fill="#000000" fill-opacity="1"><g transform="translate(244.399196, 237.261629)"><g><path d="M 4.5625 0.078125 C 3.8125 0.078125 3.125 -0.09375 2.5 -0.4375 C 1.882812 -0.789062 1.394531 -1.285156 1.03125 -1.921875 C 0.675781 -2.554688 0.5 -3.265625 0.5 -4.046875 C 0.5 -4.835938 0.675781 -5.546875 1.03125 -6.171875 C 1.394531 -6.804688 1.882812 -7.300781 2.5 -7.65625 C 3.125 -8.007812 3.8125 -8.1875 4.5625 -8.1875 C 5.320312 -8.1875 6.007812 -8.007812 6.625 -7.65625 C 7.25 -7.300781 7.738281 -6.8125 8.09375 -6.1875 C 8.445312 -5.5625 8.625 -4.847656 8.625 -4.046875 C 8.625 -3.253906 8.445312 -2.539062 8.09375 -1.90625 C 7.738281 -1.28125 7.25 -0.789062 6.625 -0.4375 C 6.007812 -0.09375 5.320312 0.078125 4.5625 0.078125 Z M 4.5625 -0.828125 C 5.125 -0.828125 5.628906 -0.957031 6.078125 -1.21875 C 6.535156 -1.488281 6.894531 -1.867188 7.15625 -2.359375 C 7.414062 -2.847656 7.546875 -3.410156 7.546875 -4.046875 C 7.546875 -4.703125 7.414062 -5.269531 7.15625 -5.75 C 6.894531 -6.238281 6.539062 -6.613281 6.09375 -6.875 C 5.644531 -7.132812 5.132812 -7.265625 4.5625 -7.265625 C 3.988281 -7.265625 3.476562 -7.132812 3.03125 -6.875 C 2.582031 -6.613281 2.226562 -6.238281 1.96875 -5.75 C 1.707031 -5.269531 1.578125 -4.703125 1.578125 -4.046875 C 1.578125 -3.410156 1.707031 -2.847656 1.96875 -2.359375 C 2.226562 -1.867188 2.582031 -1.488281 3.03125 -1.21875 C 3.488281 -0.957031 4 -0.828125 4.5625 -0.828125 Z M 4.5625 -0.828125 "/></g></g></g><g fill="#000000" fill-opacity="1"><g transform="translate(258.165322, 237.261629)"><g><path d="M 3.453125 0.078125 C 2.921875 0.078125 2.441406 -0.015625 2.015625 -0.203125 C 1.597656 -0.390625 1.269531 -0.648438 1.03125 -0.984375 C 0.789062 -1.328125 0.664062 -1.71875 0.65625 -2.15625 L 1.78125 -2.15625 C 1.820312 -1.78125 1.976562 -1.460938 2.25 -1.203125 C 2.53125 -0.941406 2.929688 -0.8125 3.453125 -0.8125 C 3.960938 -0.8125 4.359375 -0.9375 4.640625 -1.1875 C 4.929688 -1.4375 5.078125 -1.757812 5.078125 -2.15625 C 5.078125 -2.46875 4.992188 -2.71875 4.828125 -2.90625 C 4.660156 -3.101562 4.445312 -3.25 4.1875 -3.34375 C 3.9375 -3.445312 3.59375 -3.5625 3.15625 -3.6875 C 2.625 -3.820312 2.195312 -3.957031 1.875 -4.09375 C 1.550781 -4.238281 1.273438 -4.457031 1.046875 -4.75 C 0.816406 -5.050781 0.703125 -5.453125 0.703125 -5.953125 C 0.703125 -6.398438 0.8125 -6.789062 1.03125 -7.125 C 1.257812 -7.46875 1.578125 -7.734375 1.984375 -7.921875 C 2.390625 -8.109375 2.859375 -8.203125 3.390625 -8.203125 C 4.148438 -8.203125 4.769531 -8.007812 5.25 -7.625 C 5.738281 -7.25 6.015625 -6.75 6.078125 -6.125 L 4.90625 -6.125 C 4.875 -6.425781 4.710938 -6.695312 4.421875 -6.9375 C 4.140625 -7.175781 3.757812 -7.296875 3.28125 -7.296875 C 2.84375 -7.296875 2.484375 -7.179688 2.203125 -6.953125 C 1.921875 -6.722656 1.78125 -6.398438 1.78125 -5.984375 C 1.78125 -5.691406 1.863281 -5.453125 2.03125 -5.265625 C 2.195312 -5.078125 2.398438 -4.9375 2.640625 -4.84375 C 2.890625 -4.75 3.238281 -4.640625 3.6875 -4.515625 C 4.21875 -4.367188 4.644531 -4.222656 4.96875 -4.078125 C 5.289062 -3.929688 5.566406 -3.707031 5.796875 -3.40625 C 6.035156 -3.113281 6.15625 -2.710938 6.15625 -2.203125 C 6.15625 -1.804688 6.050781 -1.429688 5.84375 -1.078125 C 5.632812 -0.734375 5.320312 -0.453125 4.90625 -0.234375 C 4.5 -0.0234375 4.015625 0.078125 3.453125 0.078125 Z M 3.453125 0.078125 "/></g></g></g><g fill="#000000" fill-opacity="1"><g transform="translate(269.621949, 237.261629)"><g><path d="M 1.953125 -8.09375 L 1.953125 0 L 0.890625 0 L 0.890625 -8.09375 Z M 1.953125 -8.09375 "/></g></g></g><g fill="#000000" fill-opacity="1"><g transform="translate(277.121084, 237.261629)"><g><path d="M 5.875 -8.09375 L 5.875 -7.234375 L 3.671875 -7.234375 L 3.671875 0 L 2.609375 0 L 2.609375 -7.234375 L 0.390625 -7.234375 L 0.390625 -8.09375 Z M 5.875 -8.09375 "/></g></g></g><g fill="#000000" fill-opacity="1"><g transform="translate(288.043863, 237.261629)"><g><path d="M 4.5625 0.078125 C 3.8125 0.078125 3.125 -0.09375 2.5 -0.4375 C 1.882812 -0.789062 1.394531 -1.285156 1.03125 -1.921875 C 0.675781 -2.554688 0.5 -3.265625 0.5 -4.046875 C 0.5 -4.835938 0.675781 -5.546875 1.03125 -6.171875 C 1.394531 -6.804688 1.882812 -7.300781 2.5 -7.65625 C 3.125 -8.007812 3.8125 -8.1875 4.5625 -8.1875 C 5.320312 -8.1875 6.007812 -8.007812 6.625 -7.65625 C 7.25 -7.300781 7.738281 -6.8125 8.09375 -6.1875 C 8.445312 -5.5625 8.625 -4.847656 8.625 -4.046875 C 8.625 -3.253906 8.445312 -2.539062 8.09375 -1.90625 C 7.738281 -1.28125 7.25 -0.789062 6.625 -0.4375 C 6.007812 -0.09375 5.320312 0.078125 4.5625 0.078125 Z M 4.5625 -0.828125 C 5.125 -0.828125 5.628906 -0.957031 6.078125 -1.21875 C 6.535156 -1.488281 6.894531 -1.867188 7.15625 -2.359375 C 7.414062 -2.847656 7.546875 -3.410156 7.546875 -4.046875 C 7.546875 -4.703125 7.414062 -5.269531 7.15625 -5.75 C 6.894531 -6.238281 6.539062 -6.613281 6.09375 -6.875 C 5.644531 -7.132812 5.132812 -7.265625 4.5625 -7.265625 C 3.988281 -7.265625 3.476562 -7.132812 3.03125 -6.875 C 2.582031 -6.613281 2.226562 -6.238281 1.96875 -5.75 C 1.707031 -5.269531 1.578125 -4.703125 1.578125 -4.046875 C 1.578125 -3.410156 1.707031 -2.847656 1.96875 -2.359375 C 2.226562 -1.867188 2.582031 -1.488281 3.03125 -1.21875 C 3.488281 -0.957031 4 -0.828125 4.5625 -0.828125 Z M 4.5625 -0.828125 "/></g></g></g></svg>