<svg xmlns="http://www.w3.org/2000/svg" xmlns:xlink="http://www.w3.org/1999/xlink" width="500" zoomAndPan="magnify" viewBox="0 0 375 374.999991" height="500" preserveAspectRatio="xMidYMid meet" version="1.0"><defs><g/><clipPath id="7a7556e466"><path d="M 162.085938 145.625 L 213 145.625 L 213 177.125 L 162.085938 177.125 Z M 162.085938 145.625 " clip-rule="nonzero"/></clipPath></defs><rect x="-37.5" width="450" fill="#ffffff" y="-37.499999" height="449.999989" fill-opacity="1"/><rect x="-37.5" width="450" fill="#000000" y="-37.499999" height="449.999989" fill-opacity="1"/><g fill="#ffffff" fill-opacity="1"><g transform="translate(93.528694, 205.443296)"><g><path d="M 15.171875 0.53125 C 12.453125 0.53125 9.921875 0.148438 7.578125 -0.609375 C 5.242188 -1.367188 3.40625 -2.242188 2.0625 -3.234375 L 1.859375 -11.203125 L 2.546875 -11.296875 C 3.285156 -9.285156 4.300781 -7.472656 5.59375 -5.859375 C 6.882812 -4.253906 8.445312 -2.972656 10.28125 -2.015625 C 12.125 -1.054688 14.21875 -0.578125 16.5625 -0.578125 C 17.789062 -0.578125 18.9375 -0.832031 20 -1.34375 C 21.0625 -1.863281 21.925781 -2.617188 22.59375 -3.609375 C 23.269531 -4.597656 23.609375 -5.816406 23.609375 -7.265625 C 23.609375 -8.578125 23.238281 -9.71875 22.5 -10.6875 C 21.757812 -11.664062 20.8125 -12.515625 19.65625 -13.234375 C 18.507812 -13.960938 17.296875 -14.597656 16.015625 -15.140625 C 14.742188 -15.691406 13.578125 -16.179688 12.515625 -16.609375 C 10.710938 -17.390625 9.050781 -18.164062 7.53125 -18.9375 C 6.007812 -19.71875 4.789062 -20.71875 3.875 -21.9375 C 2.957031 -23.15625 2.5 -24.789062 2.5 -26.84375 C 2.5 -30.132812 3.726562 -32.734375 6.1875 -34.640625 C 8.644531 -36.554688 11.957031 -37.515625 16.125 -37.515625 C 18.113281 -37.515625 19.960938 -37.316406 21.671875 -36.921875 C 23.390625 -36.535156 24.9375 -35.988281 26.3125 -35.28125 L 26.53125 -28.390625 L 25.953125 -28.171875 C 24.847656 -30.898438 23.242188 -32.988281 21.140625 -34.4375 C 19.035156 -35.882812 16.691406 -36.609375 14.109375 -36.609375 C 11.992188 -36.609375 10.203125 -36.015625 8.734375 -34.828125 C 7.265625 -33.648438 6.53125 -32.015625 6.53125 -29.921875 C 6.53125 -28.753906 6.820312 -27.738281 7.40625 -26.875 C 7.988281 -26.007812 8.765625 -25.257812 9.734375 -24.625 C 10.710938 -23.988281 11.757812 -23.429688 12.875 -22.953125 C 13.988281 -22.472656 15.070312 -22.019531 16.125 -21.59375 C 17.46875 -21.0625 18.835938 -20.492188 20.234375 -19.890625 C 21.640625 -19.296875 22.925781 -18.59375 24.09375 -17.78125 C 25.257812 -16.96875 26.195312 -15.992188 26.90625 -14.859375 C 27.613281 -13.722656 27.96875 -12.359375 27.96875 -10.765625 C 27.96875 -8.960938 27.59375 -7.351562 26.84375 -5.9375 C 26.101562 -4.53125 25.113281 -3.347656 23.875 -2.390625 C 22.632812 -1.429688 21.253906 -0.703125 19.734375 -0.203125 C 18.210938 0.285156 16.691406 0.53125 15.171875 0.53125 Z M 15.171875 0.53125 "/></g></g></g><g fill="#ffffff" fill-opacity="1"><g transform="translate(136.725389, 205.443296)"><g><path d="M 1.0625 0 L 1.0625 -0.75 C 1.945312 -1.03125 2.519531 -1.617188 2.78125 -2.515625 C 3.050781 -3.421875 3.1875 -4.828125 3.1875 -6.734375 L 3.1875 -34.859375 C 3.1875 -36.421875 3 -37.445312 2.625 -37.9375 C 2.25 -38.4375 1.726562 -38.828125 1.0625 -39.109375 L 1.0625 -39.84375 L 8.0625 -42.921875 L 8.59375 -42.5 L 8.59375 -22.125 C 10.039062 -23.332031 11.703125 -24.429688 13.578125 -25.421875 C 15.453125 -26.410156 17.414062 -26.90625 19.46875 -26.90625 C 21.914062 -26.90625 23.890625 -26.222656 25.390625 -24.859375 C 26.890625 -23.492188 27.640625 -21.253906 27.640625 -18.140625 L 27.640625 -6.734375 C 27.640625 -4.828125 27.769531 -3.421875 28.03125 -2.515625 C 28.300781 -1.617188 28.878906 -1.03125 29.765625 -0.75 L 29.765625 0 L 20.109375 0 L 20.109375 -0.75 C 20.992188 -1.03125 21.566406 -1.617188 21.828125 -2.515625 C 22.097656 -3.421875 22.234375 -4.828125 22.234375 -6.734375 L 22.234375 -17.1875 C 22.234375 -19.59375 21.726562 -21.457031 20.71875 -22.78125 C 19.707031 -24.113281 18.210938 -24.78125 16.234375 -24.78125 C 14.992188 -24.78125 13.769531 -24.476562 12.5625 -23.875 C 11.363281 -23.269531 10.039062 -22.382812 8.59375 -21.21875 L 8.59375 -6.734375 C 8.59375 -4.828125 8.722656 -3.421875 8.984375 -2.515625 C 9.253906 -1.617188 9.832031 -1.03125 10.71875 -0.75 L 10.71875 0 Z M 1.0625 0 "/></g></g></g><g fill="#ffffff" fill-opacity="1"><g transform="translate(181.407824, 205.443296)"><g><path d="M 1.484375 0 L 1.484375 -0.75 C 2.367188 -1.03125 2.941406 -1.617188 3.203125 -2.515625 C 3.472656 -3.421875 3.609375 -4.828125 3.609375 -6.734375 L 3.609375 -18.9375 C 3.609375 -20.5 3.421875 -21.523438 3.046875 -22.015625 C 2.679688 -22.515625 2.160156 -22.90625 1.484375 -23.1875 L 1.484375 -23.9375 L 8.484375 -27.015625 L 9.015625 -26.578125 L 9.015625 -6.734375 C 9.015625 -4.828125 9.144531 -3.421875 9.40625 -2.515625 C 9.675781 -1.617188 10.253906 -1.03125 11.140625 -0.75 L 11.140625 0 Z M 2.390625 -32.421875 C 2.390625 -33.441406 2.742188 -34.304688 3.453125 -35.015625 C 4.160156 -35.722656 5.007812 -36.078125 6 -36.078125 C 7.0625 -36.078125 7.925781 -35.722656 8.59375 -35.015625 C 9.269531 -34.304688 9.609375 -33.441406 9.609375 -32.421875 C 9.609375 -31.429688 9.257812 -30.582031 8.5625 -29.875 C 7.875 -29.164062 7.019531 -28.8125 6 -28.8125 C 5.007812 -28.8125 4.160156 -29.164062 3.453125 -29.875 C 2.742188 -30.582031 2.390625 -31.429688 2.390625 -32.421875 Z M 2.390625 -32.421875 "/></g></g></g><g fill="#ffffff" fill-opacity="1"><g transform="translate(207.995949, 205.443296)"><g><path d="M 1.484375 0 L 1.484375 -0.75 C 2.367188 -1.03125 2.941406 -1.617188 3.203125 -2.515625 C 3.472656 -3.421875 3.609375 -4.828125 3.609375 -6.734375 L 3.609375 -18.9375 C 3.609375 -20.5 3.421875 -21.523438 3.046875 -22.015625 C 2.679688 -22.515625 2.160156 -22.90625 1.484375 -23.1875 L 1.484375 -23.9375 L 8.484375 -27.015625 L 9.015625 -26.578125 L 9.015625 -22.125 C 10.472656 -23.332031 12.140625 -24.429688 14.015625 -25.421875 C 15.890625 -26.410156 17.847656 -26.90625 19.890625 -26.90625 C 22.335938 -26.90625 24.3125 -26.222656 25.8125 -24.859375 C 27.3125 -23.492188 28.0625 -21.253906 28.0625 -18.140625 L 28.0625 -6.734375 C 28.0625 -4.828125 28.191406 -3.421875 28.453125 -2.515625 C 28.722656 -1.617188 29.300781 -1.03125 30.1875 -0.75 L 30.1875 0 L 20.53125 0 L 20.53125 -0.75 C 21.414062 -1.03125 21.988281 -1.617188 22.25 -2.515625 C 22.519531 -3.421875 22.65625 -4.828125 22.65625 -6.734375 L 22.65625 -17.1875 C 22.65625 -19.59375 22.148438 -21.457031 21.140625 -22.78125 C 20.140625 -24.113281 18.644531 -24.78125 16.65625 -24.78125 C 15.414062 -24.78125 14.195312 -24.476562 13 -23.875 C 11.800781 -23.269531 10.472656 -22.382812 9.015625 -21.21875 L 9.015625 -6.734375 C 9.015625 -4.828125 9.144531 -3.421875 9.40625 -2.515625 C 9.675781 -1.617188 10.253906 -1.03125 11.140625 -0.75 L 11.140625 0 Z M 1.484375 0 "/></g></g></g><g fill="#ffffff" fill-opacity="1"><g transform="translate(253.102891, 205.443296)"><g><path d="M 14.21875 0.53125 C 12.726562 0.53125 11.25 0.265625 9.78125 -0.265625 C 8.320312 -0.796875 6.972656 -1.59375 5.734375 -2.65625 C 4.492188 -3.71875 3.5 -5.039062 2.75 -6.625 C 2.007812 -8.21875 1.640625 -10.09375 1.640625 -12.25 C 1.640625 -14.519531 2.035156 -16.554688 2.828125 -18.359375 C 3.628906 -20.160156 4.703125 -21.695312 6.046875 -22.96875 C 7.390625 -24.25 8.882812 -25.222656 10.53125 -25.890625 C 12.175781 -26.566406 13.863281 -26.90625 15.59375 -26.90625 C 18 -26.90625 20.015625 -26.425781 21.640625 -25.46875 C 23.273438 -24.507812 24.503906 -23.304688 25.328125 -21.859375 C 26.160156 -20.410156 26.578125 -18.90625 26.578125 -17.34375 L 6.46875 -17.34375 C 6.4375 -17.0625 6.410156 -16.78125 6.390625 -16.5 C 6.378906 -16.21875 6.375 -15.9375 6.375 -15.65625 C 6.375 -13.351562 6.820312 -11.300781 7.71875 -9.5 C 8.625 -7.695312 9.898438 -6.289062 11.546875 -5.28125 C 13.191406 -4.269531 15.125 -3.765625 17.34375 -3.765625 C 19.332031 -3.765625 21.085938 -4.15625 22.609375 -4.9375 C 24.128906 -5.71875 25.4375 -6.722656 26.53125 -7.953125 L 27.015625 -7.421875 C 26.191406 -6.191406 25.179688 -4.960938 23.984375 -3.734375 C 22.785156 -2.515625 21.367188 -1.5 19.734375 -0.6875 C 18.109375 0.125 16.269531 0.53125 14.21875 0.53125 Z M 6.53125 -18.09375 L 21.21875 -18.09375 C 21.007812 -19.539062 20.5625 -20.859375 19.875 -22.046875 C 19.1875 -23.234375 18.335938 -24.179688 17.328125 -24.890625 C 16.316406 -25.597656 15.191406 -25.953125 13.953125 -25.953125 C 12.472656 -25.984375 11.21875 -25.625 10.1875 -24.875 C 9.164062 -24.132812 8.351562 -23.160156 7.75 -21.953125 C 7.144531 -20.753906 6.738281 -19.46875 6.53125 -18.09375 Z M 6.53125 -18.09375 "/></g></g></g><g clip-path="url(#7a7556e466)"><path fill="#ffd97d" d="M 212.90625 171.035156 C 189.410156 172.089844 188.554688 172.945312 187.496094 196.441406 C 186.441406 172.945312 185.585938 172.089844 162.085938 171.035156 C 185.585938 169.976562 186.441406 169.121094 187.496094 145.625 C 188.554688 169.121094 189.410156 169.976562 212.90625 171.035156 Z M 212.90625 171.035156 " fill-opacity="1" fill-rule="nonzero"/></g><path fill="#ffd97d" d="M 181.761719 157.613281 C 176.511719 157.847656 176.320312 158.039062 176.085938 163.289062 C 175.847656 158.039062 175.65625 157.847656 170.410156 157.613281 C 175.660156 157.378906 175.847656 157.1875 176.085938 151.9375 C 176.320312 157.1875 176.511719 157.378906 181.761719 157.613281 Z M 181.761719 157.613281 " fill-opacity="1" fill-rule="nonzero"/><path fill="#ffd97d" d="M 210.253906 157.132812 C 202.546875 157.480469 202.265625 157.757812 201.921875 165.464844 C 201.574219 157.757812 201.292969 157.480469 193.585938 157.132812 C 201.292969 156.785156 201.574219 156.503906 201.921875 148.800781 C 202.265625 156.503906 202.546875 156.785156 210.253906 157.132812 Z M 210.253906 157.132812 " fill-opacity="1" fill-rule="nonzero"/><path fill="#ffd97d" d="M 210.253906 151.457031 C 208.152344 151.550781 208.078125 151.628906 207.984375 153.726562 C 207.890625 151.628906 207.8125 151.550781 205.714844 151.457031 C 207.8125 151.363281 207.890625 151.285156 207.984375 149.1875 C 208.078125 151.285156 208.152344 151.363281 210.253906 151.457031 Z M 210.253906 151.457031 " fill-opacity="1" fill-rule="nonzero"/><path fill="#ffd97d" d="M 197.160156 148.800781 C 195.0625 148.894531 194.984375 148.96875 194.890625 151.070312 C 194.796875 148.96875 194.722656 148.894531 192.621094 148.800781 C 194.722656 148.707031 194.796875 148.628906 194.890625 146.53125 C 194.984375 148.628906 195.0625 148.703125 197.160156 148.800781 Z M 197.160156 148.800781 " fill-opacity="1" fill-rule="nonzero"/><g fill="#ffffff" fill-opacity="1"><g transform="translate(93.019583, 230.36055)"><g><path d="M 4.265625 -3.59375 C 4.515625 -3.550781 4.742188 -3.445312 4.953125 -3.28125 C 5.160156 -3.113281 5.328125 -2.90625 5.453125 -2.65625 C 5.578125 -2.414062 5.640625 -2.15625 5.640625 -1.875 C 5.640625 -1.519531 5.546875 -1.195312 5.359375 -0.90625 C 5.179688 -0.625 4.921875 -0.398438 4.578125 -0.234375 C 4.234375 -0.078125 3.832031 0 3.375 0 L 0.765625 0 L 0.765625 -6.96875 L 3.265625 -6.96875 C 3.742188 -6.96875 4.148438 -6.890625 4.484375 -6.734375 C 4.816406 -6.578125 5.066406 -6.363281 5.234375 -6.09375 C 5.398438 -5.832031 5.484375 -5.535156 5.484375 -5.203125 C 5.484375 -4.785156 5.367188 -4.441406 5.140625 -4.171875 C 4.921875 -3.898438 4.628906 -3.707031 4.265625 -3.59375 Z M 1.6875 -3.953125 L 3.203125 -3.953125 C 3.628906 -3.953125 3.957031 -4.050781 4.1875 -4.25 C 4.425781 -4.457031 4.546875 -4.738281 4.546875 -5.09375 C 4.546875 -5.445312 4.425781 -5.722656 4.1875 -5.921875 C 3.957031 -6.117188 3.625 -6.21875 3.1875 -6.21875 L 1.6875 -6.21875 Z M 3.296875 -0.75 C 3.742188 -0.75 4.09375 -0.851562 4.34375 -1.0625 C 4.601562 -1.28125 4.734375 -1.578125 4.734375 -1.953125 C 4.734375 -2.347656 4.597656 -2.65625 4.328125 -2.875 C 4.066406 -3.09375 3.710938 -3.203125 3.265625 -3.203125 L 1.6875 -3.203125 L 1.6875 -0.75 Z M 3.296875 -0.75 "/></g></g></g><g fill="#ffffff" fill-opacity="1"><g transform="translate(103.147271, 230.36055)"><g><path d="M 4.4375 0 L 2.78125 -2.84375 L 1.6875 -2.84375 L 1.6875 0 L 0.765625 0 L 0.765625 -6.96875 L 3.015625 -6.96875 C 3.546875 -6.96875 3.992188 -6.878906 4.359375 -6.703125 C 4.722656 -6.523438 4.992188 -6.28125 5.171875 -5.96875 C 5.347656 -5.664062 5.4375 -5.316406 5.4375 -4.921875 C 5.4375 -4.441406 5.296875 -4.015625 5.015625 -3.640625 C 4.742188 -3.273438 4.332031 -3.035156 3.78125 -2.921875 L 5.53125 0 Z M 1.6875 -3.578125 L 3.015625 -3.578125 C 3.515625 -3.578125 3.882812 -3.695312 4.125 -3.9375 C 4.375 -4.1875 4.5 -4.515625 4.5 -4.921875 C 4.5 -5.335938 4.375 -5.65625 4.125 -5.875 C 3.882812 -6.101562 3.515625 -6.21875 3.015625 -6.21875 L 1.6875 -6.21875 Z M 1.6875 -3.578125 "/></g></g></g><g fill="#ffffff" fill-opacity="1"><g transform="translate(113.224983, 230.36055)"><g><path d="M 1.6875 -6.96875 L 1.6875 0 L 0.765625 0 L 0.765625 -6.96875 Z M 1.6875 -6.96875 "/></g></g></g><g fill="#ffffff" fill-opacity="1"><g transform="translate(119.684118, 230.36055)"><g><path d="M 1.6875 -0.734375 L 4.125 -0.734375 L 4.125 0 L 0.765625 0 L 0.765625 -6.96875 L 1.6875 -6.96875 Z M 1.6875 -0.734375 "/></g></g></g><g fill="#ffffff" fill-opacity="1"><g transform="translate(128.00253, 230.36055)"><g><path d="M 1.6875 -0.734375 L 4.125 -0.734375 L 4.125 0 L 0.765625 0 L 0.765625 -6.96875 L 1.6875 -6.96875 Z M 1.6875 -0.734375 "/></g></g></g><g fill="#ffffff" fill-opacity="1"><g transform="translate(136.320942, 230.36055)"><g><path d="M 4.890625 -1.546875 L 1.84375 -1.546875 L 1.296875 0 L 0.328125 0 L 2.84375 -6.9375 L 3.90625 -6.9375 L 6.40625 0 L 5.453125 0 Z M 4.625 -2.296875 L 3.375 -5.8125 L 2.109375 -2.296875 Z M 4.625 -2.296875 "/></g></g></g><g fill="#ffffff" fill-opacity="1"><g transform="translate(147.058392, 230.36055)"><g/></g></g><g fill="#ffffff" fill-opacity="1"><g transform="translate(153.727448, 230.36055)"><g><path d="M 0.4375 -3.484375 C 0.4375 -4.171875 0.585938 -4.785156 0.890625 -5.328125 C 1.191406 -5.867188 1.609375 -6.289062 2.140625 -6.59375 C 2.671875 -6.90625 3.257812 -7.0625 3.90625 -7.0625 C 4.664062 -7.0625 5.328125 -6.875 5.890625 -6.5 C 6.460938 -6.132812 6.878906 -5.617188 7.140625 -4.953125 L 6.046875 -4.953125 C 5.859375 -5.367188 5.582031 -5.691406 5.21875 -5.921875 C 4.851562 -6.148438 4.414062 -6.265625 3.90625 -6.265625 C 3.425781 -6.265625 2.988281 -6.148438 2.59375 -5.921875 C 2.207031 -5.691406 1.90625 -5.367188 1.6875 -4.953125 C 1.46875 -4.535156 1.359375 -4.046875 1.359375 -3.484375 C 1.359375 -2.929688 1.46875 -2.445312 1.6875 -2.03125 C 1.90625 -1.613281 2.207031 -1.289062 2.59375 -1.0625 C 2.988281 -0.84375 3.425781 -0.734375 3.90625 -0.734375 C 4.414062 -0.734375 4.851562 -0.84375 5.21875 -1.0625 C 5.582031 -1.289062 5.859375 -1.613281 6.046875 -2.03125 L 7.140625 -2.03125 C 6.878906 -1.363281 6.460938 -0.847656 5.890625 -0.484375 C 5.328125 -0.117188 4.664062 0.0625 3.90625 0.0625 C 3.257812 0.0625 2.671875 -0.0859375 2.140625 -0.390625 C 1.609375 -0.691406 1.191406 -1.113281 0.890625 -1.65625 C 0.585938 -2.195312 0.4375 -2.804688 0.4375 -3.484375 Z M 0.4375 -3.484375 "/></g></g></g><g fill="#ffffff" fill-opacity="1"><g transform="translate(165.444515, 230.36055)"><g><path d="M 3.9375 0.0625 C 3.28125 0.0625 2.6875 -0.0859375 2.15625 -0.390625 C 1.625 -0.691406 1.203125 -1.113281 0.890625 -1.65625 C 0.585938 -2.195312 0.4375 -2.804688 0.4375 -3.484375 C 0.4375 -4.171875 0.585938 -4.785156 0.890625 -5.328125 C 1.203125 -5.867188 1.625 -6.289062 2.15625 -6.59375 C 2.6875 -6.894531 3.28125 -7.046875 3.9375 -7.046875 C 4.582031 -7.046875 5.171875 -6.894531 5.703125 -6.59375 C 6.242188 -6.289062 6.664062 -5.867188 6.96875 -5.328125 C 7.28125 -4.785156 7.4375 -4.171875 7.4375 -3.484375 C 7.4375 -2.796875 7.28125 -2.179688 6.96875 -1.640625 C 6.664062 -1.109375 6.242188 -0.691406 5.703125 -0.390625 C 5.171875 -0.0859375 4.582031 0.0625 3.9375 0.0625 Z M 3.9375 -0.71875 C 4.414062 -0.71875 4.847656 -0.832031 5.234375 -1.0625 C 5.628906 -1.289062 5.9375 -1.613281 6.15625 -2.03125 C 6.382812 -2.445312 6.5 -2.929688 6.5 -3.484375 C 6.5 -4.046875 6.382812 -4.535156 6.15625 -4.953125 C 5.9375 -5.367188 5.632812 -5.691406 5.25 -5.921875 C 4.863281 -6.148438 4.425781 -6.265625 3.9375 -6.265625 C 3.4375 -6.265625 2.992188 -6.148438 2.609375 -5.921875 C 2.222656 -5.691406 1.914062 -5.367188 1.6875 -4.953125 C 1.46875 -4.535156 1.359375 -4.046875 1.359375 -3.484375 C 1.359375 -2.929688 1.46875 -2.445312 1.6875 -2.03125 C 1.914062 -1.613281 2.222656 -1.289062 2.609375 -1.0625 C 3.003906 -0.832031 3.445312 -0.71875 3.9375 -0.71875 Z M 3.9375 -0.71875 "/></g></g></g><g fill="#ffffff" fill-opacity="1"><g transform="translate(177.30152, 230.36055)"><g><path d="M 6.25 0 L 5.34375 0 L 1.6875 -5.546875 L 1.6875 0 L 0.765625 0 L 0.765625 -6.984375 L 1.6875 -6.984375 L 5.34375 -1.4375 L 5.34375 -6.984375 L 6.25 -6.984375 Z M 6.25 0 "/></g></g></g><g fill="#ffffff" fill-opacity="1"><g transform="translate(188.328863, 230.36055)"><g/></g></g><g fill="#ffffff" fill-opacity="1"><g transform="translate(194.997913, 230.36055)"><g><path d="M 5.4375 -4.9375 C 5.4375 -4.351562 5.234375 -3.867188 4.828125 -3.484375 C 4.429688 -3.097656 3.828125 -2.90625 3.015625 -2.90625 L 1.6875 -2.90625 L 1.6875 0 L 0.765625 0 L 0.765625 -6.96875 L 3.015625 -6.96875 C 3.804688 -6.96875 4.40625 -6.773438 4.8125 -6.390625 C 5.226562 -6.015625 5.4375 -5.53125 5.4375 -4.9375 Z M 3.015625 -3.65625 C 3.523438 -3.65625 3.898438 -3.765625 4.140625 -3.984375 C 4.378906 -4.203125 4.5 -4.519531 4.5 -4.9375 C 4.5 -5.789062 4.003906 -6.21875 3.015625 -6.21875 L 1.6875 -6.21875 L 1.6875 -3.65625 Z M 3.015625 -3.65625 "/></g></g></g><g fill="#ffffff" fill-opacity="1"><g transform="translate(204.785735, 230.36055)"><g><path d="M 4.4375 0 L 2.78125 -2.84375 L 1.6875 -2.84375 L 1.6875 0 L 0.765625 0 L 0.765625 -6.96875 L 3.015625 -6.96875 C 3.546875 -6.96875 3.992188 -6.878906 4.359375 -6.703125 C 4.722656 -6.523438 4.992188 -6.28125 5.171875 -5.96875 C 5.347656 -5.664062 5.4375 -5.316406 5.4375 -4.921875 C 5.4375 -4.441406 5.296875 -4.015625 5.015625 -3.640625 C 4.742188 -3.273438 4.332031 -3.035156 3.78125 -2.921875 L 5.53125 0 Z M 1.6875 -3.578125 L 3.015625 -3.578125 C 3.515625 -3.578125 3.882812 -3.695312 4.125 -3.9375 C 4.375 -4.1875 4.5 -4.515625 4.5 -4.921875 C 4.5 -5.335938 4.375 -5.65625 4.125 -5.875 C 3.882812 -6.101562 3.515625 -6.21875 3.015625 -6.21875 L 1.6875 -6.21875 Z M 1.6875 -3.578125 "/></g></g></g><g fill="#ffffff" fill-opacity="1"><g transform="translate(214.863447, 230.36055)"><g><path d="M 3.9375 0.0625 C 3.28125 0.0625 2.6875 -0.0859375 2.15625 -0.390625 C 1.625 -0.691406 1.203125 -1.113281 0.890625 -1.65625 C 0.585938 -2.195312 0.4375 -2.804688 0.4375 -3.484375 C 0.4375 -4.171875 0.585938 -4.785156 0.890625 -5.328125 C 1.203125 -5.867188 1.625 -6.289062 2.15625 -6.59375 C 2.6875 -6.894531 3.28125 -7.046875 3.9375 -7.046875 C 4.582031 -7.046875 5.171875 -6.894531 5.703125 -6.59375 C 6.242188 -6.289062 6.664062 -5.867188 6.96875 -5.328125 C 7.28125 -4.785156 7.4375 -4.171875 7.4375 -3.484375 C 7.4375 -2.796875 7.28125 -2.179688 6.96875 -1.640625 C 6.664062 -1.109375 6.242188 -0.691406 5.703125 -0.390625 C 5.171875 -0.0859375 4.582031 0.0625 3.9375 0.0625 Z M 3.9375 -0.71875 C 4.414062 -0.71875 4.847656 -0.832031 5.234375 -1.0625 C 5.628906 -1.289062 5.9375 -1.613281 6.15625 -2.03125 C 6.382812 -2.445312 6.5 -2.929688 6.5 -3.484375 C 6.5 -4.046875 6.382812 -4.535156 6.15625 -4.953125 C 5.9375 -5.367188 5.632812 -5.691406 5.25 -5.921875 C 4.863281 -6.148438 4.425781 -6.265625 3.9375 -6.265625 C 3.4375 -6.265625 2.992188 -6.148438 2.609375 -5.921875 C 2.222656 -5.691406 1.914062 -5.367188 1.6875 -4.953125 C 1.46875 -4.535156 1.359375 -4.046875 1.359375 -3.484375 C 1.359375 -2.929688 1.46875 -2.445312 1.6875 -2.03125 C 1.914062 -1.613281 2.222656 -1.289062 2.609375 -1.0625 C 3.003906 -0.832031 3.445312 -0.71875 3.9375 -0.71875 Z M 3.9375 -0.71875 "/></g></g></g><g fill="#ffffff" fill-opacity="1"><g transform="translate(226.720452, 230.36055)"><g><path d="M 5.4375 -4.9375 C 5.4375 -4.351562 5.234375 -3.867188 4.828125 -3.484375 C 4.429688 -3.097656 3.828125 -2.90625 3.015625 -2.90625 L 1.6875 -2.90625 L 1.6875 0 L 0.765625 0 L 0.765625 -6.96875 L 3.015625 -6.96875 C 3.804688 -6.96875 4.40625 -6.773438 4.8125 -6.390625 C 5.226562 -6.015625 5.4375 -5.53125 5.4375 -4.9375 Z M 3.015625 -3.65625 C 3.523438 -3.65625 3.898438 -3.765625 4.140625 -3.984375 C 4.378906 -4.203125 4.5 -4.519531 4.5 -4.9375 C 4.5 -5.789062 4.003906 -6.21875 3.015625 -6.21875 L 1.6875 -6.21875 L 1.6875 -3.65625 Z M 3.015625 -3.65625 "/></g></g></g><g fill="#ffffff" fill-opacity="1"><g transform="translate(236.508275, 230.36055)"><g><path d="M 3.9375 0.0625 C 3.28125 0.0625 2.6875 -0.0859375 2.15625 -0.390625 C 1.625 -0.691406 1.203125 -1.113281 0.890625 -1.65625 C 0.585938 -2.195312 0.4375 -2.804688 0.4375 -3.484375 C 0.4375 -4.171875 0.585938 -4.785156 0.890625 -5.328125 C 1.203125 -5.867188 1.625 -6.289062 2.15625 -6.59375 C 2.6875 -6.894531 3.28125 -7.046875 3.9375 -7.046875 C 4.582031 -7.046875 5.171875 -6.894531 5.703125 -6.59375 C 6.242188 -6.289062 6.664062 -5.867188 6.96875 -5.328125 C 7.28125 -4.785156 7.4375 -4.171875 7.4375 -3.484375 C 7.4375 -2.796875 7.28125 -2.179688 6.96875 -1.640625 C 6.664062 -1.109375 6.242188 -0.691406 5.703125 -0.390625 C 5.171875 -0.0859375 4.582031 0.0625 3.9375 0.0625 Z M 3.9375 -0.71875 C 4.414062 -0.71875 4.847656 -0.832031 5.234375 -1.0625 C 5.628906 -1.289062 5.9375 -1.613281 6.15625 -2.03125 C 6.382812 -2.445312 6.5 -2.929688 6.5 -3.484375 C 6.5 -4.046875 6.382812 -4.535156 6.15625 -4.953125 C 5.9375 -5.367188 5.632812 -5.691406 5.25 -5.921875 C 4.863281 -6.148438 4.425781 -6.265625 3.9375 -6.265625 C 3.4375 -6.265625 2.992188 -6.148438 2.609375 -5.921875 C 2.222656 -5.691406 1.914062 -5.367188 1.6875 -4.953125 C 1.46875 -4.535156 1.359375 -4.046875 1.359375 -3.484375 C 1.359375 -2.929688 1.46875 -2.445312 1.6875 -2.03125 C 1.914062 -1.613281 2.222656 -1.289062 2.609375 -1.0625 C 3.003906 -0.832031 3.445312 -0.71875 3.9375 -0.71875 Z M 3.9375 -0.71875 "/></g></g></g><g fill="#ffffff" fill-opacity="1"><g transform="translate(248.36528, 230.36055)"><g><path d="M 2.984375 0.0625 C 2.523438 0.0625 2.113281 -0.015625 1.75 -0.171875 C 1.382812 -0.335938 1.097656 -0.566406 0.890625 -0.859375 C 0.679688 -1.148438 0.570312 -1.484375 0.5625 -1.859375 L 1.546875 -1.859375 C 1.578125 -1.535156 1.707031 -1.257812 1.9375 -1.03125 C 2.175781 -0.8125 2.523438 -0.703125 2.984375 -0.703125 C 3.410156 -0.703125 3.75 -0.804688 4 -1.015625 C 4.25 -1.234375 4.375 -1.515625 4.375 -1.859375 C 4.375 -2.128906 4.300781 -2.347656 4.15625 -2.515625 C 4.007812 -2.679688 3.828125 -2.804688 3.609375 -2.890625 C 3.390625 -2.972656 3.09375 -3.066406 2.71875 -3.171875 C 2.257812 -3.285156 1.890625 -3.398438 1.609375 -3.515625 C 1.335938 -3.640625 1.101562 -3.832031 0.90625 -4.09375 C 0.707031 -4.351562 0.609375 -4.695312 0.609375 -5.125 C 0.609375 -5.507812 0.703125 -5.847656 0.890625 -6.140625 C 1.085938 -6.429688 1.359375 -6.65625 1.703125 -6.8125 C 2.054688 -6.976562 2.460938 -7.0625 2.921875 -7.0625 C 3.578125 -7.0625 4.113281 -6.894531 4.53125 -6.5625 C 4.945312 -6.238281 5.179688 -5.804688 5.234375 -5.265625 L 4.234375 -5.265625 C 4.203125 -5.535156 4.0625 -5.769531 3.8125 -5.96875 C 3.5625 -6.175781 3.234375 -6.28125 2.828125 -6.28125 C 2.453125 -6.28125 2.144531 -6.179688 1.90625 -5.984375 C 1.664062 -5.785156 1.546875 -5.507812 1.546875 -5.15625 C 1.546875 -4.90625 1.613281 -4.695312 1.75 -4.53125 C 1.894531 -4.375 2.070312 -4.253906 2.28125 -4.171875 C 2.488281 -4.085938 2.785156 -3.992188 3.171875 -3.890625 C 3.628906 -3.765625 4 -3.640625 4.28125 -3.515625 C 4.5625 -3.390625 4.800781 -3.195312 5 -2.9375 C 5.195312 -2.6875 5.296875 -2.34375 5.296875 -1.90625 C 5.296875 -1.5625 5.207031 -1.238281 5.03125 -0.9375 C 4.851562 -0.632812 4.585938 -0.390625 4.234375 -0.203125 C 3.878906 -0.0234375 3.460938 0.0625 2.984375 0.0625 Z M 2.984375 0.0625 "/></g></g></g><g fill="#ffffff" fill-opacity="1"><g transform="translate(258.233073, 230.36055)"><g><path d="M 1.6875 -6.96875 L 1.6875 0 L 0.765625 0 L 0.765625 -6.96875 Z M 1.6875 -6.96875 "/></g></g></g><g fill="#ffffff" fill-opacity="1"><g transform="translate(264.69221, 230.36055)"><g><path d="M 5.0625 -6.96875 L 5.0625 -6.234375 L 3.15625 -6.234375 L 3.15625 0 L 2.25 0 L 2.25 -6.234375 L 0.34375 -6.234375 L 0.34375 -6.96875 Z M 5.0625 -6.96875 "/></g></g></g><g fill="#ffffff" fill-opacity="1"><g transform="translate(274.100191, 230.36055)"><g><path d="M 3.9375 0.0625 C 3.28125 0.0625 2.6875 -0.0859375 2.15625 -0.390625 C 1.625 -0.691406 1.203125 -1.113281 0.890625 -1.65625 C 0.585938 -2.195312 0.4375 -2.804688 0.4375 -3.484375 C 0.4375 -4.171875 0.585938 -4.785156 0.890625 -5.328125 C 1.203125 -5.867188 1.625 -6.289062 2.15625 -6.59375 C 2.6875 -6.894531 3.28125 -7.046875 3.9375 -7.046875 C 4.582031 -7.046875 5.171875 -6.894531 5.703125 -6.59375 C 6.242188 -6.289062 6.664062 -5.867188 6.96875 -5.328125 C 7.28125 -4.785156 7.4375 -4.171875 7.4375 -3.484375 C 7.4375 -2.796875 7.28125 -2.179688 6.96875 -1.640625 C 6.664062 -1.109375 6.242188 -0.691406 5.703125 -0.390625 C 5.171875 -0.0859375 4.582031 0.0625 3.9375 0.0625 Z M 3.9375 -0.71875 C 4.414062 -0.71875 4.847656 -0.832031 5.234375 -1.0625 C 5.628906 -1.289062 5.9375 -1.613281 6.15625 -2.03125 C 6.382812 -2.445312 6.5 -2.929688 6.5 -3.484375 C 6.5 -4.046875 6.382812 -4.535156 6.15625 -4.953125 C 5.9375 -5.367188 5.632812 -5.691406 5.25 -5.921875 C 4.863281 -6.148438 4.425781 -6.265625 3.9375 -6.265625 C 3.4375 -6.265625 2.992188 -6.148438 2.609375 -5.921875 C 2.222656 -5.691406 1.914062 -5.367188 1.6875 -4.953125 C 1.46875 -4.535156 1.359375 -4.046875 1.359375 -3.484375 C 1.359375 -2.929688 1.46875 -2.445312 1.6875 -2.03125 C 1.914062 -1.613281 2.222656 -1.289062 2.609375 -1.0625 C 3.003906 -0.832031 3.445312 -0.71875 3.9375 -0.71875 Z M 3.9375 -0.71875 "/></g></g></g></svg>