<svg xmlns="http://www.w3.org/2000/svg" xmlns:xlink="http://www.w3.org/1999/xlink" width="1080" zoomAndPan="magnify" viewBox="0 0 810 809.999993" height="1080" preserveAspectRatio="xMidYMid meet" version="1.2"><defs><clipPath id="08eae6a9df"><path d="M 253 134.832031 L 810 134.832031 L 810 542 L 253 542 Z M 253 134.832031 "/></clipPath><clipPath id="22b1ed61c3"><path d="M 9 664 L 20 664 L 20 674.832031 L 9 674.832031 Z M 9 664 "/></clipPath><clipPath id="ce3a59249a"><path d="M 130 664 L 142 664 L 142 674.832031 L 130 674.832031 Z M 130 664 "/></clipPath><clipPath id="7b5826dd2e"><path d="M 62 446 L 270 446 L 270 674.832031 L 62 674.832031 Z M 62 446 "/></clipPath><clipPath id="94507ea32b"><path d="M 62 445 L 271 445 L 271 674.832031 L 62 674.832031 Z M 62 445 "/></clipPath><clipPath id="9042c615fb"><path d="M 74 664 L 85 664 L 85 674.832031 L 74 674.832031 Z M 74 664 "/></clipPath><clipPath id="43874525d9"><path d="M 429 664 L 441 664 L 441 674.832031 L 429 674.832031 Z M 429 664 "/></clipPath><clipPath id="ba1a7fcb62"><path d="M 0 673 L 393 673 L 393 674.832031 L 0 674.832031 Z M 0 673 "/></clipPath></defs><g id="676b09b169"><path style=" stroke:none;fill-rule:nonzero;fill:#ffffff;fill-opacity:1;" d="M 281.984375 540.847656 L 781.191406 540.847656 C 796.429688 540.847656 808.78125 528.496094 808.78125 513.261719 L 808.78125 163.066406 C 808.78125 147.832031 796.429688 135.480469 781.191406 135.480469 L 281.984375 135.480469 C 266.75 135.480469 254.398438 147.832031 254.398438 163.066406 L 254.398438 513.261719 C 254.398438 528.496094 266.75 540.847656 281.984375 540.847656 "/><g clip-rule="nonzero" clip-path="url(#08eae6a9df)"><path style=" stroke:none;fill-rule:nonzero;fill:#000000;fill-opacity:1;" d="M 281.984375 136.128906 C 267.128906 136.128906 255.046875 148.214844 255.046875 163.066406 L 255.046875 513.261719 C 255.046875 528.113281 267.128906 540.199219 281.984375 540.199219 L 781.191406 540.199219 C 796.046875 540.199219 808.132812 528.113281 808.132812 513.261719 L 808.132812 163.066406 C 808.132812 148.214844 796.046875 136.128906 781.191406 136.128906 Z M 781.191406 541.496094 L 281.984375 541.496094 C 266.417969 541.496094 253.75 528.832031 253.75 513.261719 L 253.75 163.066406 C 253.75 147.496094 266.417969 134.832031 281.984375 134.832031 L 781.191406 134.832031 C 796.765625 134.832031 809.429688 147.496094 809.429688 163.066406 L 809.429688 513.261719 C 809.429688 528.832031 796.765625 541.496094 781.191406 541.496094 "/></g><path style=" stroke:none;fill-rule:nonzero;fill:#ffffff;fill-opacity:1;" d="M 273.171875 513.960938 L 273.171875 162.363281 C 273.171875 157.886719 276.804688 154.25 281.285156 154.25 L 781.890625 154.25 C 786.375 154.25 790.007812 157.886719 790.007812 162.367188 L 790.007812 513.960938 C 790.007812 518.445312 786.375 522.074219 781.890625 522.074219 L 281.285156 522.074219 C 276.804688 522.074219 273.171875 518.445312 273.171875 513.960938 "/><path style=" stroke:none;fill-rule:nonzero;fill:#000000;fill-opacity:1;" d="M 281.285156 154.902344 C 277.167969 154.902344 273.820312 158.25 273.820312 162.367188 L 273.820312 513.960938 C 273.820312 518.078125 277.167969 521.425781 281.285156 521.425781 L 781.890625 521.425781 C 786.011719 521.425781 789.359375 518.078125 789.359375 513.960938 L 789.359375 162.367188 C 789.359375 158.25 786.011719 154.902344 781.890625 154.902344 Z M 781.890625 522.726562 L 281.285156 522.726562 C 276.453125 522.726562 272.523438 518.796875 272.523438 513.960938 L 272.523438 162.367188 C 272.523438 157.535156 276.453125 153.605469 281.285156 153.605469 L 781.890625 153.605469 C 786.726562 153.605469 790.660156 157.535156 790.660156 162.367188 L 790.660156 513.960938 C 790.660156 518.796875 786.726562 522.726562 781.890625 522.726562 "/><path style=" stroke:none;fill-rule:nonzero;fill:#ffffff;fill-opacity:1;" d="M 483.589844 256.769531 L 650.59375 256.769531 L 650.59375 182.117188 L 483.589844 182.117188 L 483.589844 256.769531 "/><path style=" stroke:none;fill-rule:nonzero;fill:#000000;fill-opacity:1;" d="M 484.238281 256.117188 L 649.945312 256.117188 L 649.945312 182.765625 L 484.238281 182.765625 Z M 650.59375 257.417969 L 483.589844 257.417969 C 483.230469 257.417969 482.941406 257.128906 482.941406 256.769531 L 482.941406 182.117188 C 482.941406 181.757812 483.230469 181.46875 483.589844 181.46875 L 650.59375 181.46875 C 650.949219 181.46875 651.238281 181.757812 651.238281 182.117188 L 651.238281 256.769531 C 651.238281 257.128906 650.949219 257.417969 650.59375 257.417969 "/><path style=" stroke:none;fill-rule:nonzero;fill:#ffde00;fill-opacity:1;" d="M 765.183594 256.769531 L 671.695312 256.769531 L 671.695312 182.117188 L 765.183594 182.117188 L 765.183594 256.769531 "/><path style=" stroke:none;fill-rule:nonzero;fill:#2f2f2f;fill-opacity:1;" d="M 765.183594 274.238281 L 483.589844 274.238281 C 483.230469 274.238281 482.941406 273.945312 482.941406 273.585938 C 482.941406 273.226562 483.230469 272.9375 483.589844 272.9375 L 765.183594 272.9375 C 765.542969 272.9375 765.835938 273.226562 765.835938 273.585938 C 765.835938 273.945312 765.542969 274.238281 765.183594 274.238281 "/><path style=" stroke:none;fill-rule:nonzero;fill:#2f2f2f;fill-opacity:1;" d="M 765.183594 297.933594 L 483.589844 297.933594 C 483.230469 297.933594 482.941406 297.644531 482.941406 297.28125 C 482.941406 296.921875 483.230469 296.632812 483.589844 296.632812 L 765.183594 296.632812 C 765.542969 296.632812 765.835938 296.921875 765.835938 297.28125 C 765.835938 297.644531 765.542969 297.933594 765.183594 297.933594 "/><path style=" stroke:none;fill-rule:nonzero;fill:#2f2f2f;fill-opacity:1;" d="M 765.183594 321.628906 L 483.589844 321.628906 C 483.230469 321.628906 482.941406 321.339844 482.941406 320.976562 C 482.941406 320.621094 483.230469 320.328125 483.589844 320.328125 L 765.183594 320.328125 C 765.542969 320.328125 765.835938 320.621094 765.835938 320.976562 C 765.835938 321.339844 765.542969 321.628906 765.183594 321.628906 "/><path style=" stroke:none;fill-rule:nonzero;fill:#2f2f2f;fill-opacity:1;" d="M 765.183594 345.320312 L 483.589844 345.320312 C 483.230469 345.320312 482.941406 345.035156 482.941406 344.671875 C 482.941406 344.316406 483.230469 344.023438 483.589844 344.023438 L 765.183594 344.023438 C 765.542969 344.023438 765.835938 344.316406 765.835938 344.671875 C 765.835938 345.035156 765.542969 345.320312 765.183594 345.320312 "/><path style=" stroke:none;fill-rule:nonzero;fill:#ffffff;fill-opacity:1;" d="M 564.773438 502.398438 L 299.398438 502.398438 L 299.398438 384.726562 L 564.773438 384.726562 L 564.773438 502.398438 "/><path style=" stroke:none;fill-rule:nonzero;fill:#000000;fill-opacity:1;" d="M 300.046875 501.75 L 564.125 501.75 L 564.125 385.375 L 300.046875 385.375 Z M 564.773438 503.050781 L 299.398438 503.050781 C 299.039062 503.050781 298.75 502.761719 298.75 502.398438 L 298.75 384.726562 C 298.75 384.371094 299.039062 384.078125 299.398438 384.078125 L 564.773438 384.078125 C 565.132812 384.078125 565.421875 384.371094 565.421875 384.726562 L 565.421875 502.398438 C 565.421875 502.761719 565.132812 503.050781 564.773438 503.050781 "/><path style=" stroke:none;fill-rule:nonzero;fill:#ffffff;fill-opacity:1;" d="M 680.910156 250.449219 C 680.792969 250.449219 680.675781 250.421875 680.574219 250.355469 C 680.265625 250.171875 680.167969 249.769531 680.355469 249.464844 L 707.324219 205.171875 C 707.441406 204.984375 707.644531 204.867188 707.863281 204.859375 C 708.082031 204.875 708.292969 204.964844 708.417969 205.144531 L 738.484375 249.4375 C 738.6875 249.734375 738.609375 250.136719 738.3125 250.339844 C 738.015625 250.542969 737.613281 250.460938 737.410156 250.167969 L 707.910156 206.710938 L 681.464844 250.140625 C 681.339844 250.339844 681.128906 250.449219 680.910156 250.449219 "/><path style=" stroke:none;fill-rule:nonzero;fill:#ffffff;fill-opacity:1;" d="M 755.429688 235.722656 C 755.238281 235.722656 755.046875 235.632812 754.914062 235.46875 L 736.445312 211.625 L 727 224.910156 C 726.792969 225.203125 726.386719 225.269531 726.09375 225.0625 C 725.804688 224.855469 725.734375 224.449219 725.941406 224.15625 L 735.890625 210.164062 C 736.011719 209.996094 736.203125 209.894531 736.410156 209.890625 C 736.613281 209.90625 736.804688 209.980469 736.933594 210.140625 L 755.941406 234.675781 C 756.160156 234.957031 756.109375 235.367188 755.828125 235.585938 C 755.710938 235.675781 755.570312 235.722656 755.429688 235.722656 "/><path style=" stroke:none;fill-rule:nonzero;fill:#ffffff;fill-opacity:1;" d="M 747.027344 191.152344 C 744.050781 191.152344 741.632812 193.574219 741.632812 196.546875 C 741.632812 199.523438 744.050781 201.941406 747.027344 201.941406 C 750 201.941406 752.417969 199.523438 752.417969 196.546875 C 752.417969 193.574219 750 191.152344 747.027344 191.152344 Z M 747.027344 203.238281 C 743.335938 203.238281 740.332031 200.238281 740.332031 196.546875 C 740.332031 192.855469 743.335938 189.855469 747.027344 189.855469 C 750.71875 189.855469 753.71875 192.855469 753.71875 196.546875 C 753.71875 200.238281 750.71875 203.238281 747.027344 203.238281 "/><path style=" stroke:none;fill-rule:nonzero;fill:#ffffff;fill-opacity:1;" d="M 712.632812 241.898438 C 712.328125 241.898438 712.023438 241.875 711.726562 241.832031 C 708.90625 241.390625 706.765625 238.957031 705.210938 236.886719 C 704.988281 236.585938 704.765625 236.285156 704.546875 235.984375 C 703.199219 234.152344 701.808594 232.257812 699.988281 231.230469 C 698.855469 230.59375 697.425781 230.433594 696.253906 230.804688 C 695.609375 231.011719 694.726562 231.480469 694.21875 232.550781 C 694.070312 232.875 693.683594 233.015625 693.359375 232.859375 C 693.035156 232.707031 692.894531 232.320312 693.050781 231.996094 C 693.605469 230.816406 694.578125 229.972656 695.863281 229.566406 C 697.382812 229.078125 699.167969 229.28125 700.621094 230.101562 C 702.691406 231.265625 704.164062 233.273438 705.59375 235.214844 C 705.8125 235.515625 706.027344 235.8125 706.25 236.105469 C 707.65625 237.980469 709.570312 240.179688 711.925781 240.546875 C 713.789062 240.835938 715.925781 239.898438 717.648438 238.039062 C 719.277344 236.277344 720.414062 233.976562 721.503906 231.753906 C 721.664062 231.433594 722.050781 231.300781 722.375 231.457031 C 722.695312 231.613281 722.828125 232.003906 722.667969 232.324219 C 721.535156 234.632812 720.363281 237.019531 718.605469 238.921875 C 716.820312 240.84375 714.6875 241.898438 712.632812 241.898438 "/><path style=" stroke:none;fill-rule:nonzero;fill:#2f2f2f;fill-opacity:1;" d="M 461.109375 344.671875 L 299.398438 344.671875 L 299.398438 182.117188 L 461.109375 182.117188 L 461.109375 344.671875 "/><path style=" stroke:none;fill-rule:nonzero;fill:#ffffff;fill-opacity:1;" d="M 409.214844 263.394531 C 409.214844 279.390625 396.25 292.355469 380.257812 292.355469 C 364.261719 292.355469 351.292969 279.390625 351.292969 263.394531 C 351.292969 247.402344 364.261719 234.4375 380.257812 234.4375 C 396.25 234.4375 409.214844 247.402344 409.214844 263.394531 "/><path style=" stroke:none;fill-rule:nonzero;fill:#2f2f2f;fill-opacity:1;" d="M 372.699219 276.898438 L 372.699219 249.890625 L 394.738281 263.394531 Z M 372.699219 276.898438 "/><path style=" stroke:none;fill-rule:nonzero;fill:#000000;fill-opacity:1;" d="M 14.765625 669.742188 C 14.722656 669.742188 14.679688 669.738281 14.636719 669.730469 C 14.285156 669.65625 14.058594 669.316406 14.128906 668.964844 L 61.925781 431.726562 C 61.996094 431.375 62.339844 431.144531 62.691406 431.21875 C 63.042969 431.289062 63.269531 431.628906 63.199219 431.980469 L 15.398438 669.222656 C 15.339844 669.527344 15.066406 669.742188 14.765625 669.742188 "/><g clip-rule="nonzero" clip-path="url(#22b1ed61c3)"><path style=" stroke:none;fill-rule:nonzero;fill:#000000;fill-opacity:1;" d="M 9.675781 669.09375 C 9.675781 671.902344 11.953125 674.183594 14.765625 674.183594 C 17.574219 674.183594 19.851562 671.902344 19.851562 669.09375 C 19.851562 666.28125 17.574219 664.003906 14.765625 664.003906 C 11.953125 664.003906 9.675781 666.28125 9.675781 669.09375 "/></g><path style=" stroke:none;fill-rule:nonzero;fill:#000000;fill-opacity:1;" d="M 135.933594 669.742188 C 135.632812 669.742188 135.363281 669.527344 135.300781 669.222656 L 87.5 431.980469 C 87.429688 431.628906 87.65625 431.289062 88.007812 431.21875 C 88.359375 431.144531 88.703125 431.375 88.773438 431.726562 L 136.574219 668.964844 C 136.644531 669.316406 136.417969 669.65625 136.066406 669.730469 C 136.019531 669.738281 135.976562 669.742188 135.933594 669.742188 "/><g clip-rule="nonzero" clip-path="url(#ce3a59249a)"><path style=" stroke:none;fill-rule:nonzero;fill:#000000;fill-opacity:1;" d="M 141.027344 669.09375 C 141.027344 671.902344 138.746094 674.183594 135.9375 674.183594 C 133.125 674.183594 130.847656 671.902344 130.847656 669.09375 C 130.847656 666.28125 133.125 664.003906 135.9375 664.003906 C 138.746094 664.003906 141.027344 666.28125 141.027344 669.09375 "/></g><path style=" stroke:none;fill-rule:nonzero;fill:#000000;fill-opacity:1;" d="M 82.816406 594.03125 L 32.316406 594.03125 C 31.957031 594.03125 31.664062 593.738281 31.664062 593.382812 C 31.664062 593.023438 31.957031 592.734375 32.316406 592.734375 L 82.816406 592.734375 C 83.175781 592.734375 83.464844 593.023438 83.464844 593.382812 C 83.464844 593.738281 83.175781 594.03125 82.816406 594.03125 "/><path style=" stroke:none;fill-rule:nonzero;fill:#000000;fill-opacity:1;" d="M 83.414062 605.046875 L 36.597656 605.046875 C 36.242188 605.046875 35.949219 604.757812 35.949219 604.398438 C 35.949219 604.042969 36.242188 603.75 36.597656 603.75 L 83.414062 603.75 C 83.773438 603.75 84.066406 604.042969 84.066406 604.398438 C 84.066406 604.757812 83.773438 605.046875 83.414062 605.046875 "/><g clip-rule="nonzero" clip-path="url(#7b5826dd2e)"><path style=" stroke:none;fill-rule:nonzero;fill:#ffffff;fill-opacity:1;" d="M 62.953125 463.363281 L 187.019531 668.042969 C 189.328125 671.855469 193.460938 674.183594 197.917969 674.183594 L 267.414062 674.183594 C 269.640625 674.183594 270.515625 671.300781 268.667969 670.058594 L 241.363281 651.757812 C 241.363281 651.757812 153.71875 506.511719 123.671875 446.246094 L 62.953125 463.363281 "/></g><g clip-rule="nonzero" clip-path="url(#94507ea32b)"><path style=" stroke:none;fill-rule:nonzero;fill:#000000;fill-opacity:1;" d="M 63.949219 463.757812 L 187.574219 667.707031 C 189.753906 671.300781 193.714844 673.535156 197.917969 673.535156 L 267.414062 673.535156 C 268.289062 673.535156 268.78125 672.945312 268.945312 672.398438 C 269.113281 671.847656 269.035156 671.085938 268.304688 670.601562 L 241.003906 652.296875 C 240.925781 652.246094 240.855469 652.175781 240.808594 652.09375 C 239.933594 650.644531 153.273438 506.914062 123.328125 447.015625 Z M 267.414062 674.832031 L 197.917969 674.832031 C 193.265625 674.832031 188.875 672.359375 186.464844 668.378906 L 62.398438 463.699219 C 62.292969 463.527344 62.273438 463.3125 62.347656 463.125 C 62.421875 462.9375 62.582031 462.792969 62.777344 462.738281 L 123.496094 445.621094 C 123.796875 445.535156 124.113281 445.675781 124.253906 445.957031 C 153.570312 504.761719 238.851562 646.335938 241.847656 651.300781 L 269.027344 669.523438 C 270.113281 670.25 270.570312 671.527344 270.1875 672.773438 C 269.808594 674.023438 268.71875 674.832031 267.414062 674.832031 "/></g><path style=" stroke:none;fill-rule:nonzero;fill:#000000;fill-opacity:1;" d="M 188.296875 662.730469 C 187.984375 662.730469 187.710938 662.503906 187.65625 662.1875 C 187.597656 661.835938 187.835938 661.5 188.191406 661.441406 L 238.304688 653.109375 C 238.660156 653.046875 238.992188 653.289062 239.050781 653.644531 C 239.109375 653.996094 238.871094 654.332031 238.515625 654.390625 L 188.402344 662.722656 C 188.367188 662.726562 188.332031 662.730469 188.296875 662.730469 "/><path style=" stroke:none;fill-rule:nonzero;fill:#ffffff;fill-opacity:1;" d="M 187.410156 502.492188 C 161.097656 475.113281 122.925781 436.523438 116.171875 429.703125 C 106.898438 434.828125 59.285156 456.980469 59.285156 456.980469 L 140.46875 532.839844 L 91.722656 596.558594 C 88.414062 600.878906 88.8125 606.984375 92.648438 610.84375 L 130.070312 648.484375 C 132.316406 650.742188 136.167969 649.0625 136.035156 645.878906 L 134.9375 619.15625 C 144.671875 610.367188 171.726562 575.210938 190.292969 550.5625 C 201.261719 536 200.042969 515.636719 187.410156 502.492188 "/><path style=" stroke:none;fill-rule:nonzero;fill:#000000;fill-opacity:1;" d="M 60.429688 457.164062 L 140.914062 532.367188 C 141.15625 532.59375 141.1875 532.96875 140.984375 533.234375 L 92.238281 596.953125 C 89.144531 601 89.519531 606.773438 93.109375 610.386719 L 130.53125 648.027344 C 131.542969 649.042969 132.824219 649.003906 133.6875 648.628906 C 134.550781 648.25 135.449219 647.335938 135.390625 645.902344 L 134.289062 619.183594 C 134.28125 618.992188 134.359375 618.808594 134.503906 618.675781 C 143.988281 610.113281 169.796875 576.695312 189.773438 550.171875 C 200.609375 535.789062 199.417969 515.921875 186.941406 502.941406 C 161.246094 476.203125 124.144531 438.675781 116.054688 430.507812 C 106.691406 435.574219 66.851562 454.171875 60.429688 457.164062 Z M 132.515625 650.175781 C 131.449219 650.175781 130.417969 649.753906 129.609375 648.941406 L 92.1875 611.304688 C 88.140625 607.230469 87.71875 600.722656 91.207031 596.164062 L 139.597656 532.910156 L 58.84375 457.457031 C 58.683594 457.308594 58.609375 457.09375 58.644531 456.878906 C 58.679688 456.664062 58.816406 456.480469 59.011719 456.394531 C 59.488281 456.171875 106.710938 434.191406 115.855469 429.132812 C 116.109375 428.992188 116.429688 429.039062 116.632812 429.246094 C 123.953125 436.636719 161.792969 474.894531 187.878906 502.042969 C 200.800781 515.488281 202.03125 536.058594 190.8125 550.953125 C 170.953125 577.316406 145.335938 610.484375 135.597656 619.433594 L 136.6875 645.851562 C 136.757812 647.597656 135.808594 649.117188 134.207031 649.816406 C 133.652344 650.058594 133.082031 650.175781 132.515625 650.175781 "/><path style=" stroke:none;fill-rule:nonzero;fill:#000000;fill-opacity:1;" d="M 130.820312 619.066406 C 130.75 619.066406 130.675781 619.054688 130.605469 619.027344 C 116.824219 614.15625 105.269531 603.816406 98.894531 590.664062 C 98.738281 590.339844 98.871094 589.953125 99.195312 589.792969 C 99.519531 589.640625 99.90625 589.773438 100.0625 590.097656 C 106.289062 602.945312 117.578125 613.042969 131.039062 617.804688 C 131.375 617.925781 131.554688 618.296875 131.433594 618.632812 C 131.339844 618.902344 131.089844 619.066406 130.820312 619.066406 "/><path style=" stroke:none;fill-rule:nonzero;fill:#ffffff;fill-opacity:1;" d="M 130.433594 374.882812 C 130.554688 385.042969 128.148438 395.027344 125.636719 404.832031 C 123.125 414.632812 120.472656 424.511719 120.09375 434.667969 C 107.742188 439.308594 95.390625 443.949219 83.035156 448.59375 C 82.890625 429.800781 85.003906 410.867188 90.695312 393.078125 C 94.167969 382.210938 99 371.800781 105.238281 362.429688 C 108.066406 358.179688 111.628906 352.027344 115.855469 349.242188 C 120.878906 345.929688 124.332031 351.40625 126.371094 355.761719 C 129.128906 361.660156 130.351562 368.320312 130.433594 374.882812 "/><path style=" stroke:none;fill-rule:nonzero;fill:#000000;fill-opacity:1;" d="M 120.09375 434.667969 L 120.101562 434.667969 Z M 118.867188 348.875 C 118.011719 348.875 117.136719 349.175781 116.214844 349.785156 C 112.730469 352.082031 109.605469 356.902344 107.09375 360.773438 C 106.636719 361.476562 106.199219 362.15625 105.777344 362.792969 C 99.753906 371.839844 94.886719 382.097656 91.3125 393.277344 C 86.171875 409.351562 83.601562 427.648438 83.679688 447.660156 L 119.460938 434.210938 C 119.882812 424.625 122.300781 415.207031 124.640625 406.089844 L 125.007812 404.667969 C 127.691406 394.191406 129.902344 384.722656 129.785156 374.890625 C 129.699219 367.976562 128.316406 361.453125 125.78125 356.039062 C 123.839844 351.886719 121.90625 349.589844 119.867188 349.011719 C 119.535156 348.921875 119.203125 348.875 118.867188 348.875 Z M 83.035156 449.246094 C 82.90625 449.246094 82.777344 449.207031 82.667969 449.128906 C 82.492188 449.007812 82.386719 448.808594 82.386719 448.597656 C 82.226562 428.082031 84.8125 409.335938 90.074219 392.878906 C 93.6875 381.585938 98.605469 371.222656 104.695312 362.070312 C 105.117188 361.4375 105.550781 360.765625 106.003906 360.070312 C 108.582031 356.09375 111.789062 351.148438 115.496094 348.699219 C 117.097656 347.648438 118.6875 347.332031 120.21875 347.765625 C 122.644531 348.449219 124.847656 350.976562 126.957031 355.488281 C 129.570312 361.070312 130.996094 367.773438 131.082031 374.875 C 131.203125 384.867188 128.972656 394.425781 126.265625 404.988281 L 125.898438 406.417969 C 123.539062 415.597656 121.101562 425.097656 120.742188 434.691406 C 120.734375 434.953125 120.566406 435.179688 120.324219 435.273438 L 83.265625 449.203125 C 83.191406 449.230469 83.113281 449.246094 83.035156 449.246094 "/><path style=" stroke:none;fill-rule:nonzero;fill:#ffde00;fill-opacity:1;" d="M 105.753906 339.46875 C 105.753906 339.46875 118.800781 344.953125 121.742188 355.621094 C 124.679688 366.292969 83.03125 523.582031 83.03125 523.582031 L 36 484.5 C 27.003906 477.023438 24.050781 464.492188 28.765625 453.785156 L 73.816406 351.46875 C 73.816406 351.46875 93.488281 335.074219 105.753906 339.46875 "/><path style=" stroke:none;fill-rule:nonzero;fill:#ffde00;fill-opacity:1;" d="M 197 393.523438 C 179.316406 394.160156 160.574219 394.566406 158.078125 392.898438 C 153.308594 389.707031 137.875 378.804688 130.855469 363.320312 C 123.835938 347.835938 105.753906 339.46875 105.753906 339.46875 L 84.875 379.621094 C 84.875 379.621094 131.355469 423.839844 158.078125 423.289062 C 170.949219 423.019531 184.835938 421.8125 196.113281 420.558594 C 194.207031 411.65625 194.527344 402.285156 197 393.523438 "/><path style=" stroke:none;fill-rule:nonzero;fill:#ffffff;fill-opacity:1;" d="M 249.378906 407.320312 C 248.882812 405.453125 247.691406 403.855469 246.53125 402.308594 C 243.21875 397.90625 239.570312 393.253906 234.316406 391.589844 C 230.886719 390.503906 227.199219 390.847656 223.617188 391.195312 C 219.355469 391.613281 200.710938 393.722656 197 394.117188 C 193.773438 394.457031 192.191406 411.363281 193.953125 417.574219 C 194.25 418.621094 194.636719 419.707031 195.457031 420.421875 C 196.9375 421.722656 199.207031 421.363281 201.097656 420.804688 C 208.027344 418.769531 214.46875 415.109375 219.769531 410.203125 C 221.066406 409.003906 222.46875 407.65625 224.230469 407.574219 C 226.496094 407.476562 228.21875 409.480469 229.664062 411.226562 C 230.929688 412.757812 232.332031 414.277344 234.164062 415.042969 C 236 415.800781 238.375 415.605469 239.644531 414.078125 C 240.3125 413.277344 240.457031 412.121094 240.167969 411.132812 C 240.925781 411.832031 241.734375 412.457031 242.664062 412.902344 C 244.363281 413.714844 246.546875 413.808594 248.015625 412.628906 C 249.523438 411.417969 249.878906 409.1875 249.378906 407.320312 "/><path style=" stroke:none;fill-rule:nonzero;fill:#ffffff;fill-opacity:1;" d="M 201.097656 420.804688 C 208.027344 418.769531 214.46875 415.109375 219.769531 410.203125 C 221.066406 409.003906 222.46875 407.65625 224.230469 407.574219 C 226.496094 407.476562 228.21875 409.480469 229.664062 411.226562 C 230.929688 412.757812 232.332031 414.277344 234.164062 415.042969 C 236 415.800781 238.375 415.605469 239.644531 414.078125 C 240.3125 413.277344 240.457031 412.121094 240.167969 411.132812 C 240.925781 411.832031 241.734375 412.457031 242.664062 412.902344 C 244.363281 413.714844 246.546875 413.808594 248.015625 412.628906 C 249.523438 411.417969 249.878906 409.1875 249.378906 407.320312 C 248.882812 405.453125 247.691406 403.855469 246.53125 402.308594 C 243.21875 397.90625 239.570312 393.253906 234.316406 391.589844 C 230.886719 390.503906 227.199219 390.847656 223.617188 391.195312 C 219.355469 391.613281 200.710938 393.722656 197 394.117188 L 201.097656 420.804688 "/><path style=" stroke:none;fill-rule:nonzero;fill:#000000;fill-opacity:1;" d="M 201.097656 421.453125 C 200.816406 421.453125 200.558594 421.269531 200.472656 420.992188 C 200.375 420.644531 200.570312 420.285156 200.914062 420.183594 C 207.738281 418.175781 214.109375 414.558594 219.332031 409.726562 L 219.453125 409.609375 C 220.769531 408.394531 222.261719 407.011719 224.207031 406.929688 C 226.851562 406.8125 228.769531 409.125 230.164062 410.8125 C 231.300781 412.183594 232.65625 413.707031 234.414062 414.441406 C 235.921875 415.066406 238.03125 415.003906 239.148438 413.664062 C 239.636719 413.078125 239.792969 412.15625 239.542969 411.3125 C 239.460938 411.035156 239.574219 410.734375 239.824219 410.578125 C 240.070312 410.429688 240.394531 410.457031 240.605469 410.65625 C 241.4375 411.417969 242.179688 411.949219 242.941406 412.3125 C 244.320312 412.976562 246.296875 413.175781 247.609375 412.125 C 248.960938 411.035156 249.15625 409.011719 248.75 407.488281 C 248.28125 405.714844 247.128906 404.179688 246.011719 402.699219 C 242.382812 397.871094 238.984375 393.75 234.121094 392.210938 C 230.765625 391.148438 227.003906 391.515625 223.683594 391.839844 C 221.046875 392.101562 212.808594 393.015625 206.195312 393.753906 C 202.0625 394.214844 198.480469 394.613281 197.066406 394.761719 C 196.703125 394.796875 196.390625 394.542969 196.351562 394.183594 C 196.3125 393.828125 196.574219 393.507812 196.929688 393.46875 C 198.34375 393.324219 201.921875 392.925781 206.046875 392.464844 C 212.671875 391.726562 220.914062 390.808594 223.554688 390.550781 C 227 390.214844 230.90625 389.828125 234.511719 390.972656 C 239.742188 392.625 243.28125 396.90625 247.050781 401.917969 C 248.183594 403.425781 249.46875 405.136719 250.007812 407.152344 C 250.519531 409.085938 250.226562 411.683594 248.417969 413.136719 C 246.882812 414.371094 244.507812 414.511719 242.382812 413.484375 C 241.890625 413.25 241.417969 412.964844 240.929688 412.609375 C 240.847656 413.316406 240.578125 413.976562 240.144531 414.496094 C 238.554688 416.402344 235.800781 416.425781 233.917969 415.640625 C 231.886719 414.792969 230.398438 413.132812 229.164062 411.640625 C 227.578125 409.722656 226.101562 408.136719 224.261719 408.222656 C 222.792969 408.289062 221.542969 409.445312 220.335938 410.566406 L 220.210938 410.679688 C 214.84375 415.644531 208.296875 419.363281 201.28125 421.425781 C 201.21875 421.445312 201.160156 421.453125 201.097656 421.453125 "/><path style=" stroke:none;fill-rule:nonzero;fill:#000000;fill-opacity:1;" d="M 239.351562 410.503906 C 239.128906 410.503906 238.90625 410.386719 238.789062 410.179688 C 236.511719 406.191406 233.929688 401.675781 229.765625 399.152344 C 228.726562 398.519531 226.054688 397.175781 223.800781 398.328125 C 223.480469 398.492188 223.089844 398.363281 222.925781 398.042969 C 222.761719 397.726562 222.890625 397.332031 223.207031 397.171875 C 226.046875 395.722656 229.210938 397.296875 230.441406 398.039062 C 234.890625 400.742188 237.675781 405.617188 239.914062 409.535156 C 240.09375 409.84375 239.984375 410.238281 239.671875 410.421875 C 239.574219 410.476562 239.460938 410.503906 239.351562 410.503906 "/><path style=" stroke:none;fill-rule:nonzero;fill:#ffffff;fill-opacity:1;" d="M 66.085938 346.816406 C 63.246094 349.703125 60.730469 353.113281 59.898438 357.078125 C 59.066406 361.042969 60.257812 365.625 63.585938 367.929688 C 66.003906 369.605469 69.171875 369.871094 72.054688 369.308594 C 74.9375 368.746094 77.613281 367.4375 80.257812 366.160156 C 87.242188 362.78125 94.332031 359.496094 101.839844 357.554688 C 109.351562 355.605469 117.371094 355.046875 124.84375 357.136719 C 126.042969 357.46875 127.328125 357.875 128.507812 357.476562 C 129.921875 357 130.765625 355.449219 130.8125 353.957031 C 130.863281 352.464844 130.273438 351.027344 129.585938 349.703125 C 120.550781 332.285156 95.980469 330.148438 79.765625 337.382812 C 74.679688 339.648438 69.992188 342.835938 66.085938 346.816406 "/><path style=" stroke:none;fill-rule:nonzero;fill:#000000;fill-opacity:1;" d="M 66.085938 346.816406 L 66.09375 346.816406 Z M 98.628906 334.113281 C 92.207031 334.113281 85.722656 335.4375 80.03125 337.972656 C 74.894531 340.265625 70.355469 343.394531 66.546875 347.269531 C 63.1875 350.6875 61.222656 353.9375 60.535156 357.210938 C 59.691406 361.226562 61.097656 365.417969 63.957031 367.398438 C 66.726562 369.316406 70.144531 369.019531 71.929688 368.671875 C 74.679688 368.136719 77.300781 366.871094 79.835938 365.640625 L 79.976562 365.574219 C 87.078125 362.140625 94.085938 358.894531 101.675781 356.925781 C 110.222656 354.710938 118.074219 354.570312 125.015625 356.511719 L 125.214844 356.566406 C 126.277344 356.867188 127.375 357.171875 128.300781 356.863281 C 129.527344 356.449219 130.128906 355.054688 130.164062 353.933594 C 130.214844 352.523438 129.609375 351.15625 129.011719 350.003906 C 123.371094 339.132812 111.121094 334.113281 98.628906 334.113281 Z M 69.335938 370.230469 C 67.007812 370.230469 64.898438 369.628906 63.21875 368.464844 C 59.890625 366.160156 58.300781 361.527344 59.265625 356.941406 C 60.003906 353.421875 62.085938 349.957031 65.621094 346.359375 C 69.546875 342.367188 74.214844 339.148438 79.503906 336.792969 C 96.800781 329.074219 121.289062 332.300781 130.164062 349.402344 C 130.800781 350.628906 131.523438 352.257812 131.464844 353.980469 C 131.398438 355.878906 130.269531 357.566406 128.714844 358.09375 C 127.40625 358.535156 126.054688 358.152344 124.863281 357.816406 L 124.667969 357.761719 C 117.949219 355.882812 110.324219 356.023438 102.003906 358.183594 C 94.527344 360.117188 87.585938 363.335938 80.539062 366.746094 L 80.402344 366.808594 C 77.792969 368.074219 75.09375 369.378906 72.179688 369.945312 C 71.207031 370.136719 70.253906 370.230469 69.335938 370.230469 "/><path style=" stroke:none;fill-rule:nonzero;fill:#ffffff;fill-opacity:1;" d="M 120.539062 314.0625 L 105.753906 339.46875 C 112.378906 342.449219 117.742188 345.777344 120.699219 349.761719 L 133.140625 326.929688 C 132.855469 325.3125 127.261719 306.148438 120.539062 314.0625 "/><path style=" stroke:none;fill-rule:nonzero;fill:#000000;fill-opacity:1;" d="M 106.675781 339.171875 C 113.273438 342.210938 117.847656 345.296875 120.597656 348.585938 L 132.460938 326.824219 C 131.9375 324.441406 128.539062 313.988281 124.492188 312.890625 C 123.347656 312.582031 122.230469 313.089844 121.070312 314.4375 Z M 120.699219 350.410156 C 120.496094 350.410156 120.300781 350.3125 120.175781 350.144531 C 117.574219 346.636719 112.765625 343.335938 105.488281 340.058594 C 105.320312 339.984375 105.191406 339.839844 105.136719 339.664062 C 105.078125 339.492188 105.101562 339.300781 105.191406 339.140625 L 119.976562 313.734375 C 119.996094 313.703125 120.019531 313.671875 120.042969 313.640625 C 121.554688 311.863281 123.167969 311.1875 124.832031 311.636719 C 129.976562 313.035156 133.539062 325.449219 133.78125 326.8125 C 133.804688 326.960938 133.78125 327.109375 133.710938 327.238281 L 121.269531 350.070312 C 121.164062 350.265625 120.964844 350.390625 120.746094 350.40625 C 120.730469 350.410156 120.714844 350.410156 120.699219 350.410156 "/><path style=" stroke:none;fill-rule:nonzero;fill:#000000;fill-opacity:1;" d="M 122.222656 352.179688 C 122.027344 352.179688 121.835938 352.09375 121.710938 351.929688 C 113.613281 341.566406 100.976562 338.480469 100.847656 338.449219 C 100.5 338.367188 100.285156 338.019531 100.367188 337.671875 C 100.449219 337.320312 100.800781 337.105469 101.144531 337.1875 C 101.683594 337.3125 114.347656 340.398438 122.730469 351.128906 C 122.953125 351.410156 122.902344 351.820312 122.621094 352.042969 C 122.503906 352.132812 122.359375 352.179688 122.222656 352.179688 "/><path style=" stroke:none;fill-rule:nonzero;fill:#000000;fill-opacity:1;" d="M 151.546875 293.9375 C 148.691406 286.953125 140.433594 282.660156 133.078125 284.332031 C 122.183594 286.816406 116.117188 299.753906 105.230469 302.25 C 105.804688 303.808594 107.265625 305.003906 108.90625 305.265625 C 106.046875 306.742188 104.667969 310.398438 105.449219 313.523438 C 106.230469 316.648438 108.890625 319.117188 111.957031 320.097656 C 115.023438 321.082031 118.417969 320.699219 121.40625 319.492188 L 145.105469 313.730469 C 151.523438 309.765625 154.40625 300.917969 151.546875 293.9375 "/><path style=" stroke:none;fill-rule:nonzero;fill:#000000;fill-opacity:1;" d="M 121.238281 316.195312 C 121.222656 316.195312 121.207031 316.195312 121.191406 316.195312 C 120.832031 316.167969 120.5625 315.855469 120.589844 315.5 C 120.632812 314.910156 120.410156 314.289062 119.976562 313.785156 C 119.542969 313.289062 118.957031 312.976562 118.367188 312.9375 C 118.007812 312.914062 117.738281 312.601562 117.765625 312.242188 C 117.789062 311.886719 118.09375 311.632812 118.457031 311.640625 C 119.386719 311.707031 120.296875 312.179688 120.957031 312.9375 C 121.613281 313.695312 121.953125 314.664062 121.882812 315.59375 C 121.859375 315.933594 121.574219 316.195312 121.238281 316.195312 "/><path style=" stroke:none;fill-rule:nonzero;fill:#ffffff;fill-opacity:1;" d="M 125.128906 312.015625 C 124.949219 310.808594 124.84375 309.589844 124.214844 308.484375 C 123.300781 306.863281 121.597656 305.746094 119.707031 305.710938 C 117.472656 305.667969 115.320312 307.113281 114.363281 309.132812 C 113.40625 311.152344 113.617188 313.640625 114.757812 315.566406 C 115.894531 317.492188 117.898438 318.839844 120.078125 319.347656 C 120.089844 319.484375 120.109375 319.617188 120.121094 319.753906 C 121.132812 318.964844 121.996094 317.972656 122.707031 316.898438 C 123.710938 315.382812 124.4375 313.703125 125.128906 312.015625 "/><path style=" stroke:none;fill-rule:nonzero;fill:#000000;fill-opacity:1;" d="M 119.613281 306.359375 C 117.714844 306.359375 115.804688 307.605469 114.949219 309.410156 C 114.105469 311.199219 114.242188 313.429688 115.3125 315.234375 C 116.320312 316.933594 118.15625 318.234375 120.226562 318.71875 C 120.253906 318.722656 120.285156 318.730469 120.3125 318.746094 C 120.980469 318.128906 121.601562 317.390625 122.164062 316.542969 C 123.121094 315.097656 123.828125 313.480469 124.460938 311.933594 L 124.421875 311.648438 C 124.277344 310.628906 124.140625 309.664062 123.652344 308.804688 C 122.816406 307.324219 121.296875 306.390625 119.695312 306.359375 C 119.667969 306.359375 119.640625 306.359375 119.613281 306.359375 Z M 120.121094 320.402344 C 120.035156 320.402344 119.949219 320.382812 119.867188 320.347656 C 119.664062 320.261719 119.523438 320.082031 119.484375 319.863281 C 117.234375 319.226562 115.324219 317.800781 114.199219 315.894531 C 112.910156 313.726562 112.75 311.027344 113.777344 308.855469 C 114.871094 306.542969 117.230469 305.003906 119.71875 305.0625 C 121.777344 305.097656 123.71875 306.289062 124.78125 308.164062 C 125.390625 309.238281 125.550781 310.371094 125.707031 311.46875 L 125.769531 311.917969 C 125.789062 312.035156 125.773438 312.152344 125.730469 312.261719 C 125.054688 313.914062 124.304688 315.664062 123.25 317.261719 C 122.445312 318.472656 121.527344 319.484375 120.519531 320.265625 C 120.40625 320.355469 120.265625 320.402344 120.121094 320.402344 "/><path style=" stroke:none;fill-rule:nonzero;fill:#ffffff;fill-opacity:1;" d="M 145.617188 308.273438 C 145.332031 306.394531 132.511719 307.472656 133.179688 311.46875 C 133.960938 316.167969 129.398438 315.902344 129.46875 316.183594 C 130.648438 320.933594 128.515625 327.609375 132.785156 330.003906 C 135.226562 331.371094 143.089844 329.738281 145.84375 329.328125 C 146.023438 328.167969 146.144531 326.996094 146.242188 325.835938 C 146.675781 320.613281 146.40625 313.453125 145.617188 308.273438 "/><path style=" stroke:none;fill-rule:nonzero;fill:#000000;fill-opacity:1;" d="M 142.371094 307.375 C 138.535156 307.375 132.726562 308.742188 133.179688 311.46875 C 133.960938 316.171875 129.398438 315.902344 129.46875 316.183594 C 130.648438 320.933594 128.515625 327.609375 132.785156 330.003906 C 133.480469 330.394531 134.621094 330.539062 135.953125 330.539062 C 139.296875 330.539062 143.875 329.625 145.84375 329.328125 C 146.023438 328.167969 146.144531 326.996094 146.242188 325.835938 C 146.675781 320.613281 146.40625 313.453125 145.617188 308.273438 C 145.527344 307.675781 144.164062 307.375 142.371094 307.375 Z M 142.371094 308.675781 C 143.445312 308.675781 144.085938 308.789062 144.394531 308.882812 C 145.125 313.96875 145.355469 320.824219 144.949219 325.726562 C 144.871094 326.652344 144.789062 327.457031 144.691406 328.199219 C 144.511719 328.226562 144.324219 328.261719 144.125 328.292969 C 141.886719 328.671875 138.507812 329.242188 135.953125 329.242188 C 134.324219 329.242188 133.667969 329.011719 133.417969 328.871094 C 131.40625 327.746094 131.238281 325.316406 131.203125 321.453125 C 131.1875 320.007812 131.175781 318.523438 130.96875 317.105469 C 134.457031 316.050781 134.8125 313.382812 134.457031 311.257812 C 134.445312 311.175781 134.421875 311.023438 134.640625 310.765625 C 135.601562 309.632812 139.140625 308.675781 142.371094 308.675781 "/><path style=" stroke:none;fill-rule:nonzero;fill:#000000;fill-opacity:1;" d="M 134.671875 326.613281 C 130.402344 324.222656 130.648438 320.933594 129.46875 316.183594 C 129.398438 315.902344 129.347656 315.617188 129.289062 315.332031 C 129.136719 315.5 128.953125 315.640625 128.730469 315.742188 C 127.476562 316.332031 126.027344 315.167969 125.554688 313.863281 C 125.335938 313.261719 125.222656 312.640625 125.128906 312.015625 C 124.4375 313.703125 123.710938 315.382812 122.707031 316.898438 C 121.996094 317.972656 121.132812 318.964844 120.121094 319.753906 C 120.527344 323.640625 121.5 327.472656 123.015625 331.078125 C 124.230469 333.96875 125.832031 336.777344 128.210938 338.824219 C 130.589844 340.875 133.839844 342.074219 136.914062 341.441406 C 140.105469 340.785156 143.492188 340.570312 144.921875 337.636719 C 145.835938 335.761719 145.851562 328.648438 146.171875 326.574219 C 142.847656 325.832031 137.113281 327.980469 134.671875 326.613281 "/><path style=" stroke:none;fill-rule:nonzero;fill:#000000;fill-opacity:1;" d="M 120.808594 315.585938 C 120.5 315.585938 120.226562 315.367188 120.171875 315.054688 C 119.945312 313.84375 119.1875 312.734375 118.136719 312.085938 C 117.832031 311.898438 117.734375 311.5 117.921875 311.191406 C 118.109375 310.890625 118.507812 310.792969 118.816406 310.980469 C 120.175781 311.816406 121.160156 313.253906 121.445312 314.820312 C 121.511719 315.171875 121.277344 315.511719 120.925781 315.574219 C 120.886719 315.582031 120.847656 315.585938 120.808594 315.585938 "/><path style=" stroke:none;fill-rule:nonzero;fill:#ffffff;fill-opacity:1;" d="M 403.757812 429.207031 L 110.832031 429.207031 L 110.832031 420.734375 L 403.757812 420.734375 L 403.757812 429.207031 "/><path style=" stroke:none;fill-rule:nonzero;fill:#000000;fill-opacity:1;" d="M 111.480469 428.554688 L 403.109375 428.554688 L 403.109375 421.382812 L 111.480469 421.382812 Z M 403.757812 429.855469 L 110.832031 429.855469 C 110.472656 429.855469 110.179688 429.5625 110.179688 429.207031 L 110.179688 420.734375 C 110.179688 420.375 110.472656 420.085938 110.832031 420.085938 L 403.757812 420.085938 C 404.121094 420.085938 404.40625 420.375 404.40625 420.734375 L 404.40625 429.207031 C 404.40625 429.5625 404.121094 429.855469 403.757812 429.855469 "/><path style=" stroke:none;fill-rule:nonzero;fill:#000000;fill-opacity:1;" d="M 79.632812 669.742188 C 79.589844 669.742188 79.546875 669.738281 79.503906 669.730469 C 79.152344 669.65625 78.925781 669.316406 78.996094 668.964844 L 89.707031 615.800781 C 89.777344 615.449219 90.121094 615.21875 90.472656 615.289062 C 90.824219 615.359375 91.050781 615.707031 90.980469 616.054688 L 80.269531 669.222656 C 80.207031 669.527344 79.9375 669.742188 79.632812 669.742188 "/><path style=" stroke:none;fill-rule:nonzero;fill:#000000;fill-opacity:1;" d="M 97.167969 582.710938 C 97.125 582.710938 97.082031 582.710938 97.039062 582.699219 C 96.6875 582.628906 96.460938 582.289062 96.53125 581.9375 L 126.792969 431.726562 C 126.867188 431.375 127.207031 431.144531 127.558594 431.21875 C 127.910156 431.289062 128.140625 431.628906 128.066406 431.980469 L 97.804688 582.191406 C 97.742188 582.5 97.46875 582.710938 97.167969 582.710938 "/><g clip-rule="nonzero" clip-path="url(#9042c615fb)"><path style=" stroke:none;fill-rule:nonzero;fill:#000000;fill-opacity:1;" d="M 74.542969 669.09375 C 74.542969 671.902344 76.820312 674.183594 79.632812 674.183594 C 82.441406 674.183594 84.71875 671.902344 84.71875 669.09375 C 84.71875 666.28125 82.441406 664.003906 79.632812 664.003906 C 76.820312 664.003906 74.542969 666.28125 74.542969 669.09375 "/></g><path style=" stroke:none;fill-rule:nonzero;fill:#000000;fill-opacity:1;" d="M 434.957031 669.742188 C 434.65625 669.742188 434.386719 669.527344 434.324219 669.222656 L 386.523438 431.980469 C 386.453125 431.628906 386.679688 431.289062 387.03125 431.21875 C 387.382812 431.144531 387.722656 431.375 387.796875 431.726562 L 435.597656 668.964844 C 435.667969 669.316406 435.4375 669.65625 435.089844 669.730469 C 435.042969 669.738281 435.003906 669.742188 434.957031 669.742188 "/><g clip-rule="nonzero" clip-path="url(#43874525d9)"><path style=" stroke:none;fill-rule:nonzero;fill:#000000;fill-opacity:1;" d="M 440.046875 669.09375 C 440.046875 671.902344 437.769531 674.183594 434.957031 674.183594 C 432.148438 674.183594 429.871094 671.902344 429.871094 669.09375 C 429.871094 666.28125 432.148438 664.003906 434.957031 664.003906 C 437.769531 664.003906 440.046875 666.28125 440.046875 669.09375 "/></g><g clip-rule="nonzero" clip-path="url(#ba1a7fcb62)"><path style=" stroke:none;fill-rule:nonzero;fill:#000000;fill-opacity:1;" d="M 392.132812 674.832031 L 0.726562 674.832031 C 0.371094 674.832031 0.078125 674.542969 0.078125 674.183594 C 0.078125 673.820312 0.371094 673.535156 0.726562 673.535156 L 392.132812 673.535156 C 392.492188 673.535156 392.78125 673.820312 392.78125 674.183594 C 392.78125 674.542969 392.492188 674.832031 392.132812 674.832031 "/></g><path style=" stroke:none;fill-rule:nonzero;fill:#000000;fill-opacity:1;" d="M 262.066406 420.804688 L 199.835938 420.804688 C 199.835938 417.542969 202.480469 414.902344 205.742188 414.902344 L 267.96875 414.902344 C 267.96875 418.164062 265.324219 420.804688 262.066406 420.804688 "/><path style=" stroke:none;fill-rule:nonzero;fill:#000000;fill-opacity:1;" d="M 260.933594 417.347656 L 289.488281 355.488281 C 292.445312 356.855469 293.738281 360.363281 292.371094 363.324219 L 267.4375 417.347656 L 260.933594 417.347656 "/><path style=" stroke:none;fill-rule:nonzero;fill:#ffffff;fill-opacity:1;" d="M 543.546875 663.726562 L 711.078125 663.726562 C 723.894531 663.726562 734.382812 653.238281 734.382812 640.425781 L 734.382812 296.890625 C 734.382812 284.074219 723.894531 273.585938 711.078125 273.585938 L 543.546875 273.585938 C 530.726562 273.585938 520.242188 284.074219 520.242188 296.890625 L 520.242188 640.425781 C 520.242188 653.238281 530.726562 663.726562 543.546875 663.726562 "/><path style=" stroke:none;fill-rule:nonzero;fill:#000000;fill-opacity:1;" d="M 543.546875 274.238281 C 531.054688 274.238281 520.890625 284.398438 520.890625 296.890625 L 520.890625 640.425781 C 520.890625 652.914062 531.054688 663.078125 543.546875 663.078125 L 711.078125 663.078125 C 723.570312 663.078125 733.730469 652.914062 733.730469 640.425781 L 733.730469 296.890625 C 733.730469 284.398438 723.570312 274.238281 711.078125 274.238281 Z M 711.078125 664.375 L 543.546875 664.375 C 530.335938 664.375 519.59375 653.628906 519.59375 640.425781 L 519.59375 296.890625 C 519.59375 283.683594 530.335938 272.9375 543.546875 272.9375 L 711.078125 272.9375 C 724.285156 272.9375 735.03125 283.683594 735.03125 296.890625 L 735.03125 640.425781 C 735.03125 653.628906 724.285156 664.375 711.078125 664.375 "/><path style=" stroke:none;fill-rule:nonzero;fill:#ffffff;fill-opacity:1;" d="M 552.195312 651.339844 L 702.429688 651.339844 C 714.226562 651.339844 723.875 641.691406 723.875 629.894531 L 723.875 306.339844 C 723.875 294.546875 714.226562 284.894531 702.429688 284.894531 L 552.195312 284.894531 C 540.398438 284.894531 530.75 294.546875 530.75 306.339844 L 530.75 629.894531 C 530.75 641.691406 540.398438 651.339844 552.195312 651.339844 "/><path style=" stroke:none;fill-rule:nonzero;fill:#000000;fill-opacity:1;" d="M 552.195312 285.542969 C 540.722656 285.542969 531.398438 294.875 531.398438 306.339844 L 531.398438 629.894531 C 531.398438 641.363281 540.722656 650.691406 552.195312 650.691406 L 702.429688 650.691406 C 713.894531 650.691406 723.226562 641.363281 723.226562 629.894531 L 723.226562 306.339844 C 723.226562 294.875 713.894531 285.542969 702.429688 285.542969 Z M 702.429688 651.988281 L 552.195312 651.988281 C 540.011719 651.988281 530.097656 642.078125 530.097656 629.894531 L 530.097656 306.339844 C 530.097656 294.15625 540.011719 284.246094 552.195312 284.246094 L 702.429688 284.246094 C 714.613281 284.246094 724.527344 294.15625 724.527344 306.339844 L 724.527344 629.894531 C 724.527344 642.078125 714.613281 651.988281 702.429688 651.988281 "/><path style=" stroke:none;fill-rule:nonzero;fill:#000000;fill-opacity:1;" d="M 647.378906 296.582031 L 604.820312 296.582031 C 604.460938 296.582031 604.171875 296.292969 604.171875 295.933594 C 604.171875 295.578125 604.460938 295.285156 604.820312 295.285156 L 647.378906 295.285156 C 647.738281 295.285156 648.027344 295.578125 648.027344 295.933594 C 648.027344 296.292969 647.738281 296.582031 647.378906 296.582031 "/><path style=" stroke:none;fill-rule:nonzero;fill:#2f2f2f;fill-opacity:1;" d="M 808.78125 578.261719 L 620.375 578.261719 L 620.375 476.167969 L 808.78125 476.167969 L 808.78125 578.261719 "/><path style=" stroke:none;fill-rule:nonzero;fill:#ffffff;fill-opacity:1;" d="M 773.242188 493.988281 L 710.960938 493.988281 C 710.421875 493.988281 709.984375 493.550781 709.984375 493.011719 C 709.984375 492.476562 710.421875 492.039062 710.960938 492.039062 L 773.242188 492.039062 C 773.785156 492.039062 774.21875 492.476562 774.21875 493.011719 C 774.21875 493.550781 773.785156 493.988281 773.242188 493.988281 "/><path style=" stroke:none;fill-rule:nonzero;fill:#ffffff;fill-opacity:1;" d="M 698.574219 493.988281 L 641.027344 493.988281 C 640.488281 493.988281 640.050781 493.550781 640.050781 493.011719 C 640.050781 492.476562 640.488281 492.039062 641.027344 492.039062 L 698.574219 492.039062 C 699.109375 492.039062 699.546875 492.476562 699.546875 493.011719 C 699.546875 493.550781 699.109375 493.988281 698.574219 493.988281 "/><path style=" stroke:none;fill-rule:nonzero;fill:#ffffff;fill-opacity:1;" d="M 788.128906 507.328125 L 747.433594 507.328125 C 746.898438 507.328125 746.460938 506.890625 746.460938 506.355469 C 746.460938 505.816406 746.898438 505.378906 747.433594 505.378906 L 788.128906 505.378906 C 788.664062 505.378906 789.097656 505.816406 789.097656 506.355469 C 789.097656 506.890625 788.664062 507.328125 788.128906 507.328125 "/><path style=" stroke:none;fill-rule:nonzero;fill:#ffffff;fill-opacity:1;" d="M 734.707031 507.328125 L 641.027344 507.328125 C 640.488281 507.328125 640.050781 506.890625 640.050781 506.355469 C 640.050781 505.816406 640.488281 505.378906 641.027344 505.378906 L 734.707031 505.378906 C 735.242188 505.378906 735.679688 505.816406 735.679688 506.355469 C 735.679688 506.890625 735.242188 507.328125 734.707031 507.328125 "/><path style=" stroke:none;fill-rule:nonzero;fill:#ffffff;fill-opacity:1;" d="M 756.726562 520.667969 L 722.660156 520.667969 C 722.125 520.667969 721.6875 520.230469 721.6875 519.695312 C 721.6875 519.15625 722.125 518.722656 722.660156 518.722656 L 756.726562 518.722656 C 757.265625 518.722656 757.703125 519.15625 757.703125 519.695312 C 757.703125 520.230469 757.265625 520.667969 756.726562 520.667969 "/><path style=" stroke:none;fill-rule:nonzero;fill:#ffffff;fill-opacity:1;" d="M 709.585938 520.667969 L 658.59375 520.667969 C 658.050781 520.667969 657.617188 520.230469 657.617188 519.695312 C 657.617188 519.15625 658.050781 518.722656 658.59375 518.722656 L 709.585938 518.722656 C 710.121094 518.722656 710.558594 519.15625 710.558594 519.695312 C 710.558594 520.230469 710.121094 520.667969 709.585938 520.667969 "/><path style=" stroke:none;fill-rule:nonzero;fill:#ffffff;fill-opacity:1;" d="M 748.640625 534.007812 L 724.625 534.007812 C 724.089844 534.007812 723.652344 533.570312 723.652344 533.03125 C 723.652344 532.496094 724.089844 532.058594 724.625 532.058594 L 748.640625 532.058594 C 749.179688 532.058594 749.613281 532.496094 749.613281 533.03125 C 749.613281 533.570312 749.179688 534.007812 748.640625 534.007812 "/><path style=" stroke:none;fill-rule:nonzero;fill:#ffffff;fill-opacity:1;" d="M 714.574219 534.007812 L 658.59375 534.007812 C 658.050781 534.007812 657.617188 533.570312 657.617188 533.03125 C 657.617188 532.496094 658.050781 532.058594 658.59375 532.058594 L 714.574219 532.058594 C 715.113281 532.058594 715.550781 532.496094 715.550781 533.03125 C 715.550781 533.570312 715.113281 534.007812 714.574219 534.007812 "/><path style=" stroke:none;fill-rule:nonzero;fill:#ffffff;fill-opacity:1;" d="M 788.128906 547.347656 L 752.941406 547.347656 C 752.40625 547.347656 751.96875 546.910156 751.96875 546.375 C 751.96875 545.835938 752.40625 545.398438 752.941406 545.398438 L 788.128906 545.398438 C 788.664062 545.398438 789.097656 545.835938 789.097656 546.375 C 789.097656 546.910156 788.664062 547.347656 788.128906 547.347656 "/><path style=" stroke:none;fill-rule:nonzero;fill:#ffffff;fill-opacity:1;" d="M 742.101562 547.347656 L 678.613281 547.347656 C 678.078125 547.347656 677.640625 546.910156 677.640625 546.375 C 677.640625 545.835938 678.078125 545.398438 678.613281 545.398438 L 742.101562 545.398438 C 742.640625 545.398438 743.078125 545.835938 743.078125 546.375 C 743.078125 546.910156 742.640625 547.347656 742.101562 547.347656 "/><path style=" stroke:none;fill-rule:nonzero;fill:#ffffff;fill-opacity:1;" d="M 788.128906 560.6875 L 695.132812 560.6875 C 694.59375 560.6875 694.160156 560.25 694.160156 559.714844 C 694.160156 559.175781 694.59375 558.738281 695.132812 558.738281 L 788.128906 558.738281 C 788.664062 558.738281 789.097656 559.175781 789.097656 559.714844 C 789.097656 560.25 788.664062 560.6875 788.128906 560.6875 "/><path style=" stroke:none;fill-rule:nonzero;fill:#ffffff;fill-opacity:1;" d="M 686.582031 560.6875 L 641.027344 560.6875 C 640.488281 560.6875 640.050781 560.25 640.050781 559.714844 C 640.050781 559.175781 640.488281 558.738281 641.027344 558.738281 L 686.582031 558.738281 C 687.121094 558.738281 687.558594 559.175781 687.558594 559.714844 C 687.558594 560.25 687.121094 560.6875 686.582031 560.6875 "/><path style=" stroke:none;fill-rule:nonzero;fill:#ffffff;fill-opacity:1;" d="M 662.988281 376.804688 C 660.527344 386.5625 650.621094 392.480469 640.859375 390.019531 C 631.097656 387.5625 625.175781 377.660156 627.636719 367.902344 C 630.09375 358.144531 639.996094 352.226562 649.757812 354.683594 C 659.523438 357.144531 665.441406 367.046875 662.988281 376.804688 Z M 693.910156 384.589844 C 695.230469 379.335938 692.046875 374.003906 686.789062 372.679688 C 686.394531 372.582031 686.003906 372.515625 685.613281 372.464844 C 685.628906 368.410156 685.027344 364.429688 683.875 360.652344 C 684.234375 360.488281 684.59375 360.316406 684.9375 360.109375 C 689.589844 357.328125 691.109375 351.304688 688.324219 346.652344 C 685.546875 342 679.519531 340.484375 674.867188 343.261719 C 674.519531 343.472656 674.195312 343.703125 673.882812 343.941406 C 671.097656 341.136719 667.878906 338.722656 664.296875 336.816406 C 664.4375 336.449219 664.566406 336.070312 664.664062 335.683594 C 665.988281 330.425781 662.800781 325.09375 657.542969 323.769531 C 652.285156 322.445312 646.953125 325.632812 645.628906 330.886719 C 645.53125 331.277344 645.46875 331.671875 645.417969 332.0625 C 641.355469 332.046875 637.378906 332.644531 633.597656 333.800781 C 633.4375 333.4375 633.261719 333.082031 633.054688 332.734375 C 630.273438 328.082031 624.246094 326.566406 619.59375 329.347656 C 614.945312 332.125 613.425781 338.148438 616.207031 342.800781 C 616.414062 343.148438 616.644531 343.472656 616.886719 343.78125 C 614.078125 346.566406 611.667969 349.785156 609.757812 353.367188 C 609.390625 353.222656 609.015625 353.097656 608.625 352.996094 C 603.367188 351.675781 598.03125 354.863281 596.710938 360.113281 C 595.386719 365.371094 598.574219 370.703125 603.832031 372.027344 C 604.222656 372.125 604.617188 372.1875 605.003906 372.238281 C 604.988281 376.296875 605.59375 380.273438 606.742188 384.054688 C 606.382812 384.214844 606.03125 384.390625 605.683594 384.597656 C 601.03125 387.378906 599.515625 393.402344 602.292969 398.054688 C 605.078125 402.703125 611.101562 404.222656 615.753906 401.445312 C 616.101562 401.234375 616.425781 401.003906 616.734375 400.765625 C 619.519531 403.566406 622.738281 405.980469 626.324219 407.890625 C 626.179688 408.257812 626.054688 408.636719 625.953125 409.023438 C 624.632812 414.28125 627.820312 419.613281 633.078125 420.9375 C 638.332031 422.257812 643.667969 419.074219 644.988281 413.820312 C 645.089844 413.425781 645.15625 413.035156 645.203125 412.644531 C 649.261719 412.660156 653.238281 412.0625 657.023438 410.90625 C 657.179688 411.265625 657.359375 411.625 657.566406 411.96875 C 660.347656 416.621094 666.375 418.140625 671.023438 415.359375 C 675.675781 412.582031 677.195312 406.558594 674.414062 401.902344 C 674.207031 401.558594 673.976562 401.234375 673.734375 400.925781 C 676.539062 398.140625 678.953125 394.921875 680.863281 391.339844 C 681.226562 391.480469 681.605469 391.609375 682 391.710938 C 687.253906 393.03125 692.585938 389.84375 693.910156 384.589844 "/><path style=" stroke:none;fill-rule:nonzero;fill:#000000;fill-opacity:1;" d="M 645.308594 354.777344 C 637.445312 354.777344 630.269531 360.101562 628.261719 368.0625 C 627.117188 372.609375 627.816406 377.335938 630.222656 381.367188 C 632.632812 385.394531 636.46875 388.246094 641.019531 389.390625 C 645.574219 390.535156 650.300781 389.84375 654.328125 387.4375 C 658.359375 385.027344 661.210938 381.195312 662.355469 376.644531 C 663.503906 372.09375 662.804688 367.367188 660.398438 363.339844 C 657.988281 359.308594 654.15625 356.460938 649.601562 355.3125 C 648.164062 354.953125 646.726562 354.777344 645.308594 354.777344 Z M 645.347656 391.230469 C 643.800781 391.230469 642.242188 391.039062 640.703125 390.652344 C 635.8125 389.417969 631.695312 386.359375 629.105469 382.03125 C 626.523438 377.707031 625.777344 372.632812 627.007812 367.746094 C 629.546875 357.652344 639.824219 351.511719 649.917969 354.054688 C 654.804688 355.289062 658.921875 358.347656 661.511719 362.671875 C 664.097656 367 664.84375 372.074219 663.613281 376.960938 C 662.382812 381.851562 659.320312 385.964844 654.996094 388.550781 C 652.027344 390.320312 648.714844 391.230469 645.347656 391.230469 Z M 616.734375 400.117188 C 616.902344 400.117188 617.070312 400.179688 617.195312 400.308594 C 619.972656 403.101562 623.144531 405.460938 626.628906 407.316406 C 626.917969 407.472656 627.046875 407.816406 626.925781 408.121094 C 626.777344 408.519531 626.667969 408.855469 626.585938 409.183594 C 625.984375 411.554688 626.347656 414.019531 627.605469 416.121094 C 628.863281 418.222656 630.859375 419.710938 633.234375 420.304688 C 635.609375 420.902344 638.074219 420.539062 640.175781 419.285156 C 642.277344 418.03125 643.761719 416.03125 644.359375 413.660156 C 644.445312 413.332031 644.507812 412.976562 644.5625 412.5625 C 644.597656 412.238281 644.875 411.996094 645.203125 411.996094 C 645.25 412 645.300781 411.996094 645.347656 411.996094 C 649.246094 411.996094 653.109375 411.417969 656.832031 410.285156 C 657.144531 410.191406 657.484375 410.347656 657.617188 410.644531 C 657.785156 411.03125 657.949219 411.347656 658.125 411.640625 C 660.71875 415.972656 666.355469 417.394531 670.691406 414.800781 C 672.792969 413.546875 674.277344 411.550781 674.878906 409.175781 C 675.472656 406.800781 675.109375 404.335938 673.855469 402.238281 C 673.683594 401.949219 673.476562 401.648438 673.222656 401.324219 C 673.023438 401.0625 673.046875 400.695312 673.273438 400.464844 C 676.074219 397.6875 678.433594 394.515625 680.289062 391.035156 C 680.445312 390.746094 680.789062 390.617188 681.09375 390.734375 C 681.488281 390.886719 681.824219 390.996094 682.152344 391.078125 C 687.054688 392.3125 692.046875 389.332031 693.28125 384.433594 C 693.878906 382.058594 693.515625 379.597656 692.257812 377.496094 C 691.003906 375.394531 689.003906 373.90625 686.632812 373.308594 C 686.304688 373.226562 685.957031 373.164062 685.53125 373.109375 C 685.207031 373.066406 684.964844 372.792969 684.964844 372.464844 C 684.976562 368.519531 684.402344 364.609375 683.253906 360.839844 C 683.15625 360.523438 683.3125 360.191406 683.613281 360.058594 C 683.996094 359.886719 684.3125 359.726562 684.601562 359.550781 C 686.703125 358.292969 688.191406 356.296875 688.792969 353.921875 C 689.386719 351.550781 689.023438 349.085938 687.769531 346.984375 C 685.175781 342.648438 679.539062 341.230469 675.199219 343.820312 C 674.910156 343.992188 674.609375 344.199219 674.28125 344.453125 C 674.023438 344.65625 673.652344 344.632812 673.421875 344.398438 C 670.648438 341.605469 667.472656 339.246094 663.992188 337.386719 C 663.703125 337.234375 663.574219 336.886719 663.691406 336.582031 C 663.839844 336.195312 663.953125 335.851562 664.035156 335.523438 C 664.632812 333.148438 664.269531 330.6875 663.015625 328.585938 C 661.757812 326.484375 659.757812 324.996094 657.386719 324.398438 C 655.011719 323.800781 652.546875 324.160156 650.445312 325.417969 C 648.34375 326.671875 646.855469 328.671875 646.261719 331.046875 C 646.179688 331.371094 646.113281 331.730469 646.0625 332.144531 C 646.019531 332.464844 645.746094 332.710938 645.417969 332.710938 C 645.363281 332.703125 645.324219 332.710938 645.277344 332.710938 C 641.375 332.710938 637.511719 333.285156 633.789062 334.417969 C 633.472656 334.511719 633.136719 334.359375 633.003906 334.0625 C 632.835938 333.679688 632.667969 333.355469 632.5 333.066406 C 629.90625 328.730469 624.265625 327.3125 619.925781 329.902344 C 617.828125 331.15625 616.339844 333.15625 615.742188 335.53125 C 615.144531 337.902344 615.507812 340.367188 616.765625 342.46875 C 616.933594 342.753906 617.144531 343.054688 617.398438 343.382812 C 617.597656 343.644531 617.574219 344.011719 617.34375 344.242188 C 614.546875 347.015625 612.1875 350.1875 610.332031 353.671875 C 610.179688 353.960938 609.832031 354.089844 609.527344 353.972656 C 609.128906 353.820312 608.792969 353.710938 608.464844 353.625 C 603.5625 352.390625 598.570312 355.375 597.339844 360.273438 C 596.105469 365.171875 599.089844 370.164062 603.992188 371.394531 C 604.316406 371.476562 604.675781 371.542969 605.089844 371.597656 C 605.414062 371.636719 605.652344 371.914062 605.652344 372.242188 C 605.640625 376.1875 606.21875 380.097656 607.367188 383.867188 C 607.460938 384.179688 607.308594 384.515625 607.007812 384.648438 C 606.628906 384.820312 606.304688 384.984375 606.015625 385.15625 C 603.914062 386.410156 602.425781 388.410156 601.832031 390.78125 C 601.230469 393.15625 601.59375 395.617188 602.851562 397.71875 C 605.445312 402.058594 611.085938 403.476562 615.421875 400.886719 C 615.707031 400.710938 616.007812 400.503906 616.339844 400.25 C 616.453125 400.160156 616.597656 400.117188 616.734375 400.117188 Z M 635.492188 421.886719 C 634.632812 421.886719 633.769531 421.78125 632.917969 421.566406 C 630.207031 420.882812 627.925781 419.1875 626.492188 416.789062 C 625.054688 414.390625 624.644531 411.578125 625.324219 408.867188 C 625.378906 408.648438 625.445312 408.429688 625.523438 408.195312 C 622.28125 406.410156 619.3125 404.199219 616.671875 401.617188 C 616.472656 401.757812 616.277344 401.882812 616.085938 401.996094 C 611.132812 404.957031 604.699219 403.339844 601.734375 398.386719 C 600.300781 395.988281 599.886719 393.175781 600.570312 390.464844 C 601.253906 387.753906 602.953125 385.472656 605.351562 384.039062 C 605.539062 383.925781 605.742188 383.816406 605.964844 383.707031 C 604.9375 380.160156 604.398438 376.496094 604.359375 372.800781 C 604.117188 372.757812 603.890625 372.710938 603.675781 372.65625 C 598.078125 371.246094 594.671875 365.550781 596.078125 359.957031 C 597.488281 354.363281 603.1875 350.960938 608.78125 352.367188 C 608.996094 352.421875 609.21875 352.488281 609.453125 352.566406 C 611.238281 349.324219 613.445312 346.355469 616.03125 343.71875 C 615.890625 343.519531 615.765625 343.324219 615.648438 343.132812 C 614.214844 340.734375 613.800781 337.921875 614.484375 335.210938 C 615.164062 332.503906 616.863281 330.222656 619.261719 328.789062 C 624.214844 325.832031 630.652344 327.449219 633.609375 332.402344 C 633.726562 332.59375 633.835938 332.800781 633.949219 333.015625 C 637.492188 331.988281 641.160156 331.453125 644.855469 331.414062 C 644.898438 331.171875 644.945312 330.945312 645 330.726562 C 645.683594 328.019531 647.378906 325.738281 649.777344 324.304688 C 652.175781 322.871094 654.992188 322.460938 657.703125 323.140625 C 660.414062 323.820312 662.695312 325.519531 664.128906 327.917969 C 665.5625 330.316406 665.976562 333.128906 665.292969 335.839844 C 665.242188 336.054688 665.175781 336.277344 665.097656 336.511719 C 668.335938 338.296875 671.308594 340.507812 673.945312 343.089844 C 674.148438 342.945312 674.339844 342.820312 674.53125 342.703125 C 679.484375 339.75 685.921875 341.367188 688.882812 346.320312 C 690.316406 348.71875 690.730469 351.53125 690.046875 354.238281 C 689.367188 356.949219 687.667969 359.230469 685.269531 360.664062 C 685.078125 360.777344 684.875 360.890625 684.65625 361 C 685.683594 364.546875 686.222656 368.207031 686.261719 371.90625 C 686.503906 371.945312 686.726562 371.992188 686.945312 372.050781 C 689.660156 372.730469 691.9375 374.429688 693.375 376.828125 C 694.808594 379.226562 695.21875 382.039062 694.539062 384.75 C 693.132812 390.34375 687.433594 393.746094 681.839844 392.335938 C 681.621094 392.285156 681.398438 392.21875 681.167969 392.140625 C 679.378906 395.378906 677.171875 398.347656 674.589844 400.984375 C 674.730469 401.1875 674.859375 401.382812 674.96875 401.574219 C 676.402344 403.96875 676.820312 406.78125 676.136719 409.492188 C 675.453125 412.203125 673.757812 414.484375 671.355469 415.917969 C 666.40625 418.875 659.96875 417.253906 657.007812 412.300781 C 656.890625 412.113281 656.785156 411.910156 656.675781 411.6875 C 653.125 412.714844 649.460938 413.253906 645.761719 413.292969 C 645.71875 413.53125 645.671875 413.761719 645.621094 413.976562 C 644.9375 416.6875 643.238281 418.96875 640.839844 420.398438 C 639.195312 421.382812 637.359375 421.886719 635.492188 421.886719 "/><path style=" stroke:none;fill-rule:nonzero;fill:#ffffff;fill-opacity:1;" d="M 600.683594 444.296875 C 599.195312 450.199219 593.207031 453.777344 587.300781 452.292969 C 581.394531 450.804688 577.8125 444.816406 579.300781 438.914062 C 580.785156 433.011719 586.777344 429.433594 592.683594 430.917969 C 598.585938 432.40625 602.167969 438.398438 600.683594 444.296875 Z M 619.386719 449.007812 C 620.1875 445.832031 618.257812 442.605469 615.078125 441.804688 C 614.839844 441.742188 614.605469 441.703125 614.367188 441.675781 C 614.378906 439.21875 614.015625 436.816406 613.316406 434.527344 C 613.535156 434.429688 613.75 434.324219 613.957031 434.199219 C 616.773438 432.519531 617.691406 428.875 616.007812 426.0625 C 614.328125 423.246094 610.683594 422.328125 607.867188 424.011719 C 607.660156 424.136719 607.464844 424.277344 607.273438 424.421875 C 605.589844 422.726562 603.644531 421.265625 601.476562 420.109375 C 601.5625 419.890625 601.636719 419.664062 601.699219 419.425781 C 602.496094 416.25 600.570312 413.019531 597.390625 412.21875 C 594.210938 411.417969 590.984375 413.347656 590.183594 416.523438 C 590.125 416.761719 590.085938 417 590.054688 417.234375 C 587.597656 417.226562 585.191406 417.589844 582.90625 418.289062 C 582.808594 418.066406 582.703125 417.851562 582.578125 417.644531 C 580.894531 414.828125 577.25 413.910156 574.4375 415.59375 C 571.621094 417.273438 570.707031 420.917969 572.386719 423.730469 C 572.515625 423.941406 572.652344 424.136719 572.796875 424.324219 C 571.101562 426.007812 569.640625 427.957031 568.488281 430.121094 C 568.265625 430.039062 568.039062 429.957031 567.800781 429.898438 C 564.621094 429.097656 561.394531 431.027344 560.59375 434.203125 C 559.796875 437.382812 561.722656 440.605469 564.902344 441.410156 C 565.140625 441.46875 565.375 441.507812 565.613281 441.535156 C 565.605469 443.992188 565.964844 446.394531 566.664062 448.683594 C 566.449219 448.78125 566.230469 448.886719 566.023438 449.015625 C 563.207031 450.691406 562.289062 454.335938 563.972656 457.152344 C 565.652344 459.964844 569.300781 460.882812 572.113281 459.199219 C 572.324219 459.074219 572.519531 458.9375 572.707031 458.789062 C 574.390625 460.488281 576.339844 461.945312 578.507812 463.101562 C 578.421875 463.320312 578.339844 463.550781 578.28125 463.789062 C 577.484375 466.964844 579.414062 470.191406 582.589844 470.992188 C 585.769531 471.792969 588.996094 469.863281 589.796875 466.6875 C 589.855469 466.449219 589.898438 466.214844 589.925781 465.976562 C 592.382812 465.984375 594.785156 465.625 597.074219 464.925781 C 597.171875 465.144531 597.277344 465.359375 597.40625 465.566406 C 599.085938 468.382812 602.730469 469.300781 605.546875 467.617188 C 608.355469 465.9375 609.277344 462.292969 607.59375 459.480469 C 607.46875 459.269531 607.328125 459.074219 607.183594 458.886719 C 608.878906 457.203125 610.335938 455.257812 611.496094 453.09375 C 611.714844 453.175781 611.941406 453.253906 612.179688 453.3125 C 615.359375 454.113281 618.585938 452.1875 619.386719 449.007812 "/><path style=" stroke:none;fill-rule:nonzero;fill:#000000;fill-opacity:1;" d="M 589.988281 431.230469 C 585.351562 431.230469 581.113281 434.371094 579.929688 439.070312 C 578.535156 444.617188 581.910156 450.269531 587.457031 451.664062 C 593.003906 453.058594 598.65625 449.6875 600.050781 444.140625 C 601.449219 438.59375 598.070312 432.945312 592.523438 431.546875 C 591.675781 431.335938 590.828125 431.230469 589.988281 431.230469 Z M 589.992188 453.277344 C 589.050781 453.277344 588.09375 453.164062 587.140625 452.921875 C 580.902344 451.351562 577.097656 444.996094 578.667969 438.757812 C 580.242188 432.515625 586.597656 428.714844 592.839844 430.292969 C 599.082031 431.859375 602.878906 438.21875 601.3125 444.457031 C 599.980469 449.742188 595.210938 453.277344 589.992188 453.277344 Z M 619.386719 449.007812 L 619.394531 449.007812 Z M 572.707031 458.140625 C 572.875 458.140625 573.042969 458.207031 573.167969 458.332031 C 574.832031 460.003906 576.726562 461.417969 578.8125 462.527344 C 579.101562 462.683594 579.230469 463.027344 579.113281 463.335938 C 579.023438 463.558594 578.960938 463.757812 578.914062 463.945312 C 578.570312 465.3125 578.777344 466.734375 579.5 467.949219 C 580.226562 469.160156 581.382812 470.019531 582.75 470.363281 C 584.121094 470.707031 585.542969 470.5 586.75 469.773438 C 587.964844 469.050781 588.824219 467.894531 589.167969 466.527344 C 589.222656 466.316406 589.257812 466.105469 589.285156 465.894531 C 589.324219 465.570312 589.601562 465.328125 589.925781 465.328125 C 589.957031 465.332031 589.984375 465.328125 590.015625 465.328125 C 592.347656 465.328125 594.65625 464.984375 596.882812 464.304688 C 597.199219 464.210938 597.535156 464.363281 597.667969 464.664062 C 597.765625 464.878906 597.863281 465.070312 597.960938 465.234375 C 599.453125 467.738281 602.710938 468.558594 605.210938 467.0625 C 606.425781 466.339844 607.28125 465.183594 607.625 463.816406 C 607.972656 462.445312 607.761719 461.027344 607.035156 459.8125 C 606.925781 459.628906 606.800781 459.453125 606.667969 459.285156 C 606.46875 459.027344 606.492188 458.65625 606.726562 458.425781 C 608.398438 456.765625 609.8125 454.867188 610.921875 452.785156 C 611.074219 452.496094 611.421875 452.371094 611.726562 452.484375 C 611.957031 452.570312 612.148438 452.636719 612.339844 452.683594 C 615.167969 453.394531 618.046875 451.675781 618.757812 448.847656 C 619.46875 446.023438 617.746094 443.144531 614.921875 442.433594 C 614.730469 442.386719 614.523438 442.347656 614.289062 442.316406 C 613.960938 442.277344 613.71875 442 613.71875 441.671875 C 613.726562 439.3125 613.382812 436.972656 612.695312 434.71875 C 612.601562 434.402344 612.753906 434.066406 613.050781 433.933594 C 613.246094 433.847656 613.4375 433.753906 613.628906 433.644531 C 614.835938 432.921875 615.695312 431.765625 616.042969 430.398438 C 616.386719 429.027344 616.175781 427.605469 615.453125 426.394531 C 613.957031 423.894531 610.703125 423.074219 608.203125 424.570312 C 608.03125 424.667969 607.863281 424.785156 607.671875 424.933594 C 607.414062 425.136719 607.042969 425.113281 606.816406 424.878906 C 605.152344 423.207031 603.253906 421.792969 601.167969 420.6875 C 600.878906 420.527344 600.75 420.183594 600.867188 419.875 C 600.957031 419.652344 601.023438 419.453125 601.070312 419.265625 C 601.78125 416.441406 600.058594 413.5625 597.234375 412.847656 C 595.863281 412.507812 594.441406 412.714844 593.226562 413.4375 C 592.015625 414.160156 591.15625 415.316406 590.816406 416.683594 C 590.765625 416.871094 590.730469 417.070312 590.699219 417.316406 C 590.660156 417.640625 590.382812 417.886719 590.054688 417.886719 C 590.03125 417.894531 589.996094 417.886719 589.96875 417.886719 C 587.632812 417.886719 585.324219 418.226562 583.09375 418.90625 C 582.78125 419 582.445312 418.847656 582.3125 418.550781 C 582.214844 418.332031 582.121094 418.140625 582.019531 417.976562 C 580.527344 415.476562 577.273438 414.652344 574.769531 416.148438 C 573.558594 416.871094 572.699219 418.027344 572.355469 419.394531 C 572.007812 420.765625 572.21875 422.1875 572.945312 423.398438 C 573.042969 423.566406 573.164062 423.738281 573.308594 423.925781 C 573.511719 424.183594 573.488281 424.554688 573.253906 424.785156 C 571.582031 426.445312 570.171875 428.34375 569.058594 430.425781 C 568.90625 430.714844 568.558594 430.84375 568.253906 430.726562 C 568.023438 430.640625 567.832031 430.578125 567.644531 430.527344 C 564.8125 429.820312 561.9375 431.535156 561.226562 434.363281 C 560.511719 437.191406 562.234375 440.066406 565.0625 440.777344 C 565.25 440.824219 565.457031 440.863281 565.695312 440.894531 C 566.019531 440.933594 566.261719 441.210938 566.261719 441.539062 C 566.253906 443.898438 566.597656 446.238281 567.285156 448.492188 C 567.378906 448.808594 567.230469 449.144531 566.929688 449.277344 C 566.734375 449.367188 566.542969 449.457031 566.355469 449.566406 C 565.140625 450.292969 564.285156 451.445312 563.941406 452.8125 C 563.597656 454.183594 563.804688 455.605469 564.53125 456.820312 C 566.027344 459.320312 569.277344 460.136719 571.78125 458.640625 C 571.96875 458.53125 572.144531 458.410156 572.308594 458.277344 C 572.429688 458.1875 572.566406 458.140625 572.707031 458.140625 Z M 584.050781 471.824219 C 583.511719 471.824219 582.96875 471.757812 582.429688 471.621094 C 580.726562 471.191406 579.289062 470.125 578.390625 468.613281 C 577.488281 467.105469 577.222656 465.335938 577.65625 463.628906 C 577.671875 463.554688 577.691406 463.480469 577.714844 463.410156 C 575.871094 462.367188 574.167969 461.101562 572.640625 459.636719 C 572.574219 459.679688 572.511719 459.71875 572.445312 459.757812 C 569.332031 461.621094 565.277344 460.601562 563.417969 457.484375 C 562.511719 455.976562 562.25 454.203125 562.679688 452.5 C 563.109375 450.792969 564.179688 449.355469 565.6875 448.457031 C 565.753906 448.417969 565.816406 448.378906 565.886719 448.339844 C 565.316406 446.304688 565.007812 444.207031 564.96875 442.089844 C 564.890625 442.074219 564.820312 442.054688 564.746094 442.039062 C 561.222656 441.148438 559.078125 437.566406 559.964844 434.042969 C 560.851562 430.523438 564.4375 428.382812 567.957031 429.269531 C 568.03125 429.289062 568.105469 429.308594 568.179688 429.332031 C 569.21875 427.484375 570.484375 425.78125 571.953125 424.257812 C 571.910156 424.195312 571.867188 424.128906 571.828125 424.066406 C 570.925781 422.558594 570.667969 420.78125 571.097656 419.082031 C 571.527344 417.375 572.59375 415.9375 574.105469 415.035156 C 577.21875 413.171875 581.273438 414.195312 583.132812 417.308594 C 583.171875 417.375 583.210938 417.441406 583.25 417.511719 C 585.285156 416.9375 587.386719 416.628906 589.503906 416.589844 C 589.519531 416.511719 589.539062 416.441406 589.554688 416.367188 C 589.984375 414.660156 591.050781 413.226562 592.5625 412.324219 C 594.070312 411.417969 595.84375 411.160156 597.546875 411.589844 C 601.070312 412.476562 603.214844 416.0625 602.328125 419.582031 C 602.308594 419.65625 602.289062 419.730469 602.265625 419.804688 C 604.113281 420.84375 605.816406 422.109375 607.339844 423.574219 C 607.40625 423.53125 607.46875 423.492188 607.535156 423.453125 C 610.652344 421.59375 614.703125 422.613281 616.566406 425.730469 C 617.46875 427.238281 617.730469 429.007812 617.296875 430.714844 C 616.871094 432.417969 615.800781 433.855469 614.292969 434.753906 C 614.226562 434.796875 614.160156 434.832031 614.09375 434.871094 C 614.667969 436.90625 614.972656 439.003906 615.015625 441.121094 C 615.089844 441.136719 615.164062 441.15625 615.234375 441.171875 C 618.757812 442.0625 620.902344 445.648438 620.015625 449.167969 C 619.128906 452.6875 615.542969 454.832031 612.023438 453.941406 C 611.949219 453.925781 611.875 453.902344 611.800781 453.882812 C 610.761719 455.726562 609.496094 457.429688 608.03125 458.953125 C 608.070312 459.015625 608.113281 459.082031 608.152344 459.148438 C 609.054688 460.65625 609.3125 462.429688 608.886719 464.132812 C 608.453125 465.839844 607.386719 467.273438 605.875 468.175781 C 602.757812 470.039062 598.707031 469.015625 596.847656 465.902344 C 596.808594 465.835938 596.769531 465.769531 596.730469 465.703125 C 594.695312 466.273438 592.597656 466.582031 590.476562 466.621094 C 590.460938 466.699219 590.445312 466.773438 590.425781 466.84375 C 589.996094 468.550781 588.929688 469.984375 587.417969 470.886719 C 586.386719 471.507812 585.226562 471.824219 584.050781 471.824219 "/><path style=" stroke:none;fill-rule:nonzero;fill:#000000;fill-opacity:1;" d="M 433.054688 365.40625 L 299.398438 365.40625 C 299.039062 365.40625 298.75 365.117188 298.75 364.757812 C 298.75 364.394531 299.039062 364.105469 299.398438 364.105469 L 432.40625 364.105469 L 432.40625 321.808594 C 432.40625 321.449219 432.695312 321.15625 433.054688 321.15625 C 433.414062 321.15625 433.703125 321.449219 433.703125 321.808594 L 433.703125 364.757812 C 433.703125 365.117188 433.414062 365.40625 433.054688 365.40625 "/><path style=" stroke:none;fill-rule:nonzero;fill:#ffffff;fill-opacity:1;" d="M 620.195312 635.046875 L 342.808594 635.046875 L 342.808594 594.726562 L 620.195312 594.726562 L 620.195312 635.046875 "/><path style=" stroke:none;fill-rule:nonzero;fill:#000000;fill-opacity:1;" d="M 343.457031 634.394531 L 619.546875 634.394531 L 619.546875 595.375 L 343.457031 595.375 Z M 620.195312 635.695312 L 342.808594 635.695312 C 342.449219 635.695312 342.160156 635.40625 342.160156 635.046875 L 342.160156 594.726562 C 342.160156 594.363281 342.449219 594.074219 342.808594 594.074219 L 620.195312 594.074219 C 620.554688 594.074219 620.84375 594.363281 620.84375 594.726562 L 620.84375 635.046875 C 620.84375 635.40625 620.554688 635.695312 620.195312 635.695312 "/><path style=" stroke:none;fill-rule:nonzero;fill:#2f2f2f;fill-opacity:1;" d="M 353.195312 624.660156 L 609.8125 624.660156 L 609.8125 605.109375 L 353.195312 605.109375 Z M 610.457031 625.960938 L 352.546875 625.960938 C 352.1875 625.960938 351.894531 625.667969 351.894531 625.308594 L 351.894531 604.460938 C 351.894531 604.101562 352.1875 603.8125 352.546875 603.8125 L 610.457031 603.8125 C 610.816406 603.8125 611.105469 604.101562 611.105469 604.460938 L 611.105469 625.308594 C 611.105469 625.667969 610.816406 625.960938 610.457031 625.960938 "/><path style=" stroke:none;fill-rule:nonzero;fill:#2f2f2f;fill-opacity:1;" d="M 352.546875 625.308594 L 352.546875 604.460938 L 536.3125 604.460938 L 536.3125 625.308594 L 352.546875 625.308594 "/></g></svg>