<svg xmlns="http://www.w3.org/2000/svg" xmlns:xlink="http://www.w3.org/1999/xlink" width="350" zoomAndPan="magnify" viewBox="0 0 262.5 74.999997" height="100" preserveAspectRatio="xMidYMid meet"><defs><clipPath id="861f849df2"><path d="M 39.738281 0.0703125 L 110 0.0703125 L 110 21 L 39.738281 21 Z M 39.738281 0.0703125 "></path></clipPath><clipPath id="c9935b587a"><path d="M 39.738281 17 L 77 17 L 77 74.925781 L 39.738281 74.925781 Z M 39.738281 17 "></path></clipPath><clipPath id="cd37d20d22"><path d="M 73 17 L 110 17 L 110 74.925781 L 73 74.925781 Z M 73 17 "></path></clipPath></defs><g id="31e046aa48"><g style="fill:#7c838e;fill-opacity:1;"><g transform="translate(133.590258, 23.491353)"><path style="stroke:none" d="M 10.59375 -6.640625 L 12.875 -6.640625 L 12.875 -1.46875 C 12.207031 -0.9375 11.425781 -0.523438 10.53125 -0.234375 C 9.644531 0.046875 8.734375 0.1875 7.796875 0.1875 C 6.472656 0.1875 5.28125 -0.0976562 4.21875 -0.671875 C 3.15625 -1.242188 2.320312 -2.035156 1.71875 -3.046875 C 1.113281 -4.066406 0.8125 -5.210938 0.8125 -6.484375 C 0.8125 -7.753906 1.113281 -8.894531 1.71875 -9.90625 C 2.320312 -10.925781 3.160156 -11.722656 4.234375 -12.296875 C 5.304688 -12.867188 6.507812 -13.15625 7.84375 -13.15625 C 8.925781 -13.15625 9.910156 -12.972656 10.796875 -12.609375 C 11.691406 -12.253906 12.441406 -11.734375 13.046875 -11.046875 L 11.53125 -9.5625 C 10.539062 -10.550781 9.347656 -11.046875 7.953125 -11.046875 C 7.035156 -11.046875 6.222656 -10.851562 5.515625 -10.46875 C 4.804688 -10.082031 4.25 -9.539062 3.84375 -8.84375 C 3.445312 -8.15625 3.25 -7.367188 3.25 -6.484375 C 3.25 -5.617188 3.445312 -4.835938 3.84375 -4.140625 C 4.25 -3.453125 4.804688 -2.910156 5.515625 -2.515625 C 6.222656 -2.117188 7.03125 -1.921875 7.9375 -1.921875 C 8.945312 -1.921875 9.832031 -2.144531 10.59375 -2.59375 Z M 10.59375 -6.640625 "></path></g></g><g style="fill:#7c838e;fill-opacity:1;"><g transform="translate(147.900413, 23.491353)"><path style="stroke:none" d="M 10.234375 0 L 7.578125 -3.796875 C 7.460938 -3.785156 7.296875 -3.78125 7.078125 -3.78125 L 4.15625 -3.78125 L 4.15625 0 L 1.734375 0 L 1.734375 -12.96875 L 7.078125 -12.96875 C 8.203125 -12.96875 9.179688 -12.78125 10.015625 -12.40625 C 10.847656 -12.039062 11.484375 -11.507812 11.921875 -10.8125 C 12.367188 -10.125 12.59375 -9.304688 12.59375 -8.359375 C 12.59375 -7.378906 12.351562 -6.535156 11.875 -5.828125 C 11.40625 -5.128906 10.726562 -4.609375 9.84375 -4.265625 L 12.828125 0 Z M 10.171875 -8.359375 C 10.171875 -9.179688 9.898438 -9.816406 9.359375 -10.265625 C 8.816406 -10.710938 8.019531 -10.9375 6.96875 -10.9375 L 4.15625 -10.9375 L 4.15625 -5.765625 L 6.96875 -5.765625 C 8.019531 -5.765625 8.816406 -5.988281 9.359375 -6.4375 C 9.898438 -6.882812 10.171875 -7.523438 10.171875 -8.359375 Z M 10.171875 -8.359375 "></path></g></g><g style="fill:#7c838e;fill-opacity:1;"><g transform="translate(161.450577, 23.491353)"><path style="stroke:none" d="M 7.3125 0.1875 C 5.53125 0.1875 4.132812 -0.3125 3.125 -1.3125 C 2.125 -2.320312 1.625 -3.769531 1.625 -5.65625 L 1.625 -12.96875 L 4.046875 -12.96875 L 4.046875 -5.75 C 4.046875 -3.195312 5.144531 -1.921875 7.34375 -1.921875 C 9.53125 -1.921875 10.625 -3.195312 10.625 -5.75 L 10.625 -12.96875 L 12.984375 -12.96875 L 12.984375 -5.65625 C 12.984375 -3.769531 12.484375 -2.320312 11.484375 -1.3125 C 10.492188 -0.3125 9.101562 0.1875 7.3125 0.1875 Z M 7.3125 0.1875 "></path></g></g><g style="fill:#7c838e;fill-opacity:1;"><g transform="translate(176.075851, 23.491353)"><path style="stroke:none" d="M 7.078125 -12.96875 C 8.203125 -12.96875 9.179688 -12.78125 10.015625 -12.40625 C 10.847656 -12.039062 11.484375 -11.507812 11.921875 -10.8125 C 12.367188 -10.125 12.59375 -9.304688 12.59375 -8.359375 C 12.59375 -7.421875 12.367188 -6.601562 11.921875 -5.90625 C 11.484375 -5.207031 10.847656 -4.671875 10.015625 -4.296875 C 9.179688 -3.929688 8.203125 -3.75 7.078125 -3.75 L 4.15625 -3.75 L 4.15625 0 L 1.734375 0 L 1.734375 -12.96875 Z M 6.96875 -5.78125 C 8.019531 -5.78125 8.816406 -6 9.359375 -6.4375 C 9.898438 -6.882812 10.171875 -7.523438 10.171875 -8.359375 C 10.171875 -9.179688 9.898438 -9.816406 9.359375 -10.265625 C 8.816406 -10.710938 8.019531 -10.9375 6.96875 -10.9375 L 4.15625 -10.9375 L 4.15625 -5.78125 Z M 6.96875 -5.78125 "></path></g></g><g style="fill:#7c838e;fill-opacity:1;"><g transform="translate(189.53333, 23.491353)"><path style="stroke:none" d="M 7.796875 0.1875 C 6.472656 0.1875 5.28125 -0.0976562 4.21875 -0.671875 C 3.15625 -1.242188 2.320312 -2.039062 1.71875 -3.0625 C 1.113281 -4.082031 0.8125 -5.222656 0.8125 -6.484375 C 0.8125 -7.742188 1.113281 -8.882812 1.71875 -9.90625 C 2.320312 -10.925781 3.15625 -11.722656 4.21875 -12.296875 C 5.28125 -12.867188 6.472656 -13.15625 7.796875 -13.15625 C 9.117188 -13.15625 10.3125 -12.867188 11.375 -12.296875 C 12.4375 -11.722656 13.269531 -10.925781 13.875 -9.90625 C 14.476562 -8.894531 14.78125 -7.753906 14.78125 -6.484375 C 14.78125 -5.210938 14.476562 -4.066406 13.875 -3.046875 C 13.269531 -2.035156 12.4375 -1.242188 11.375 -0.671875 C 10.3125 -0.0976562 9.117188 0.1875 7.796875 0.1875 Z M 7.796875 -1.921875 C 8.660156 -1.921875 9.4375 -2.113281 10.125 -2.5 C 10.820312 -2.894531 11.367188 -3.441406 11.765625 -4.140625 C 12.160156 -4.835938 12.359375 -5.617188 12.359375 -6.484375 C 12.359375 -7.347656 12.160156 -8.128906 11.765625 -8.828125 C 11.367188 -9.523438 10.820312 -10.066406 10.125 -10.453125 C 9.4375 -10.847656 8.660156 -11.046875 7.796875 -11.046875 C 6.929688 -11.046875 6.148438 -10.847656 5.453125 -10.453125 C 4.765625 -10.066406 4.222656 -9.523438 3.828125 -8.828125 C 3.441406 -8.128906 3.25 -7.347656 3.25 -6.484375 C 3.25 -5.617188 3.441406 -4.835938 3.828125 -4.140625 C 4.222656 -3.441406 4.765625 -2.894531 5.453125 -2.5 C 6.148438 -2.113281 6.929688 -1.921875 7.796875 -1.921875 Z M 7.796875 -1.921875 "></path></g></g><g style="fill:#0c2040;fill-opacity:1;"><g transform="translate(116.482554, 45.756061)"><path style="stroke:none" d="M 17.609375 -3.578125 L 17.609375 0 L 1.03125 0 L 1.03125 -2.84375 L 11.4375 -15.390625 L 1.25 -15.390625 L 1.25 -18.96875 L 17.203125 -18.96875 L 17.203125 -16.125 L 6.828125 -3.578125 Z M 17.609375 -3.578125 "></path></g></g><g style="fill:#0c2040;fill-opacity:1;"><g transform="translate(134.660165, 45.756061)"><path style="stroke:none" d="M 16.9375 -3.515625 L 16.9375 0 L 2.25 0 L 2.25 -18.96875 L 16.578125 -18.96875 L 16.578125 -15.4375 L 6.609375 -15.4375 L 6.609375 -11.328125 L 15.421875 -11.328125 L 15.421875 -7.90625 L 6.609375 -7.90625 L 6.609375 -3.515625 Z M 16.9375 -3.515625 "></path></g></g><g style="fill:#0c2040;fill-opacity:1;"><g transform="translate(152.837776, 45.756061)"><path style="stroke:none" d="M 19.640625 -18.96875 L 19.640625 0 L 16.046875 0 L 6.578125 -11.515625 L 6.578125 0 L 2.25 0 L 2.25 -18.96875 L 5.875 -18.96875 L 15.3125 -7.453125 L 15.3125 -18.96875 Z M 19.640625 -18.96875 "></path></g></g><g style="fill:#0c2040;fill-opacity:1;"><g transform="translate(174.726764, 45.756061)"><path style="stroke:none" d="M 2.25 -18.96875 L 6.640625 -18.96875 L 6.640625 0 L 2.25 0 Z M 2.25 -18.96875 "></path></g></g><g style="fill:#0c2040;fill-opacity:1;"><g transform="translate(183.612387, 45.756061)"><path style="stroke:none" d="M 6.171875 -15.390625 L 0.109375 -15.390625 L 0.109375 -18.96875 L 16.640625 -18.96875 L 16.640625 -15.390625 L 10.5625 -15.390625 L 10.5625 0 L 6.171875 0 Z M 6.171875 -15.390625 "></path></g></g><g style="fill:#0c2040;fill-opacity:1;"><g transform="translate(200.354203, 45.756061)"><path style="stroke:none" d="M 19.640625 -18.96875 L 19.640625 0 L 15.25 0 L 15.25 -7.78125 L 6.640625 -7.78125 L 6.640625 0 L 2.25 0 L 2.25 -18.96875 L 6.640625 -18.96875 L 6.640625 -11.484375 L 15.25 -11.484375 L 15.25 -18.96875 Z M 19.640625 -18.96875 "></path></g></g><path style="fill:none;stroke-width:5;stroke-linecap:butt;stroke-linejoin:miter;stroke:#ffffff;stroke-opacity:1;stroke-miterlimit:4;" d="M -0.00323025 2.504863 L 106.19764 2.49569 " transform="matrix(0.25009,-0.13265,0.13265,0.25009,74.5201,51.611411)"></path><path style="fill:none;stroke-width:5;stroke-linecap:butt;stroke-linejoin:miter;stroke:#ffffff;stroke-opacity:1;stroke-miterlimit:4;" d="M -0.00351757 2.498085 L 106.197353 2.507258 " transform="matrix(0.25009,0.13265,-0.13265,0.25009,48.578345,37.50072)"></path><path style=" stroke:none;fill-rule:evenodd;fill:#0f2343;fill-opacity:1;" d="M 108.597656 19 L 108.597656 56.035156 L 74.855469 73.671875 L 74.855469 36.636719 Z M 108.597656 19 "></path><path style=" stroke:none;fill-rule:evenodd;fill:#0090a9;fill-opacity:1;" d="M 74.855469 36.636719 L 74.855469 73.671875 L 41.113281 56.035156 L 41.113281 19 Z M 74.855469 36.636719 "></path><path style=" stroke:none;fill-rule:evenodd;fill:#7c838e;fill-opacity:1;" d="M 108.597656 19 L 74.855469 36.636719 L 41.113281 19 L 74.855469 1.363281 Z M 108.597656 19 "></path><g clip-rule="nonzero" clip-path="url(#861f849df2)"><path style=" stroke:none;fill-rule:evenodd;fill:#ffffff;fill-opacity:1;" d="M 108.597656 20.207031 C 108.40625 20.207031 108.21875 20.160156 108.039062 20.066406 L 74.855469 2.722656 L 41.667969 20.066406 C 41.078125 20.375 40.351562 20.148438 40.042969 19.558594 C 39.734375 18.96875 39.964844 18.238281 40.554688 17.933594 L 74.296875 0.296875 C 74.644531 0.113281 75.0625 0.113281 75.414062 0.296875 L 109.15625 17.933594 C 109.746094 18.238281 109.972656 18.96875 109.664062 19.558594 C 109.449219 19.96875 109.03125 20.207031 108.597656 20.207031 Z M 108.597656 20.207031 "></path></g><g clip-rule="nonzero" clip-path="url(#c9935b587a)"><path style=" stroke:none;fill-rule:evenodd;fill:#ffffff;fill-opacity:1;" d="M 74.851562 74.875 C 74.664062 74.875 74.472656 74.832031 74.296875 74.738281 L 40.554688 57.101562 C 40.15625 56.894531 39.90625 56.484375 39.90625 56.035156 L 39.90625 19 C 39.90625 18.578125 40.125 18.1875 40.488281 17.96875 C 40.847656 17.75 41.296875 17.738281 41.667969 17.929688 L 75.414062 35.566406 C 76 35.875 76.230469 36.601562 75.921875 37.195312 C 75.613281 37.78125 74.886719 38.011719 74.296875 37.703125 L 42.316406 20.988281 L 42.316406 55.304688 L 75.414062 72.601562 C 76.003906 72.910156 76.230469 73.636719 75.921875 74.226562 C 75.707031 74.640625 75.289062 74.875 74.851562 74.875 Z M 74.851562 74.875 "></path></g><g clip-rule="nonzero" clip-path="url(#cd37d20d22)"><path style=" stroke:none;fill-rule:evenodd;fill:#ffffff;fill-opacity:1;" d="M 74.855469 74.875 C 74.636719 74.875 74.421875 74.816406 74.230469 74.699219 C 73.867188 74.480469 73.648438 74.089844 73.648438 73.671875 L 73.648438 36.636719 C 73.648438 36.1875 73.898438 35.773438 74.296875 35.566406 L 108.039062 17.929688 C 108.414062 17.734375 108.859375 17.75 109.222656 17.96875 C 109.582031 18.1875 109.800781 18.578125 109.800781 19 L 109.800781 56.035156 C 109.800781 56.484375 109.550781 56.894531 109.15625 57.101562 L 75.414062 74.738281 C 75.238281 74.828125 75.046875 74.875 74.855469 74.875 Z M 76.058594 37.363281 L 76.058594 71.679688 L 107.390625 55.304688 L 107.390625 20.988281 Z M 76.058594 37.363281 "></path></g><path style="fill:none;stroke-width:5;stroke-linecap:butt;stroke-linejoin:miter;stroke:#ffffff;stroke-opacity:1;stroke-miterlimit:4;" d="M -0.00470229 2.503703 L 131.492317 2.508888 " transform="matrix(0.249565,0.132479,-0.132479,0.249565,42.246924,37.500785)"></path><path style="fill:none;stroke-width:5;stroke-linecap:butt;stroke-linejoin:miter;stroke:#ffffff;stroke-opacity:1;stroke-miterlimit:4;" d="M -0.000731082 2.500885 L 139.316587 2.499437 " transform="matrix(0.251479,-0.129704,0.129704,0.251479,74.527373,54.980361)"></path></g></svg>