<svg xmlns="http://www.w3.org/2000/svg" xmlns:xlink="http://www.w3.org/1999/xlink" width="250" zoomAndPan="magnify" viewBox="0 0 187.5 82.499998" height="110" preserveAspectRatio="xMidYMid meet" version="1.2"><defs><clipPath id="9c8de797a9"><path d="M 75.742188 14.703125 L 111.460938 14.703125 L 111.460938 36.484375 L 75.742188 36.484375 Z M 75.742188 14.703125 "/></clipPath></defs><g id="1917c828ae"><g style="fill:#2f2f2f;fill-opacity:1;"><g transform="translate(27.835193, 55.884191)"><path style="stroke:none" d="M 10.609375 0.375 C 8.703125 0.375 6.929688 0.109375 5.296875 -0.421875 C 3.671875 -0.953125 2.390625 -1.566406 1.453125 -2.265625 L 1.296875 -7.828125 L 1.78125 -7.90625 C 2.300781 -6.488281 3.007812 -5.21875 3.90625 -4.09375 C 4.8125 -2.96875 5.90625 -2.070312 7.1875 -1.40625 C 8.476562 -0.738281 9.941406 -0.40625 11.578125 -0.40625 C 12.441406 -0.40625 13.242188 -0.582031 13.984375 -0.9375 C 14.722656 -1.300781 15.328125 -1.828125 15.796875 -2.515625 C 16.265625 -3.210938 16.5 -4.066406 16.5 -5.078125 C 16.5 -5.992188 16.238281 -6.789062 15.71875 -7.46875 C 15.207031 -8.15625 14.546875 -8.75 13.734375 -9.25 C 12.929688 -9.757812 12.082031 -10.207031 11.1875 -10.59375 C 10.300781 -10.976562 9.488281 -11.316406 8.75 -11.609375 C 7.488281 -12.148438 6.328125 -12.691406 5.265625 -13.234375 C 4.203125 -13.785156 3.347656 -14.488281 2.703125 -15.34375 C 2.066406 -16.195312 1.75 -17.335938 1.75 -18.765625 C 1.75 -21.066406 2.609375 -22.882812 4.328125 -24.21875 C 6.046875 -25.550781 8.363281 -26.21875 11.28125 -26.21875 C 12.664062 -26.21875 13.957031 -26.082031 15.15625 -25.8125 C 16.351562 -25.539062 17.4375 -25.160156 18.40625 -24.671875 L 18.546875 -19.84375 L 18.140625 -19.703125 C 17.367188 -21.597656 16.25 -23.050781 14.78125 -24.0625 C 13.3125 -25.082031 11.671875 -25.59375 9.859375 -25.59375 C 8.378906 -25.59375 7.125 -25.175781 6.09375 -24.34375 C 5.070312 -23.519531 4.5625 -22.378906 4.5625 -20.921875 C 4.5625 -20.109375 4.765625 -19.394531 5.171875 -18.78125 C 5.578125 -18.175781 6.117188 -17.648438 6.796875 -17.203125 C 7.484375 -16.765625 8.210938 -16.378906 8.984375 -16.046875 C 9.765625 -15.710938 10.53125 -15.394531 11.28125 -15.09375 C 12.21875 -14.726562 13.171875 -14.332031 14.140625 -13.90625 C 15.117188 -13.488281 16.015625 -12.992188 16.828125 -12.421875 C 17.648438 -11.859375 18.304688 -11.179688 18.796875 -10.390625 C 19.296875 -9.597656 19.546875 -8.644531 19.546875 -7.53125 C 19.546875 -6.269531 19.285156 -5.144531 18.765625 -4.15625 C 18.242188 -3.164062 17.550781 -2.335938 16.6875 -1.671875 C 15.820312 -1.003906 14.859375 -0.492188 13.796875 -0.140625 C 12.734375 0.203125 11.671875 0.375 10.609375 0.375 Z M 10.609375 0.375 "/></g></g><g style="fill:#2f2f2f;fill-opacity:1;"><g transform="translate(58.022018, 55.884191)"><path style="stroke:none" d="M 0.734375 0 L 0.734375 -0.515625 C 1.359375 -0.710938 1.757812 -1.125 1.9375 -1.75 C 2.125 -2.382812 2.21875 -3.367188 2.21875 -4.703125 L 2.21875 -24.375 C 2.21875 -25.457031 2.085938 -26.171875 1.828125 -26.515625 C 1.578125 -26.867188 1.210938 -27.144531 0.734375 -27.34375 L 0.734375 -27.859375 L 5.640625 -30.015625 L 6.015625 -29.71875 L 6.015625 -15.46875 C 7.023438 -16.3125 8.1875 -17.078125 9.5 -17.765625 C 10.8125 -18.460938 12.179688 -18.8125 13.609375 -18.8125 C 15.316406 -18.8125 16.695312 -18.332031 17.75 -17.375 C 18.800781 -16.425781 19.328125 -14.863281 19.328125 -12.6875 L 19.328125 -4.703125 C 19.328125 -3.367188 19.414062 -2.382812 19.59375 -1.75 C 19.78125 -1.125 20.1875 -0.710938 20.8125 -0.515625 L 20.8125 0 L 14.0625 0 L 14.0625 -0.515625 C 14.675781 -0.710938 15.078125 -1.125 15.265625 -1.75 C 15.453125 -2.382812 15.546875 -3.367188 15.546875 -4.703125 L 15.546875 -12.015625 C 15.546875 -13.703125 15.191406 -15.007812 14.484375 -15.9375 C 13.773438 -16.863281 12.726562 -17.328125 11.34375 -17.328125 C 10.476562 -17.328125 9.625 -17.113281 8.78125 -16.6875 C 7.945312 -16.269531 7.023438 -15.65625 6.015625 -14.84375 L 6.015625 -4.703125 C 6.015625 -3.367188 6.101562 -2.382812 6.28125 -1.75 C 6.46875 -1.125 6.875 -0.710938 7.5 -0.515625 L 7.5 0 Z M 0.734375 0 "/></g></g><g style="fill:#2f2f2f;fill-opacity:1;"><g transform="translate(89.247087, 55.884191)"><path style="stroke:none" d="M 1.03125 0 L 1.03125 -0.515625 C 1.65625 -0.710938 2.054688 -1.125 2.234375 -1.75 C 2.421875 -2.382812 2.515625 -3.367188 2.515625 -4.703125 L 2.515625 -13.25 C 2.515625 -14.332031 2.382812 -15.046875 2.125 -15.390625 C 1.875 -15.734375 1.507812 -16.003906 1.03125 -16.203125 L 1.03125 -16.734375 L 5.9375 -18.875 L 6.3125 -18.578125 L 6.3125 -4.703125 C 6.3125 -3.367188 6.398438 -2.382812 6.578125 -1.75 C 6.765625 -1.125 7.171875 -0.710938 7.796875 -0.515625 L 7.796875 0 Z M 1.671875 -22.671875 C 1.671875 -23.378906 1.914062 -23.976562 2.40625 -24.46875 C 2.90625 -24.96875 3.5 -25.21875 4.1875 -25.21875 C 4.925781 -25.21875 5.53125 -24.96875 6 -24.46875 C 6.476562 -23.976562 6.71875 -23.378906 6.71875 -22.671875 C 6.71875 -21.972656 6.472656 -21.375 5.984375 -20.875 C 5.503906 -20.382812 4.90625 -20.140625 4.1875 -20.140625 C 3.5 -20.140625 2.90625 -20.382812 2.40625 -20.875 C 1.914062 -21.375 1.671875 -21.972656 1.671875 -22.671875 Z M 1.671875 -22.671875 "/></g></g><g style="fill:#2f2f2f;fill-opacity:1;"><g transform="translate(107.827908, 55.884191)"><path style="stroke:none" d="M 1.03125 0 L 1.03125 -0.515625 C 1.65625 -0.710938 2.054688 -1.125 2.234375 -1.75 C 2.421875 -2.382812 2.515625 -3.367188 2.515625 -4.703125 L 2.515625 -13.25 C 2.515625 -14.332031 2.382812 -15.046875 2.125 -15.390625 C 1.875 -15.734375 1.507812 -16.003906 1.03125 -16.203125 L 1.03125 -16.734375 L 5.9375 -18.875 L 6.3125 -18.578125 L 6.3125 -15.46875 C 7.320312 -16.3125 8.484375 -17.078125 9.796875 -17.765625 C 11.109375 -18.460938 12.476562 -18.8125 13.90625 -18.8125 C 15.613281 -18.8125 16.992188 -18.332031 18.046875 -17.375 C 19.097656 -16.425781 19.625 -14.863281 19.625 -12.6875 L 19.625 -4.703125 C 19.625 -3.367188 19.710938 -2.382812 19.890625 -1.75 C 20.078125 -1.125 20.484375 -0.710938 21.109375 -0.515625 L 21.109375 0 L 14.359375 0 L 14.359375 -0.515625 C 14.972656 -0.710938 15.375 -1.125 15.5625 -1.75 C 15.75 -2.382812 15.84375 -3.367188 15.84375 -4.703125 L 15.84375 -12.015625 C 15.84375 -13.703125 15.488281 -15.007812 14.78125 -15.9375 C 14.070312 -16.863281 13.023438 -17.328125 11.640625 -17.328125 C 10.773438 -17.328125 9.921875 -17.113281 9.078125 -16.6875 C 8.242188 -16.269531 7.320312 -15.65625 6.3125 -14.84375 L 6.3125 -4.703125 C 6.3125 -3.367188 6.398438 -2.382812 6.578125 -1.75 C 6.765625 -1.125 7.171875 -0.710938 7.796875 -0.515625 L 7.796875 0 Z M 1.03125 0 "/></g></g><g style="fill:#2f2f2f;fill-opacity:1;"><g transform="translate(139.349616, 55.884191)"><path style="stroke:none" d="M 9.9375 0.375 C 8.90625 0.375 7.875 0.191406 6.84375 -0.171875 C 5.8125 -0.546875 4.863281 -1.101562 4 -1.84375 C 3.132812 -2.59375 2.441406 -3.523438 1.921875 -4.640625 C 1.410156 -5.753906 1.15625 -7.0625 1.15625 -8.5625 C 1.15625 -10.144531 1.429688 -11.566406 1.984375 -12.828125 C 2.535156 -14.085938 3.28125 -15.160156 4.21875 -16.046875 C 5.164062 -16.941406 6.210938 -17.625 7.359375 -18.09375 C 8.515625 -18.570312 9.695312 -18.8125 10.90625 -18.8125 C 12.582031 -18.8125 13.988281 -18.472656 15.125 -17.796875 C 16.269531 -17.128906 17.128906 -16.289062 17.703125 -15.28125 C 18.285156 -14.269531 18.578125 -13.21875 18.578125 -12.125 L 4.53125 -12.125 C 4.5 -11.925781 4.476562 -11.726562 4.46875 -11.53125 C 4.457031 -11.332031 4.453125 -11.132812 4.453125 -10.9375 C 4.453125 -9.332031 4.765625 -7.898438 5.390625 -6.640625 C 6.023438 -5.378906 6.914062 -4.394531 8.0625 -3.6875 C 9.21875 -2.988281 10.570312 -2.640625 12.125 -2.640625 C 13.507812 -2.640625 14.734375 -2.910156 15.796875 -3.453125 C 16.859375 -3.992188 17.773438 -4.695312 18.546875 -5.5625 L 18.875 -5.1875 C 18.3125 -4.320312 17.609375 -3.460938 16.765625 -2.609375 C 15.921875 -1.753906 14.929688 -1.039062 13.796875 -0.46875 C 12.660156 0.09375 11.375 0.375 9.9375 0.375 Z M 4.5625 -12.65625 L 14.84375 -12.65625 C 14.6875 -13.664062 14.367188 -14.582031 13.890625 -15.40625 C 13.410156 -16.238281 12.816406 -16.898438 12.109375 -17.390625 C 11.398438 -17.890625 10.613281 -18.140625 9.75 -18.140625 C 8.71875 -18.160156 7.84375 -17.910156 7.125 -17.390625 C 6.40625 -16.878906 5.832031 -16.203125 5.40625 -15.359375 C 4.988281 -14.515625 4.707031 -13.613281 4.5625 -12.65625 Z M 4.5625 -12.65625 "/></g></g><g clip-rule="nonzero" clip-path="url(#9c8de797a9)"><path style=" stroke:none;fill-rule:nonzero;fill:#ffd97d;fill-opacity:1;" d="M 111.253906 32.457031 C 94.832031 33.195312 94.234375 33.796875 93.496094 50.214844 C 92.757812 33.796875 92.160156 33.195312 75.742188 32.457031 C 92.160156 31.71875 92.757812 31.121094 93.496094 14.703125 C 94.234375 31.121094 94.832031 31.71875 111.253906 32.457031 Z M 111.253906 32.457031 "/></g><path style=" stroke:none;fill-rule:nonzero;fill:#ffd97d;fill-opacity:1;" d="M 89.488281 23.082031 C 85.820312 23.246094 85.6875 23.378906 85.523438 27.046875 C 85.359375 23.378906 85.222656 23.246094 81.558594 23.082031 C 85.222656 22.917969 85.359375 22.78125 85.523438 19.117188 C 85.6875 22.78125 85.820312 22.917969 89.488281 23.082031 Z M 89.488281 23.082031 "/><path style=" stroke:none;fill-rule:nonzero;fill:#ffd97d;fill-opacity:1;" d="M 109.398438 22.746094 C 104.011719 22.988281 103.816406 23.183594 103.574219 28.566406 C 103.332031 23.183594 103.136719 22.988281 97.753906 22.746094 C 103.136719 22.503906 103.332031 22.308594 103.574219 16.921875 C 103.816406 22.308594 104.011719 22.503906 109.398438 22.746094 Z M 109.398438 22.746094 "/><path style=" stroke:none;fill-rule:nonzero;fill:#ffd97d;fill-opacity:1;" d="M 109.398438 18.78125 C 107.929688 18.84375 107.878906 18.898438 107.8125 20.367188 C 107.746094 18.898438 107.691406 18.84375 106.226562 18.78125 C 107.691406 18.714844 107.746094 18.660156 107.8125 17.195312 C 107.878906 18.660156 107.929688 18.714844 109.398438 18.78125 Z M 109.398438 18.78125 "/><path style=" stroke:none;fill-rule:nonzero;fill:#ffd97d;fill-opacity:1;" d="M 100.25 16.921875 C 98.785156 16.988281 98.730469 17.042969 98.664062 18.507812 C 98.597656 17.042969 98.542969 16.988281 97.078125 16.921875 C 98.542969 16.855469 98.597656 16.800781 98.664062 15.335938 C 98.730469 16.800781 98.785156 16.855469 100.25 16.921875 Z M 100.25 16.921875 "/></g></svg>