<svg xmlns="http://www.w3.org/2000/svg" xmlns:xlink="http://www.w3.org/1999/xlink" width="250" zoomAndPan="magnify" viewBox="0 0 187.5 60" height="80" preserveAspectRatio="xMidYMid meet" version="1.0"><defs><g/><clipPath id="5fa81448db"><rect x="0" width="124" y="0" height="34"/></clipPath><clipPath id="7d91ca8e68"><path d="M 78.25 6.0625 L 108.921875 6.0625 L 108.921875 24.765625 L 78.25 24.765625 Z M 78.25 6.0625 " clip-rule="nonzero"/></clipPath><clipPath id="05c8b4d504"><path d="M 96 6.0625 L 100 6.0625 L 100 10 L 96 10 Z M 96 6.0625 " clip-rule="nonzero"/></clipPath></defs><g transform="matrix(1, 0, 0, 1, 36, 15)"><g clip-path="url(#5fa81448db)"><g fill="#ffffff" fill-opacity="1"><g transform="translate(1.112222, 26.9589)"><g><path d="M 9.109375 0.3125 C 7.472656 0.3125 5.953125 0.0859375 4.546875 -0.359375 C 3.148438 -0.816406 2.046875 -1.34375 1.234375 -1.9375 L 1.109375 -6.71875 L 1.53125 -6.78125 C 1.976562 -5.570312 2.585938 -4.484375 3.359375 -3.515625 C 4.128906 -2.546875 5.066406 -1.773438 6.171875 -1.203125 C 7.273438 -0.628906 8.53125 -0.34375 9.9375 -0.34375 C 10.675781 -0.34375 11.363281 -0.5 12 -0.8125 C 12.632812 -1.125 13.15625 -1.578125 13.5625 -2.171875 C 13.96875 -2.765625 14.171875 -3.492188 14.171875 -4.359375 C 14.171875 -5.148438 13.945312 -5.835938 13.5 -6.421875 C 13.050781 -7.003906 12.484375 -7.507812 11.796875 -7.9375 C 11.109375 -8.375 10.378906 -8.753906 9.609375 -9.078125 C 8.847656 -9.410156 8.148438 -9.707031 7.515625 -9.96875 C 6.429688 -10.4375 5.429688 -10.898438 4.515625 -11.359375 C 3.609375 -11.828125 2.878906 -12.425781 2.328125 -13.15625 C 1.773438 -13.894531 1.5 -14.878906 1.5 -16.109375 C 1.5 -18.085938 2.234375 -19.648438 3.703125 -20.796875 C 5.179688 -21.941406 7.175781 -22.515625 9.6875 -22.515625 C 10.875 -22.515625 11.976562 -22.394531 13 -22.15625 C 14.03125 -21.925781 14.960938 -21.597656 15.796875 -21.171875 L 15.921875 -17.03125 L 15.578125 -16.90625 C 14.910156 -18.539062 13.945312 -19.789062 12.6875 -20.65625 C 11.425781 -21.53125 10.019531 -21.96875 8.46875 -21.96875 C 7.195312 -21.96875 6.117188 -21.613281 5.234375 -20.90625 C 4.359375 -20.195312 3.921875 -19.210938 3.921875 -17.953125 C 3.921875 -17.253906 4.09375 -16.644531 4.4375 -16.125 C 4.789062 -15.601562 5.257812 -15.148438 5.84375 -14.765625 C 6.425781 -14.390625 7.050781 -14.054688 7.71875 -13.765625 C 8.382812 -13.484375 9.039062 -13.210938 9.6875 -12.953125 C 10.488281 -12.640625 11.304688 -12.300781 12.140625 -11.9375 C 12.984375 -11.582031 13.753906 -11.160156 14.453125 -10.671875 C 15.160156 -10.179688 15.722656 -9.59375 16.140625 -8.90625 C 16.566406 -8.226562 16.78125 -7.414062 16.78125 -6.46875 C 16.78125 -5.382812 16.554688 -4.414062 16.109375 -3.5625 C 15.660156 -2.71875 15.066406 -2.007812 14.328125 -1.4375 C 13.585938 -0.863281 12.757812 -0.425781 11.84375 -0.125 C 10.9375 0.164062 10.023438 0.3125 9.109375 0.3125 Z M 9.109375 0.3125 "/></g></g></g><g fill="#ffffff" fill-opacity="1"><g transform="translate(27.032838, 26.9589)"><g><path d="M 0.640625 0 L 0.640625 -0.453125 C 1.171875 -0.617188 1.515625 -0.972656 1.671875 -1.515625 C 1.828125 -2.054688 1.90625 -2.898438 1.90625 -4.046875 L 1.90625 -20.921875 C 1.90625 -21.859375 1.789062 -22.472656 1.5625 -22.765625 C 1.34375 -23.066406 1.035156 -23.300781 0.640625 -23.46875 L 0.640625 -23.921875 L 4.84375 -25.765625 L 5.15625 -25.5 L 5.15625 -13.28125 C 6.03125 -14 7.03125 -14.65625 8.15625 -15.25 C 9.28125 -15.84375 10.457031 -16.140625 11.6875 -16.140625 C 13.15625 -16.140625 14.335938 -15.726562 15.234375 -14.90625 C 16.140625 -14.09375 16.59375 -12.753906 16.59375 -10.890625 L 16.59375 -4.046875 C 16.59375 -2.898438 16.671875 -2.054688 16.828125 -1.515625 C 16.984375 -0.972656 17.328125 -0.617188 17.859375 -0.453125 L 17.859375 0 L 12.0625 0 L 12.0625 -0.453125 C 12.59375 -0.617188 12.9375 -0.972656 13.09375 -1.515625 C 13.257812 -2.054688 13.34375 -2.898438 13.34375 -4.046875 L 13.34375 -10.3125 C 13.34375 -11.757812 13.039062 -12.878906 12.4375 -13.671875 C 11.832031 -14.472656 10.9375 -14.875 9.75 -14.875 C 9 -14.875 8.265625 -14.691406 7.546875 -14.328125 C 6.828125 -13.960938 6.03125 -13.429688 5.15625 -12.734375 L 5.15625 -4.046875 C 5.15625 -2.898438 5.234375 -2.054688 5.390625 -1.515625 C 5.554688 -0.972656 5.90625 -0.617188 6.4375 -0.453125 L 6.4375 0 Z M 0.640625 0 "/></g></g></g><g fill="#ffffff" fill-opacity="1"><g transform="translate(53.844988, 26.9589)"><g><path d="M 0.890625 0 L 0.890625 -0.453125 C 1.421875 -0.617188 1.765625 -0.972656 1.921875 -1.515625 C 2.085938 -2.054688 2.171875 -2.898438 2.171875 -4.046875 L 2.171875 -11.375 C 2.171875 -12.300781 2.054688 -12.910156 1.828125 -13.203125 C 1.609375 -13.503906 1.296875 -13.742188 0.890625 -13.921875 L 0.890625 -14.359375 L 5.09375 -16.203125 L 5.40625 -15.953125 L 5.40625 -4.046875 C 5.40625 -2.898438 5.484375 -2.054688 5.640625 -1.515625 C 5.804688 -0.972656 6.15625 -0.617188 6.6875 -0.453125 L 6.6875 0 Z M 1.4375 -19.453125 C 1.4375 -20.066406 1.644531 -20.585938 2.0625 -21.015625 C 2.488281 -21.441406 3 -21.65625 3.59375 -21.65625 C 4.226562 -21.65625 4.75 -21.441406 5.15625 -21.015625 C 5.5625 -20.585938 5.765625 -20.066406 5.765625 -19.453125 C 5.765625 -18.859375 5.554688 -18.347656 5.140625 -17.921875 C 4.722656 -17.503906 4.207031 -17.296875 3.59375 -17.296875 C 3 -17.296875 2.488281 -17.503906 2.0625 -17.921875 C 1.644531 -18.347656 1.4375 -18.859375 1.4375 -19.453125 Z M 1.4375 -19.453125 "/></g></g></g><g fill="#ffffff" fill-opacity="1"><g transform="translate(69.799463, 26.9589)"><g><path d="M 0.890625 0 L 0.890625 -0.453125 C 1.421875 -0.617188 1.765625 -0.972656 1.921875 -1.515625 C 2.085938 -2.054688 2.171875 -2.898438 2.171875 -4.046875 L 2.171875 -11.375 C 2.171875 -12.300781 2.054688 -12.910156 1.828125 -13.203125 C 1.609375 -13.503906 1.296875 -13.742188 0.890625 -13.921875 L 0.890625 -14.359375 L 5.09375 -16.203125 L 5.40625 -15.953125 L 5.40625 -13.28125 C 6.28125 -14 7.28125 -14.65625 8.40625 -15.25 C 9.53125 -15.84375 10.707031 -16.140625 11.9375 -16.140625 C 13.40625 -16.140625 14.585938 -15.726562 15.484375 -14.90625 C 16.390625 -14.09375 16.84375 -12.753906 16.84375 -10.890625 L 16.84375 -4.046875 C 16.84375 -2.898438 16.921875 -2.054688 17.078125 -1.515625 C 17.242188 -0.972656 17.59375 -0.617188 18.125 -0.453125 L 18.125 0 L 12.328125 0 L 12.328125 -0.453125 C 12.859375 -0.617188 13.203125 -0.972656 13.359375 -1.515625 C 13.515625 -2.054688 13.59375 -2.898438 13.59375 -4.046875 L 13.59375 -10.3125 C 13.59375 -11.757812 13.289062 -12.878906 12.6875 -13.671875 C 12.082031 -14.472656 11.1875 -14.875 10 -14.875 C 9.257812 -14.875 8.523438 -14.691406 7.796875 -14.328125 C 7.078125 -13.960938 6.28125 -13.429688 5.40625 -12.734375 L 5.40625 -4.046875 C 5.40625 -2.898438 5.484375 -2.054688 5.640625 -1.515625 C 5.804688 -0.972656 6.15625 -0.617188 6.6875 -0.453125 L 6.6875 0 Z M 0.890625 0 "/></g></g></g><g fill="#ffffff" fill-opacity="1"><g transform="translate(96.866342, 26.9589)"><g><path d="M 8.53125 0.3125 C 7.644531 0.3125 6.757812 0.15625 5.875 -0.15625 C 4.988281 -0.476562 4.175781 -0.957031 3.4375 -1.59375 C 2.695312 -2.226562 2.101562 -3.019531 1.65625 -3.96875 C 1.207031 -4.925781 0.984375 -6.054688 0.984375 -7.359375 C 0.984375 -8.710938 1.222656 -9.929688 1.703125 -11.015625 C 2.179688 -12.097656 2.820312 -13.019531 3.625 -13.78125 C 4.4375 -14.550781 5.332031 -15.132812 6.3125 -15.53125 C 7.300781 -15.9375 8.316406 -16.140625 9.359375 -16.140625 C 10.804688 -16.140625 12.015625 -15.851562 12.984375 -15.28125 C 13.960938 -14.707031 14.703125 -13.984375 15.203125 -13.109375 C 15.703125 -12.242188 15.953125 -11.34375 15.953125 -10.40625 L 3.890625 -10.40625 C 3.867188 -10.238281 3.851562 -10.070312 3.84375 -9.90625 C 3.832031 -9.738281 3.828125 -9.566406 3.828125 -9.390625 C 3.828125 -8.015625 4.09375 -6.785156 4.625 -5.703125 C 5.164062 -4.617188 5.929688 -3.773438 6.921875 -3.171875 C 7.910156 -2.566406 9.070312 -2.265625 10.40625 -2.265625 C 11.601562 -2.265625 12.65625 -2.492188 13.5625 -2.953125 C 14.476562 -3.421875 15.265625 -4.03125 15.921875 -4.78125 L 16.203125 -4.453125 C 15.710938 -3.710938 15.109375 -2.972656 14.390625 -2.234375 C 13.671875 -1.503906 12.820312 -0.894531 11.84375 -0.40625 C 10.863281 0.0703125 9.757812 0.3125 8.53125 0.3125 Z M 3.921875 -10.859375 L 12.734375 -10.859375 C 12.609375 -11.734375 12.335938 -12.523438 11.921875 -13.234375 C 11.503906 -13.941406 10.992188 -14.507812 10.390625 -14.9375 C 9.785156 -15.363281 9.113281 -15.578125 8.375 -15.578125 C 7.476562 -15.597656 6.722656 -15.382812 6.109375 -14.9375 C 5.492188 -14.488281 5.003906 -13.898438 4.640625 -13.171875 C 4.285156 -12.453125 4.046875 -11.679688 3.921875 -10.859375 Z M 3.921875 -10.859375 "/></g></g></g></g></g><g clip-path="url(#7d91ca8e68)"><path fill="#ffd97d" d="M 108.742188 21.308594 C 94.644531 21.941406 94.128906 22.457031 93.496094 36.554688 C 92.863281 22.457031 92.347656 21.941406 78.25 21.308594 C 92.347656 20.675781 92.863281 20.160156 93.496094 6.0625 C 94.128906 20.160156 94.644531 20.675781 108.742188 21.308594 Z M 108.742188 21.308594 " fill-opacity="1" fill-rule="nonzero"/></g><path fill="#ffd97d" d="M 90.054688 13.257812 C 86.90625 13.398438 86.792969 13.511719 86.648438 16.660156 C 86.507812 13.511719 86.394531 13.398438 83.246094 13.257812 C 86.394531 13.117188 86.507812 13 86.648438 9.851562 C 86.792969 13 86.90625 13.117188 90.054688 13.257812 Z M 90.054688 13.257812 " fill-opacity="1" fill-rule="nonzero"/><path fill="#ffd97d" d="M 107.148438 12.96875 C 102.527344 13.175781 102.359375 13.34375 102.148438 17.96875 C 101.941406 13.34375 101.773438 13.175781 97.148438 12.96875 C 101.773438 12.761719 101.941406 12.59375 102.148438 7.96875 C 102.359375 12.59375 102.527344 12.761719 107.148438 12.96875 Z M 107.148438 12.96875 " fill-opacity="1" fill-rule="nonzero"/><path fill="#ffd97d" d="M 107.148438 9.5625 C 105.890625 9.621094 105.84375 9.667969 105.789062 10.925781 C 105.730469 9.667969 105.683594 9.621094 104.425781 9.5625 C 105.683594 9.507812 105.730469 9.460938 105.789062 8.203125 C 105.84375 9.460938 105.890625 9.507812 107.148438 9.5625 Z M 107.148438 9.5625 " fill-opacity="1" fill-rule="nonzero"/><g clip-path="url(#05c8b4d504)"><path fill="#ffd97d" d="M 99.296875 7.96875 C 98.035156 8.027344 97.988281 8.070312 97.933594 9.332031 C 97.875 8.070312 97.832031 8.027344 96.570312 7.96875 C 97.832031 7.914062 97.875 7.867188 97.933594 6.605469 C 97.988281 7.867188 98.035156 7.914062 99.296875 7.96875 Z M 99.296875 7.96875 " fill-opacity="1" fill-rule="nonzero"/></g></svg>