<svg xmlns="http://www.w3.org/2000/svg" xmlns:xlink="http://www.w3.org/1999/xlink" width="1080" zoomAndPan="magnify" viewBox="0 0 810 809.999993" height="1080" preserveAspectRatio="xMidYMid meet" version="1.2"><defs><clipPath id="6f099b9ea2"><path d="M 23 19 L 789.992188 19 L 789.992188 549 L 23 549 Z M 23 19 "/></clipPath></defs><g id="48f4880fe7"><path style=" stroke:none;fill-rule:nonzero;fill:#2f2f2f;fill-opacity:1;" d="M 608.730469 724.21875 C 614.484375 724.398438 618.222656 730.242188 620.539062 735.519531 C 624.039062 743.472656 626.71875 751.691406 628.578125 760.175781 C 629.402344 763.71875 629.984375 767.425781 629.054688 770.929688 C 628.171875 773.734375 626.742188 776.230469 624.765625 778.40625 C 609.757812 796.492188 584.488281 801.785156 561.0625 803.59375 C 532.6875 805.777344 504.46875 804.5 476.402344 799.761719 C 467.855469 798.316406 459.265625 796.523438 451.425781 792.824219 C 444.191406 789.414062 437.164062 783.429688 436.554688 775.464844 C 436.464844 772.988281 436.742188 770.554688 437.375 768.160156 C 439.4375 758.886719 442.777344 750.097656 447.386719 741.789062 "/><path style=" stroke:none;fill-rule:nonzero;fill:#2f2f2f;fill-opacity:1;" d="M 608.730469 727.085938 C 612.765625 727.578125 615.304688 732.355469 616.839844 735.648438 C 618.953125 740.328125 620.71875 745.136719 622.144531 750.066406 C 623.574219 754.816406 625.09375 759.839844 625.59375 764.796875 C 626.113281 769.957031 623.589844 773.722656 620.246094 777.355469 C 609.453125 789.070312 593.882812 794.445312 578.597656 797.222656 C 559.765625 800.640625 540.078125 800.804688 521.058594 800.015625 C 501.523438 799.195312 480.898438 797.742188 462.058594 792.167969 C 454.105469 789.808594 442.070312 785.132812 440.9375 775.464844 C 440.328125 770.261719 442.734375 764.140625 444.371094 759.273438 C 446.222656 753.996094 448.417969 748.863281 450.949219 743.878906 C 453.265625 739.144531 446.589844 735.109375 443.8125 739.710938 C 438.058594 749.195312 433.128906 761.367188 432.304688 772.523438 C 431.574219 782.320312 438.058594 790.113281 446.066406 794.878906 C 455.34375 800.394531 466.367188 802.5 476.878906 804.234375 C 488.863281 806.226562 500.917969 807.597656 513.046875 808.34375 C 535.492188 809.683594 558.671875 809.386719 580.855469 805.328125 C 599.195312 801.964844 618.8125 794.402344 629.871094 778.523438 C 637.078125 768.160156 631.339844 753.699219 627.402344 743.097656 C 624.066406 734.054688 619.941406 722.179688 608.761719 721.355469 C 605.023438 721.078125 605.1875 726.648438 608.761719 727.109375 Z M 608.730469 727.085938 "/><path style=" stroke:none;fill-rule:nonzero;fill:#ffffff;fill-opacity:1;" d="M 39.824219 76.78125 C 24.402344 195.308594 23.15625 312.878906 36.617188 431.636719 C 39.90625 460.953125 44.789062 492.261719 64.886719 513.832031 C 91.8125 542.707031 136.171875 544.367188 175.609375 544.027344 L 683.617188 539.632812 C 703.171875 539.457031 723.554688 539.097656 740.941406 530.113281 C 762.425781 519.007812 775.871094 496.085938 781.214844 472.460938 C 786.558594 448.839844 785.011719 424.253906 783.253906 400.089844 C 776.726562 310.132812 774.417969 203.726562 766.453125 108.082031 C 766.277344 105.933594 766.007812 103.796875 765.648438 101.667969 C 765.285156 99.542969 764.828125 97.4375 764.285156 95.351562 C 763.738281 93.265625 763.101562 91.207031 762.375 89.175781 C 761.648438 87.144531 760.832031 85.152344 759.933594 83.191406 C 759.03125 81.230469 758.046875 79.316406 756.976562 77.441406 C 755.910156 75.570312 754.761719 73.746094 753.53125 71.972656 C 752.304688 70.199219 751 68.484375 749.625 66.824219 C 748.246094 65.167969 746.796875 63.570312 745.28125 62.039062 C 743.761719 60.507812 742.179688 59.042969 740.535156 57.648438 C 738.890625 56.257812 737.183594 54.9375 735.425781 53.691406 C 733.664062 52.445312 731.851562 51.28125 729.988281 50.195312 C 728.125 49.109375 726.21875 48.105469 724.269531 47.183594 C 722.316406 46.265625 720.328125 45.433594 718.304688 44.6875 C 716.28125 43.941406 714.230469 43.285156 712.148438 42.71875 C 710.070312 42.152344 707.96875 41.679688 705.84375 41.296875 C 703.722656 40.914062 701.585938 40.625 699.4375 40.429688 C 523.886719 24.589844 49.792969 0.136719 39.824219 76.78125 Z M 39.824219 76.78125 "/><g clip-rule="nonzero" clip-path="url(#6f099b9ea2)"><path style=" stroke:none;fill-rule:nonzero;fill:#2f2f2f;fill-opacity:1;" d="M 36.972656 76.003906 C 29.65625 129.273438 25.359375 182.785156 24.082031 236.539062 C 22.804688 290.292969 24.550781 343.949219 29.328125 397.507812 C 31.421875 420.917969 33.167969 444.828125 38.460938 467.785156 C 43.1875 488.332031 51.921875 508.4375 68.222656 522.410156 C 100.082031 549.71875 146.019531 548.246094 185.441406 547.941406 C 293.605469 547.097656 401.761719 546.234375 509.914062 545.351562 L 672.152344 543.988281 C 695.453125 543.789062 720.316406 544.957031 741.828125 534.4375 C 760.402344 525.394531 773.25 507.871094 780.671875 488.984375 C 789.558594 466.363281 790.011719 441.410156 788.753906 417.472656 C 787.460938 393.085938 785.464844 368.738281 784.132812 344.320312 C 781.394531 294.222656 779.390625 244.082031 776.636719 193.992188 C 775.273438 169.269531 773.734375 144.550781 771.820312 119.863281 C 771 109.4375 770.414062 99.074219 767.027344 89.097656 C 764.027344 80.304688 759.625 72.277344 753.828125 65.019531 C 751.003906 61.492188 747.898438 58.234375 744.511719 55.246094 C 741.121094 52.257812 737.5 49.582031 733.644531 47.222656 C 729.792969 44.859375 725.765625 42.851562 721.5625 41.1875 C 717.359375 39.527344 713.046875 38.242188 708.621094 37.328125 C 696.800781 34.953125 684.324219 34.667969 672.316406 33.6875 C 616.257812 29.132812 560.125 25.675781 503.914062 23.316406 C 438.652344 20.480469 373.324219 18.835938 308.027344 19.507812 C 250.949219 20.101562 193.496094 21.933594 136.90625 29.890625 C 116.816406 32.710938 96.554688 36.261719 77.246094 42.671875 C 64.804688 46.78125 50.773438 52.199219 42.109375 62.5625 C 40.472656 64.417969 39.125 66.464844 38.066406 68.699219 C 37.007812 70.933594 36.277344 73.273438 35.878906 75.714844 C 35.171875 80.859375 43.054688 83.113281 43.761719 77.882812 C 43.921875 76.835938 44.164062 75.804688 44.484375 74.792969 C 44.632812 73.886719 44.984375 73.0625 45.535156 72.328125 C 46.039062 71.433594 46.589844 70.570312 47.179688 69.730469 C 47.773438 68.910156 46.84375 70.050781 47.765625 68.992188 C 48.222656 68.457031 48.683594 67.929688 49.167969 67.429688 C 49.992188 66.605469 50.8125 65.785156 51.710938 65.046875 C 52.617188 64.226562 53.582031 63.488281 54.609375 62.828125 C 57.125 61.09375 59.738281 59.527344 62.453125 58.125 C 76.648438 50.726562 93.726562 46.578125 109.96875 43.289062 C 160.191406 33.121094 212.164062 30.730469 263.269531 29.191406 C 326.808594 27.285156 390.425781 28.140625 453.964844 30.21875 C 512.855469 32.152344 571.710938 35.207031 630.535156 39.382812 C 653.34375 40.988281 676.152344 42.671875 698.914062 44.800781 C 703.289062 45.203125 707.589844 46.011719 711.8125 47.21875 C 716.035156 48.429688 720.109375 50.023438 724.035156 51.996094 C 727.960938 53.972656 731.667969 56.296875 735.15625 58.964844 C 738.644531 61.636719 741.855469 64.609375 744.785156 67.882812 C 750.960938 74.8125 755.550781 82.671875 758.554688 91.453125 C 761.84375 101.171875 762.375 111.179688 763.164062 121.375 C 766.980469 170.335938 769.320312 219.390625 771.671875 268.445312 C 773.945312 316.042969 776.636719 363.601562 779.742188 411.128906 C 781.3125 435.613281 781.800781 460.988281 773.257812 484.371094 C 766.453125 503.023438 753.53125 520.257812 734.914062 528.230469 C 713.011719 537.59375 687.242188 535.308594 663.957031 535.511719 L 583.652344 536.230469 C 478.226562 537.160156 372.804688 538.128906 267.382812 539.128906 L 187.898438 539.886719 C 166.78125 540.082031 145.429688 540.707031 124.484375 537.460938 C 105.53125 534.542969 86.402344 528.445312 71.9375 515.292969 C 55.925781 500.746094 48.542969 480.046875 44.484375 459.300781 C 39.882812 435.804688 38.113281 411.628906 36.132812 387.792969 C 33.980469 361.914062 32.515625 335.976562 31.746094 309.988281 C 30.222656 257.59375 31.410156 205.261719 35.3125 152.996094 C 37.195312 127.535156 39.691406 102.132812 42.792969 76.792969 C 43.175781 73.511719 37.425781 72.699219 36.972656 76.003906 Z M 36.972656 76.003906 "/></g><path style="fill-rule:nonzero;fill:#ffde00;fill-opacity:1;stroke-width:1.54;stroke-linecap:butt;stroke-linejoin:miter;stroke:#ffce00;stroke-opacity:1;stroke-miterlimit:10;" d="M 359.820182 202.729054 C 359.820182 202.729054 319.472187 327.831602 376.819567 537.018612 C 377.960147 541.272022 379.528443 545.359099 381.519705 549.284593 C 383.510966 553.210087 385.882421 556.893207 388.634069 560.32445 C 391.390469 563.760446 394.465281 566.873277 397.868009 569.672449 C 401.265985 572.466868 404.915839 574.881095 408.822323 576.91988 C 474.747811 610.91865 430.241454 443.120415 463.218455 443.120415 C 480.450708 443.120415 473.97792 529.229405 517.747654 514.881867 C 561.52214 500.529577 526.301999 377.822246 550.002288 374.229421 C 573.697824 370.641348 556.532105 458.907934 588.74872 458.907934 C 638.268874 458.907934 601.751325 383.259007 630.370362 378.53986 C 655.691224 374.371993 614.587595 530.669387 679.16815 514.881867 C 713.898792 506.389303 671.279142 354.140966 689.219505 351.988123 C 707.159869 349.840032 692.489166 458.480217 714.331261 443.120415 C 760.258591 410.827761 709.331722 190.529608 709.331722 190.529608 Z M 359.820182 202.729054 " transform="matrix(0.821951,0,0,0.821951,-4.832571,3.218277)"/><path style=" stroke:none;fill-rule:nonzero;fill:#2f2f2f;fill-opacity:1;" d="M 522.09375 214.394531 C 536.347656 211.542969 551.175781 211.730469 565.660156 211.929688 C 572.898438 212.027344 580.140625 212.222656 587.382812 212.304688 C 593.875 212.378906 602.398438 210.984375 608.128906 214.640625 C 614.648438 218.808594 615.789062 229.839844 617.351562 236.710938 C 619.53125 246.292969 621.105469 255.976562 622.070312 265.757812 C 622.511719 270.171875 622.824219 274.59375 623.03125 279.023438 C 623.21875 283.273438 623.992188 288.558594 621.96875 292.511719 C 618.988281 298.332031 610.710938 299.085938 604.964844 299.492188 C 585.992188 300.863281 566.980469 301.847656 548.003906 303.050781 C 534.703125 303.871094 521.085938 305.144531 508.65625 310.28125 C 496.984375 315.109375 486.964844 323.722656 484.0625 336.488281 C 482.023438 345.527344 483.339844 354.898438 484.0625 363.980469 L 486.308594 393.390625 C 489.6875 437.777344 492.808594 482.160156 496.648438 526.546875 C 497.101562 531.765625 505.230469 531.871094 504.867188 526.546875 C 502.171875 485.703125 498.851562 444.851562 495.734375 404.007812 L 493.382812 372.964844 C 492.644531 363.25 491.058594 353.15625 491.78125 343.375 C 492.859375 328.835938 503.890625 320.53125 516.933594 316.480469 C 532.074219 311.777344 548.25 311.703125 563.933594 310.726562 C 574.042969 310.097656 584.15625 309.457031 594.269531 308.8125 C 601.921875 308.308594 610.167969 308.425781 617.515625 305.917969 C 624.089844 303.65625 629.457031 299.078125 630.988281 292.027344 C 632.902344 283.25 631.054688 272.984375 630.015625 264.179688 C 628.886719 254.496094 627.21875 244.90625 625.019531 235.410156 C 623.269531 227.832031 621.804688 218.929688 616.964844 212.59375 C 611.574219 205.550781 602.894531 204.710938 594.632812 204.746094 C 586.652344 204.746094 578.679688 204.554688 570.699219 204.464844 C 554.019531 204.257812 536.511719 203.644531 520.1875 207.589844 C 515.734375 208.664062 517.640625 215.296875 522.070312 214.410156 Z M 522.09375 214.394531 "/><path style=" stroke:none;fill-rule:nonzero;fill:#2f2f2f;fill-opacity:1;" d="M 51.792969 117.742188 C 142.796875 113.570312 233.855469 110.914062 324.957031 109.769531 C 415.527344 108.585938 506.101562 108.871094 596.6875 110.628906 C 647.976562 111.648438 699.25 113.171875 750.507812 115.191406 C 755.363281 115.382812 755.363281 107.796875 750.507812 107.640625 C 659.453125 104.1875 568.347656 102.324219 477.191406 102.050781 C 386.613281 101.699219 296.046875 102.890625 205.496094 105.625 C 154.25 107.179688 103.015625 109.21875 51.792969 111.742188 C 47.945312 111.929688 47.910156 117.921875 51.792969 117.742188 Z M 51.792969 117.742188 "/><path style=" stroke:none;fill-rule:nonzero;fill:#ffffff;fill-opacity:1;" d="M 386.851562 626.445312 C 365.09375 571.539062 358.527344 483.976562 431.53125 468.046875 C 470.542969 459.53125 513.570312 470.941406 550.601562 483.855469 C 561.871094 487.78125 572.992188 492.46875 582.789062 499.28125 C 597.246094 509.324219 608.328125 523.6875 616.40625 539.328125 C 630.058594 565.769531 635.023438 595.976562 632.902344 625.523438 C 631.808594 640.730469 627.734375 654.730469 624.625 669.515625 C 622.160156 681.179688 615.476562 695.820312 617.144531 707.457031 C 618.8125 719.097656 629.0625 728.007812 623.851562 739.785156 C 619.050781 750.652344 605.636719 757.167969 595.085938 760.628906 C 569.414062 769.078125 546.425781 765.929688 520.285156 766.726562 C 495.726562 767.476562 472.003906 764.894531 449.328125 753.921875 C 444.609375 751.644531 439.933594 748.890625 436.777344 744.707031 C 430.347656 736.191406 435.871094 721.996094 435.4375 711.953125 C 434.953125 700.816406 431.804688 690.886719 423.617188 682.964844 C 407.054688 666.886719 395.457031 647.914062 386.851562 626.445312 Z M 386.851562 626.445312 "/><path style=" stroke:none;fill-rule:nonzero;fill:#2f2f2f;fill-opacity:1;" d="M 389.539062 625.707031 C 385.503906 615.515625 382.332031 605.066406 380.023438 594.355469 C 377.714844 583.640625 376.300781 572.8125 375.78125 561.867188 C 374.910156 541.136719 377.597656 519.007812 388.867188 501.125 C 402.015625 480.269531 425.15625 471.53125 448.867188 469.816406 C 484.039062 467.203125 519.332031 477.378906 552.054688 489.277344 C 568.183594 495.140625 582.945312 503.203125 594.664062 515.925781 C 605.71875 527.910156 613.914062 542.65625 619.414062 557.953125 C 625.332031 574.625 628.398438 591.808594 628.613281 609.496094 C 628.917969 627.867188 625.191406 645.121094 621.214844 662.925781 C 619.472656 670.699219 617.261719 678.238281 615.125 685.9375 C 613.078125 693.335938 611.34375 701.09375 612.558594 708.757812 C 613.695312 715.867188 617.851562 721.800781 619.832031 728.621094 C 621.898438 735.714844 618.273438 741.640625 612.945312 746.164062 C 601.347656 756.027344 584.121094 759.71875 569.382812 761.105469 C 552.121094 762.75 534.671875 761.707031 517.386719 762.035156 C 500.101562 762.363281 482.929688 760.867188 466.425781 755.617188 C 458.625 753.148438 449.609375 750.082031 443.3125 744.652344 C 437.558594 739.71875 438.183594 732.824219 439.019531 725.894531 C 439.898438 718.5625 440.664062 711.78125 439.503906 704.417969 C 438.988281 700.777344 438.027344 697.261719 436.628906 693.867188 C 435.230469 690.46875 433.433594 687.296875 431.238281 684.351562 C 426.511719 678.15625 420.429688 673.042969 415.488281 666.976562 C 410.40625 660.621094 405.820312 653.925781 401.738281 646.886719 C 397.65625 639.945312 394.0625 632.761719 390.960938 625.328125 C 388.855469 620.324219 380.582031 622.367188 382.617188 627.628906 C 388.816406 643.632812 396.683594 658.757812 407.367188 672.246094 C 409.898438 675.441406 412.570312 678.542969 415.363281 681.507812 C 418.382812 684.722656 421.832031 687.589844 424.339844 691.230469 C 428.707031 697.5625 430.597656 705.417969 430.636719 713.039062 C 430.679688 720.65625 428.386719 727.933594 428.894531 735.46875 C 429.445312 743.625 433.390625 749.589844 440.039062 754.226562 C 447.265625 759.257812 456.214844 762.511719 464.558594 765.117188 C 473.28125 767.765625 482.175781 769.574219 491.238281 770.542969 C 509.683594 772.644531 528.5 771.460938 547.023438 771.496094 C 565.058594 771.496094 583.378906 770.351562 600.386719 763.820312 C 613.300781 758.886719 629.21875 749.523438 629.976562 733.949219 C 630.355469 726.386719 626.210938 719.976562 623.574219 713.179688 C 620.515625 705.304688 621.699219 697.734375 623.835938 689.777344 C 628.613281 672.046875 633.699219 654.328125 636.355469 636.113281 C 638.957031 617.597656 638.558594 599.148438 635.15625 580.761719 C 629.023438 546.726562 611.539062 511.71875 581.480469 492.921875 C 566.101562 483.296875 548.136719 477.828125 530.867188 472.675781 C 513.003906 467.339844 494.699219 463.183594 476.132812 461.53125 C 447.625 458.980469 415.0625 462.277344 393.371094 482.902344 C 359.554688 515.097656 365.644531 571.234375 378.476562 611.511719 C 380.15625 616.804688 382.023438 622.03125 384.074219 627.195312 C 385.460938 630.488281 390.863281 629.058594 389.539062 625.707031 Z M 389.539062 625.707031 "/><path style=" stroke:none;fill-rule:nonzero;fill:#2f2f2f;fill-opacity:1;" d="M 465.398438 663.828125 L 459.519531 436.195312 L 487.871094 425.628906 L 509.707031 426.664062 C 509.707031 426.664062 523.507812 423.882812 528.957031 427.601562 C 538.675781 434.242188 550.898438 607.351562 550.898438 607.351562 C 557.234375 638.75 552.179688 701.160156 520.378906 705.015625 C 520.394531 705.050781 474.078125 716.417969 465.398438 663.828125 Z M 465.398438 663.828125 "/><path style=" stroke:none;fill-rule:nonzero;fill:#2f2f2f;fill-opacity:1;" d="M 469.203125 663.828125 L 467.214844 586.804688 L 464.039062 464.152344 L 463.324219 436.207031 L 460.53125 439.878906 L 478.472656 433.179688 C 481.558594 432.03125 485.050781 431.160156 487.984375 429.628906 C 489.375 428.90625 487.984375 429.433594 488.230469 429.449219 C 489.457031 429.515625 490.695312 429.5625 491.921875 429.621094 C 498.183594 429.917969 505.136719 431.183594 511.351562 430.214844 C 515.460938 429.5625 520.015625 428.964844 524.167969 429.820312 C 524.914062 429.96875 526.351562 430.902344 527.003906 430.886719 C 526.640625 430.886719 526.261719 430.105469 526.699219 430.730469 C 525.875 429.613281 526.789062 430.996094 526.996094 431.445312 C 527.363281 432.269531 526.722656 430.730469 527.085938 431.652344 C 527.214844 431.996094 527.339844 432.34375 527.460938 432.695312 C 527.757812 433.574219 528.023438 434.472656 528.285156 435.367188 C 528.902344 437.59375 529.402344 439.863281 529.871094 442.140625 C 531.152344 448.378906 532.132812 454.675781 533.035156 460.980469 C 535.5 477.945312 537.292969 495 539.003906 512.046875 C 541.976562 541.71875 544.460938 571.441406 546.664062 601.179688 C 547.484375 611.980469 549.457031 622.550781 549.5 633.417969 C 549.625 644.242188 548.558594 654.949219 546.292969 665.539062 C 544.230469 674.808594 541.148438 684.515625 535.140625 692.0625 C 530.882812 697.421875 525.710938 700.28125 519.039062 701.464844 C 515.777344 702.089844 512.492188 702.363281 509.175781 702.289062 C 493.8125 702.03125 480.851562 694.066406 474.191406 680.09375 C 471.707031 674.574219 470.015625 668.820312 469.113281 662.832031 C 468.289062 658.015625 460.949219 660.0625 461.773438 664.863281 C 465.183594 684.589844 476.015625 702.789062 496.359375 708.179688 C 501.125 709.425781 505.96875 710.027344 510.894531 709.980469 C 515.816406 709.9375 520.648438 709.25 525.390625 707.917969 C 544.789062 702.164062 552.007812 678.589844 554.980469 660.902344 C 556.847656 649.609375 557.519531 638.242188 557.003906 626.808594 C 556.714844 620.125 555.359375 612.441406 554.726562 606.667969 C 553.714844 597.4375 553.347656 588.09375 552.605469 578.839844 C 551.207031 561.304688 549.691406 543.769531 548.050781 526.234375 C 546.277344 507.46875 544.363281 488.703125 541.9375 470.011719 C 540.292969 457.355469 539.027344 444.105469 535.253906 431.855469 C 533.941406 427.601562 532.425781 424.460938 527.914062 422.921875 C 522.828125 421.222656 517.015625 421.773438 511.796875 422.503906 C 511.054688 422.601562 510.316406 422.710938 509.578125 422.839844 C 508.617188 423.011719 508.84375 422.839844 509.714844 422.839844 L 506.347656 422.675781 L 493.015625 422.042969 C 490.894531 421.945312 488.601562 421.542969 486.53125 422.09375 C 479.191406 424.046875 471.957031 427.527344 464.839844 430.179688 L 458.589844 432.515625 C 458.195312 432.632812 457.824219 432.808594 457.484375 433.046875 C 457.144531 433.28125 456.847656 433.5625 456.597656 433.894531 C 456.347656 434.222656 456.152344 434.582031 456.015625 434.972656 C 455.878906 435.363281 455.804688 435.765625 455.796875 436.179688 L 457.785156 513.246094 L 460.949219 635.90625 L 461.671875 663.851562 C 461.714844 668.71875 469.324219 668.734375 469.203125 663.828125 Z M 469.203125 663.828125 "/><path style=" stroke:none;fill-rule:nonzero;fill:#ffde00;fill-opacity:1;" d="M 581.84375 258.023438 C 569.570312 271.996094 312.308594 286.519531 294.359375 268.378906 C 276.40625 250.238281 284.027344 189.800781 290.824219 170.074219 C 297.621094 150.347656 570.015625 138.222656 578.300781 159.71875 C 586.585938 181.210938 594.113281 244.050781 581.84375 258.023438 Z M 581.84375 258.023438 "/><path style=" stroke:none;fill-rule:nonzero;fill:#ffde00;fill-opacity:1;" d="M 579.15625 255.335938 C 578.53125 256.015625 578.964844 255.523438 579.089844 255.449219 C 578.71875 255.695312 578.332031 255.917969 577.929688 256.117188 C 576.894531 256.617188 577.511719 256.339844 577.222656 256.445312 C 576.605469 256.683594 575.992188 256.90625 575.367188 257.109375 C 572.101562 258.125 568.789062 258.945312 565.429688 259.578125 C 555.089844 261.6875 544.582031 263.054688 534.105469 264.269531 C 503.691406 267.8125 473.015625 269.867188 442.398438 271.304688 C 411.230469 272.769531 379.929688 273.617188 348.761719 272.660156 C 337.28125 272.46875 325.839844 271.699219 314.4375 270.351562 C 310.742188 269.898438 307.085938 269.222656 303.472656 268.332031 C 302.050781 267.972656 300.65625 267.53125 299.289062 267.007812 C 298.386719 266.652344 299.734375 267.238281 299.140625 266.949219 C 298.894531 266.824219 298.648438 266.71875 298.410156 266.585938 C 297.953125 266.339844 297.511719 266.066406 297.085938 265.765625 C 298.113281 266.488281 296.511719 265.125 296.140625 264.695312 C 295.0625 263.394531 294.136719 261.988281 293.355469 260.488281 C 291.582031 257.007812 290.289062 253.355469 289.484375 249.53125 C 287.363281 240.492188 286.953125 231.128906 287.082031 221.890625 C 287.320312 205.140625 289.121094 187.589844 294.316406 171.578125 C 294.539062 170.894531 293.683594 171.839844 294.554688 171.132812 C 293.519531 171.957031 294.554688 171.132812 294.898438 170.914062 C 295.246094 170.691406 294.382812 171.183594 295.328125 170.640625 C 295.871094 170.328125 296.402344 170.023438 296.972656 169.738281 C 297.972656 169.1875 299.015625 168.753906 300.109375 168.429688 C 301.753906 167.847656 303.441406 167.34375 305.117188 166.875 C 314.644531 164.238281 324.480469 162.683594 334.253906 161.289062 C 362.980469 157.179688 392.054688 155.171875 421.019531 153.75 C 451.859375 152.230469 482.796875 151.53125 513.664062 152.476562 C 525.753906 152.847656 537.859375 153.445312 549.886719 154.8125 C 557.226562 155.632812 565.15625 156.527344 572.128906 159.398438 C 571.175781 159.003906 572.734375 159.683594 573.046875 159.859375 C 573.523438 160.121094 573.992188 160.390625 574.4375 160.679688 C 574.4375 160.679688 574.890625 161.195312 574.914062 161.246094 C 574.320312 160.046875 574.914062 161.246094 575.09375 161.796875 C 575.339844 162.519531 575.605469 163.234375 575.835938 163.960938 C 576.402344 165.703125 576.910156 167.460938 577.378906 169.234375 C 578.464844 173.28125 579.359375 177.382812 580.148438 181.5 C 583.683594 199.96875 585.773438 219.464844 584.019531 238.214844 C 583.511719 243.621094 582.863281 250.886719 579.195312 255.246094 C 576.066406 258.96875 581.414062 264.375 584.578125 260.621094 C 589.035156 255.328125 590.40625 248.292969 591.261719 241.558594 C 592.460938 232.15625 592.324219 222.589844 591.730469 213.136719 C 590.621094 195.316406 588.640625 175.96875 582.230469 159.152344 C 579.984375 153.28125 573.492188 151.425781 567.878906 150.058594 C 558.113281 147.683594 547.929688 146.773438 537.925781 146.039062 C 508.015625 143.796875 477.875 144.101562 447.914062 145.011719 C 415.859375 145.984375 383.695312 147.855469 351.746094 151.414062 C 339.464844 152.789062 327.179688 154.375 315.046875 156.734375 C 307.542969 158.195312 299.386719 159.691406 292.582031 163.367188 C 291.464844 163.890625 290.460938 164.578125 289.574219 165.4375 C 288.6875 166.296875 287.964844 167.273438 287.402344 168.371094 C 284.484375 174.71875 283.539062 182.609375 282.472656 189.429688 C 279.324219 208.828125 277.796875 229.425781 281.648438 248.84375 C 283.671875 259.429688 287.78125 271.175781 298.707031 274.847656 C 307.113281 277.660156 316.410156 278.332031 325.179688 279.058594 C 354.769531 281.523438 384.65625 280.921875 414.296875 280.035156 C 447.652344 279.03125 481.015625 277.132812 514.238281 273.992188 C 527.527344 272.734375 540.820312 271.28125 554.027344 269.285156 C 562.15625 268.050781 570.65625 266.910156 578.421875 264.097656 C 580.542969 263.324219 582.96875 262.453125 584.539062 260.710938 C 587.835938 257.109375 582.46875 251.710938 579.15625 255.335938 Z M 579.15625 255.335938 "/><path style=" stroke:none;fill-rule:nonzero;fill:#2f2f2f;fill-opacity:1;" d="M 68.445312 182.402344 C 62.878906 190.144531 61.277344 200.9375 59.855469 210.121094 C 57.804688 223.484375 56.863281 236.925781 57.027344 250.445312 C 57.160156 261.632812 57.628906 273.523438 61.0625 284.269531 C 63.167969 290.84375 66.273438 295.140625 72.832031 297.417969 C 80.429688 300.074219 88.796875 300.878906 96.742188 301.703125 C 108.25 302.894531 119.839844 303.453125 131.414062 303.796875 C 156.074219 304.527344 180.78125 304.28125 205.390625 303.058594 C 214.136719 302.621094 222.914062 302.121094 231.601562 301.035156 C 237.945312 300.214844 243.25 299.390625 247.113281 293.746094 C 252.289062 286.175781 253.6875 275.984375 254.839844 267.113281 C 256.34375 254.472656 256.851562 241.789062 256.359375 229.066406 C 256.121094 217.503906 255.023438 206.023438 253.070312 194.625 C 251.976562 188.566406 251.015625 181.640625 245.550781 177.980469 C 240.222656 174.421875 233.292969 173 227.113281 171.800781 C 217.128906 169.964844 207.074219 168.75 196.941406 168.152344 C 172.917969 166.492188 148.894531 166.492188 124.871094 168.152344 C 114.457031 168.78125 104.101562 169.929688 93.800781 171.601562 C 86.839844 172.785156 79.269531 174.070312 72.972656 177.464844 C 71.898438 178.050781 70.894531 178.742188 69.964844 179.542969 C 69.09375 180.246094 68.351562 181.066406 67.746094 182.007812 C 65.082031 185.757812 71.261719 189.332031 73.902344 185.609375 C 73.277344 186.488281 74.042969 185.519531 74.273438 185.3125 C 74.503906 185.109375 74.015625 185.4375 74.832031 184.917969 C 75.816406 184.3125 76.84375 183.78125 77.90625 183.324219 C 80.597656 182.25 83.355469 181.375 86.175781 180.695312 C 94.460938 178.738281 102.847656 177.371094 111.324219 176.585938 C 133.824219 174.296875 156.371094 173.519531 178.972656 174.25 C 197.375 174.75 216.972656 175.300781 234.726562 180.726562 C 237.152344 181.382812 239.449219 182.339844 241.621094 183.605469 C 243.265625 184.597656 243.503906 184.894531 244.085938 186.511719 C 246.972656 194.640625 247.808594 203.644531 248.574219 212.175781 C 249.652344 224.160156 249.980469 236.164062 249.5625 248.191406 C 249.191406 258.878906 248.402344 269.808594 245.574219 280.175781 C 244.605469 283.742188 243.429688 287.570312 241.183594 290.5625 C 239.648438 292.617188 238.605469 293.085938 236.253906 293.589844 C 230.136719 294.878906 223.703125 295.234375 217.347656 295.652344 C 195.058594 297.238281 172.644531 297.648438 150.292969 297.492188 C 129.0625 297.34375 107.355469 297.164062 86.347656 293.769531 C 82.894531 293.265625 79.492188 292.53125 76.136719 291.574219 C 75.21875 291.296875 73.597656 290.753906 73.203125 290.554688 C 72.808594 290.359375 72.382812 290.152344 71.945312 289.929688 C 71.664062 289.769531 71.390625 289.59375 71.125 289.40625 C 65.863281 284.644531 65.238281 273.929688 64.546875 267.402344 C 63.355469 254.742188 63.246094 242.074219 64.210938 229.394531 C 64.960938 218.035156 66.289062 206.542969 69.257812 195.523438 C 70.210938 191.996094 71.289062 188.355469 73.179688 185.207031 C 75.070312 182.058594 70.464844 179.609375 68.445312 182.402344 Z M 68.445312 182.402344 "/><path style=" stroke:none;fill-rule:nonzero;fill:#2f2f2f;fill-opacity:1;" d="M 74.535156 346.605469 C 98.371094 346.25 122.167969 346.605469 145.988281 346.085938 C 169.808594 345.570312 193.660156 345.71875 217.4375 344.246094 C 222.304688 343.949219 222.371094 336.667969 217.4375 336.609375 C 193.652344 336.347656 169.765625 337.703125 145.988281 338.375 C 122.207031 339.050781 98.355469 340.613281 74.535156 341.46875 C 71.246094 341.582031 71.246094 346.652344 74.535156 346.605469 Z M 74.535156 346.605469 "/><path style=" stroke:none;fill-rule:nonzero;fill:#2f2f2f;fill-opacity:1;" d="M 78.183594 383.3125 C 95.890625 384.78125 113.617188 385.183594 131.371094 384.53125 C 149.144531 383.921875 166.808594 382.0625 184.542969 380.878906 C 189.386719 380.566406 189.476562 373.292969 184.542969 373.277344 C 175.644531 373.226562 166.78125 374.371094 157.921875 375.109375 C 149.0625 375.851562 140.234375 376.398438 131.371094 376.753906 C 113.667969 377.511719 95.90625 377.574219 78.183594 377.378906 C 74.328125 377.328125 74.445312 382.976562 78.183594 383.289062 Z M 78.183594 383.3125 "/><path style=" stroke:none;fill-rule:nonzero;fill:#2f2f2f;fill-opacity:1;" d="M 79.417969 418.402344 C 98.125 417.703125 116.90625 417.710938 135.613281 418.359375 C 140.546875 418.535156 140.503906 410.921875 135.613281 410.75 C 116.851562 410.109375 98.117188 410.628906 79.417969 412.3125 C 75.578125 412.648438 75.449219 418.550781 79.417969 418.402344 Z M 79.417969 418.402344 "/><path style=" stroke:none;fill-rule:nonzero;fill:#2f2f2f;fill-opacity:1;" d="M 665.15625 194.980469 L 667.449219 216.726562 C 667.820312 220.222656 668.171875 223.714844 668.558594 227.199219 C 668.855469 229.847656 668.773438 233.175781 670.792969 235.222656 C 672.4375 236.867188 674.78125 237.003906 676.960938 236.957031 C 680.683594 236.882812 684.40625 236.710938 688.121094 236.578125 C 695.300781 236.332031 702.476562 236.105469 709.648438 235.894531 L 720.003906 235.59375 C 722.699219 235.511719 725.898438 235.839844 728.296875 234.359375 C 733.425781 231.195312 730.855469 222.851562 730.433594 218.011719 L 728.535156 196.375 C 728.074219 191.171875 727.1875 186.175781 721.222656 185.140625 C 713.660156 183.824219 705.21875 184.515625 697.574219 184.753906 C 689.558594 185 681.300781 185.265625 673.441406 186.972656 C 669.222656 187.886719 670.152344 194.519531 674.453125 194.445312 C 688.328125 194.214844 702.035156 192.503906 715.96875 192.882812 L 719.988281 192.882812 C 720.605469 193.476562 720.367188 196.441406 720.433594 197.191406 L 721.253906 206.816406 L 722.242188 218.042969 L 722.667969 222.859375 C 722.71875 223.425781 723.234375 228.152344 723.488281 227.503906 C 724.425781 227.207031 724.039062 227.175781 722.324219 227.40625 L 719.132812 227.546875 L 714.347656 227.765625 L 703.992188 228.234375 C 697.078125 228.546875 690.167969 228.839844 683.261719 229.105469 C 681.527344 229.179688 679.390625 229.617188 677.683594 229.335938 C 675.785156 229.023438 676.21875 229.789062 676.085938 227.234375 C 675.914062 223.765625 675.183594 220.203125 674.730469 216.761719 L 671.894531 195.011719 C 671.335938 190.761719 664.621094 190.613281 665.082031 195.011719 Z M 665.15625 194.980469 "/><path style=" stroke:none;fill-rule:nonzero;fill:#2f2f2f;fill-opacity:1;" d="M 676.949219 278.910156 C 693.621094 277.882812 710.347656 277.789062 727.007812 276.8125 C 731.867188 276.523438 731.9375 269.316406 727.007812 269.203125 C 710.066406 268.789062 692.921875 270.84375 676.1875 273.246094 C 672.980469 273.707031 673.71875 279.105469 676.949219 278.910156 Z M 676.949219 278.910156 "/><path style=" stroke:none;fill-rule:nonzero;fill:#2f2f2f;fill-opacity:1;" d="M 686.648438 311.253906 C 701.273438 310.839844 716.15625 310.851562 730.699219 309.171875 C 735.433594 308.621094 735.730469 301.519531 730.699219 301.5625 C 716.042969 301.675781 701.238281 303.527344 686.648438 304.914062 C 682.671875 305.292969 682.539062 311.367188 686.648438 311.253906 Z M 686.648438 311.253906 "/><path style=" stroke:none;fill-rule:nonzero;fill:#2f2f2f;fill-opacity:1;" d="M 709.902344 340.101562 C 716.808594 340.859375 723.65625 340.511719 730.453125 339.058594 C 735.0625 338.039062 733.023438 331.382812 728.527344 332.097656 C 722.371094 333.136719 716.167969 333.535156 709.925781 333.296875 C 705.496094 333.082031 705.644531 339.683594 709.925781 340.101562 Z M 709.902344 340.101562 "/><path style=" stroke:none;fill-rule:nonzero;fill:#2f2f2f;fill-opacity:1;" d="M 379.792969 365.28125 C 364.832031 363.972656 360.558594 380.476562 359.183594 392 C 357.269531 408.0625 358.246094 423.761719 358.816406 439.855469 C 359.25 452.09375 357.335938 468.984375 343.691406 473.753906 C 330.828125 478.238281 321.203125 464.035156 314.480469 455.496094 C 311.699219 451.960938 306.0625 456.507812 308.324219 460.253906 C 313.476562 468.804688 320.289062 477.515625 329.757812 481.445312 C 338.949219 485.269531 348.835938 482.800781 355.9375 476.046875 C 363.960938 468.417969 366.902344 457.484375 367.230469 446.726562 C 367.632812 433.746094 365.6875 420.820312 366.121094 407.816406 C 366.375 400.359375 366.679688 392.640625 368.203125 385.320312 C 369.441406 379.328125 372.753906 372.101562 379.789062 371.664062 C 380.199219 371.644531 380.589844 371.550781 380.964844 371.378906 C 381.335938 371.207031 381.664062 370.972656 381.945312 370.675781 C 382.230469 370.378906 382.445312 370.039062 382.597656 369.660156 C 382.75 369.277344 382.824219 368.882812 382.824219 368.472656 C 382.824219 368.0625 382.75 367.667969 382.597656 367.285156 C 382.445312 366.90625 382.230469 366.566406 381.945312 366.269531 C 381.664062 365.972656 381.335938 365.738281 380.964844 365.566406 C 380.589844 365.394531 380.199219 365.300781 379.789062 365.28125 Z M 379.792969 365.28125 "/><path style=" stroke:none;fill-rule:nonzero;fill:#2f2f2f;fill-opacity:1;" d="M 447.644531 309.386719 C 429.074219 321.4375 434.550781 349.734375 435.898438 368.164062 C 437.328125 387.742188 436.316406 410.90625 418.300781 422.957031 C 414.238281 425.675781 417.796875 431.90625 422.164062 429.53125 C 439.605469 420.121094 444.488281 398.089844 444.199219 379.84375 C 444 367.34375 441.914062 354.957031 441.9375 342.445312 C 441.9375 332.417969 443.128906 320.941406 451.195312 313.949219 C 453.660156 311.777344 450.429688 307.546875 447.644531 309.355469 Z M 447.644531 309.386719 "/><path style=" stroke:none;fill-rule:nonzero;fill:#2f2f2f;fill-opacity:1;" d="M 526.46875 418.714844 C 531.210938 423.785156 536.480469 429.152344 543.679688 430.15625 C 545.210938 430.347656 546.738281 430.34375 548.269531 430.152344 C 549.800781 429.960938 551.28125 429.585938 552.71875 429.019531 C 554.152344 428.457031 555.496094 427.726562 556.75 426.828125 C 558.003906 425.929688 559.125 424.890625 560.117188 423.710938 C 570.5 411.925781 566.734375 395.878906 566.695312 381.621094 C 566.695312 377.511719 560.988281 377.789062 560.480469 381.621094 C 559 392.707031 562.511719 405.160156 556.742188 415.394531 C 550.289062 426.84375 537.96875 422.519531 529.671875 415.542969 C 527.488281 413.699219 524.496094 416.578125 526.5 418.714844 Z M 526.46875 418.714844 "/><path style=" stroke:none;fill-rule:nonzero;fill:#2f2f2f;fill-opacity:1;" d="M 571.75 357.726562 C 571.503906 361.210938 571.378906 364.820312 573.550781 367.769531 C 574.050781 368.449219 574.640625 369.039062 575.320312 369.542969 C 575.996094 370.046875 576.734375 370.4375 577.527344 370.722656 C 578.320312 371.007812 579.140625 371.167969 579.984375 371.210938 C 580.828125 371.25 581.65625 371.164062 582.476562 370.960938 C 590.597656 368.976562 595.085938 359.328125 596.53125 351.882812 C 597.351562 347.550781 590.867188 345.660156 589.855469 350.039062 C 588.847656 354.421875 586.875 359.351562 583.394531 362.433594 C 581.753906 363.882812 579.582031 365.074219 577.988281 363.019531 C 576.789062 361.472656 576.460938 359 576.1875 357.125 C 575.808594 354.46875 571.921875 355.351562 571.75 357.726562 Z M 571.75 357.726562 "/><path style=" stroke:none;fill-rule:nonzero;fill:#2f2f2f;fill-opacity:1;" d="M 573.714844 161.097656 C 576.125 165.855469 578.203125 170.75 579.949219 175.785156 C 581.699219 180.820312 583.097656 185.953125 584.152344 191.175781 C 585.210938 196.402344 585.90625 201.675781 586.25 206.996094 C 586.59375 212.3125 586.574219 217.632812 586.199219 222.949219 C 585.828125 228.207031 585.085938 233.414062 583.972656 238.566406 C 583.148438 242.40625 582.542969 247.929688 580.058594 251.160156 C 576.367188 255.96875 568.484375 257.585938 562.953125 258.828125 C 556.378906 260.316406 549.679688 261.097656 543.015625 262.058594 C 532.5 263.570312 522.078125 265.273438 511.492188 266.257812 C 487.441406 268.496094 463.269531 268.871094 439.160156 269.332031 C 415.050781 269.792969 390.707031 270.34375 366.605469 272.941406 C 347.136719 275.039062 324.449219 279.515625 306.242188 269.761719 C 281.058594 256.289062 282.027344 222.136719 286.136719 197.90625 C 286.761719 194.191406 287.488281 190.5 288.316406 186.832031 C 289.136719 183.101562 290.15625 177.242188 293.847656 175.136719 C 302.429688 170.246094 311.386719 193.074219 313.371094 198.40625 C 317.386719 209.554688 319.671875 221.042969 320.222656 232.878906 C 320.792969 242.832031 321.167969 255.070312 312.785156 262.066406 C 309.496094 264.820312 313.96875 270.753906 317.429688 268.09375 C 325.566406 261.835938 328.289062 252.351562 328.691406 242.414062 C 329.019531 230.84375 327.785156 219.445312 324.984375 208.210938 C 322.304688 197.140625 317.957031 186.109375 311.421875 176.730469 C 306.128906 169.152344 296.257812 162.019531 287.683594 169.539062 C 281.320312 175.121094 280.164062 185.042969 278.722656 192.917969 C 277.210938 200.96875 276.273438 209.089844 275.921875 217.277344 C 275.371094 232.238281 277.1875 248.464844 285.496094 261.3125 C 294.695312 275.554688 310.214844 282.015625 326.660156 283.339844 C 340.015625 284.414062 353.347656 282.386719 366.597656 280.9375 C 380.242188 279.453125 393.953125 278.605469 407.695312 278.070312 C 435.117188 277 462.585938 277.132812 489.988281 275.605469 C 512.019531 274.371094 533.773438 271.40625 555.558594 268 C 563.40625 266.777344 571.496094 265.246094 578.652344 261.648438 C 586.757812 257.578125 588.953125 251.070312 590.933594 242.628906 C 591.777344 239.070312 592.457031 235.480469 592.972656 231.863281 C 593.488281 228.242188 593.839844 224.609375 594.023438 220.957031 C 594.210938 217.308594 594.230469 213.65625 594.085938 210.003906 C 593.9375 206.347656 593.628906 202.710938 593.152344 199.085938 C 592.675781 195.460938 592.035156 191.867188 591.230469 188.300781 C 590.429688 184.734375 589.464844 181.210938 588.34375 177.730469 C 587.21875 174.253906 585.941406 170.832031 584.507812 167.46875 C 583.070312 164.105469 581.488281 160.816406 579.753906 157.597656 C 577.632812 153.652344 571.765625 157.136719 573.769531 161.089844 Z M 573.714844 161.097656 "/><path style=" stroke:none;fill-rule:nonzero;fill:#2f2f2f;fill-opacity:1;" d="M 299.914062 223.558594 C 299.667969 223.171875 299.421875 222.777344 299.207031 222.367188 C 299.109375 222.195312 299.019531 222.011719 298.925781 221.832031 C 298.835938 221.652344 298.820312 221.59375 298.761719 221.472656 C 298.84375 221.652344 298.761719 221.472656 298.761719 221.371094 C 298.605469 220.972656 298.476562 220.566406 298.375 220.148438 C 298.320312 219.925781 298.277344 219.703125 298.238281 219.480469 C 298.238281 219.523438 298.238281 219.726562 298.238281 219.480469 C 298.230469 219.320312 298.230469 219.160156 298.238281 218.996094 C 298.238281 218.800781 298.238281 218.609375 298.238281 218.414062 L 298.238281 218.027344 C 298.238281 218.027344 298.238281 218.25 298.238281 218.027344 C 298.269531 217.84375 298.3125 217.664062 298.367188 217.484375 C 298.367188 217.371094 298.625 216.828125 298.449219 217.1875 C 298.605469 216.867188 298.796875 216.589844 298.96875 216.277344 C 299.066406 216.09375 298.925781 216.316406 298.910156 216.34375 L 299.117188 216.09375 C 299.238281 215.957031 299.371094 215.824219 299.503906 215.699219 C 299.632812 215.578125 299.796875 215.445312 299.617188 215.59375 C 299.4375 215.742188 299.617188 215.59375 299.675781 215.59375 L 300.136719 215.304688 L 300.339844 215.207031 C 300.339844 215.207031 300.046875 215.304688 300.242188 215.25 L 300.835938 215.085938 C 301.097656 215.003906 300.515625 215.085938 300.835938 215.085938 L 301.304688 215.085938 C 301.367188 215.085938 301.6875 215.148438 301.441406 215.085938 C 301.195312 215.019531 301.65625 215.148438 301.722656 215.167969 C 301.789062 215.183594 302.09375 215.289062 301.863281 215.207031 C 301.632812 215.125 301.945312 215.25 301.984375 215.273438 C 302.144531 215.359375 302.300781 215.453125 302.453125 215.554688 C 302.75 215.742188 302.304688 215.398438 302.5625 215.644531 C 302.699219 215.761719 302.832031 215.890625 302.957031 216.03125 L 303.121094 216.210938 C 303.433594 216.570312 303.027344 216.03125 303.160156 216.269531 C 303.292969 216.507812 303.53125 216.867188 303.695312 217.179688 C 303.695312 217.253906 303.808594 217.515625 303.695312 217.179688 L 303.777344 217.402344 C 303.851562 217.605469 303.910156 217.816406 303.957031 218.027344 C 303.957031 218.101562 304.074219 218.585938 304.039062 218.386719 C 304.078125 218.660156 304.097656 218.933594 304.105469 219.210938 C 304.121094 219.78125 304.09375 220.351562 304.023438 220.921875 C 304.023438 220.871094 304.023438 220.722656 304.023438 220.921875 C 304.023438 221.117188 303.972656 221.273438 303.941406 221.453125 L 303.792969 222.195312 C 303.671875 222.792969 303.523438 223.394531 303.382812 223.984375 C 303.316406 224.230469 303.296875 224.476562 303.328125 224.726562 C 303.359375 224.976562 303.4375 225.210938 303.5625 225.429688 C 303.6875 225.648438 303.847656 225.835938 304.046875 225.992188 C 304.246094 226.144531 304.46875 226.257812 304.710938 226.324219 C 304.953125 226.390625 305.199219 226.410156 305.449219 226.378906 C 305.699219 226.347656 305.933594 226.269531 306.152344 226.144531 C 306.375 226.019531 306.558594 225.859375 306.714844 225.660156 C 306.871094 225.460938 306.980469 225.238281 307.046875 224.996094 C 307.671875 222.441406 308.214844 219.828125 307.691406 217.195312 C 307.476562 216.140625 307.066406 215.171875 306.457031 214.285156 C 305.847656 213.398438 305.089844 212.667969 304.179688 212.09375 C 303.707031 211.804688 303.207031 211.589844 302.671875 211.445312 C 302.140625 211.296875 301.597656 211.226562 301.046875 211.234375 C 300.496094 211.238281 299.953125 211.320312 299.425781 211.476562 C 298.894531 211.636719 298.398438 211.863281 297.933594 212.15625 C 296.972656 212.789062 296.191406 213.597656 295.589844 214.582031 C 294.988281 215.5625 294.628906 216.628906 294.503906 217.773438 C 294.191406 220.476562 295.261719 223.179688 296.714844 225.40625 C 296.84375 225.625 297.007812 225.8125 297.210938 225.964844 C 297.410156 226.117188 297.632812 226.226562 297.878906 226.289062 C 298.121094 226.355469 298.371094 226.371094 298.621094 226.335938 C 298.871094 226.300781 299.105469 226.21875 299.324219 226.09375 C 299.542969 225.964844 299.726562 225.800781 299.878906 225.597656 C 300.03125 225.398438 300.140625 225.175781 300.203125 224.929688 C 300.269531 224.683594 300.28125 224.4375 300.246094 224.1875 C 300.214844 223.9375 300.132812 223.703125 300.003906 223.484375 Z M 299.914062 223.558594 "/><path style="fill-rule:nonzero;fill:#ffde00;fill-opacity:1;stroke-width:1.54;stroke-linecap:butt;stroke-linejoin:miter;stroke:#ffce00;stroke-opacity:1;stroke-miterlimit:10;" d="M 709.13212 532.689163 C 709.13212 532.689163 704.750395 482.921883 722.909369 481.600712 C 741.068343 480.27954 761.731839 549.469937 731.520743 563.888761 C 707.421251 570.000365 709.13212 532.689163 709.13212 532.689163 Z M 709.13212 532.689163 " transform="matrix(0.821951,0,0,0.821951,-4.832571,3.218277)"/><path style=" stroke:none;fill-rule:nonzero;fill:#2f2f2f;fill-opacity:1;" d="M 580.691406 467.480469 C 585.492188 471.054688 592.332031 470.824219 597.535156 468.253906 C 603.453125 465.335938 607.234375 459.753906 609.550781 453.746094 C 614.878906 439.914062 613.480469 424.253906 607.710938 410.839844 C 605.777344 406.351562 599.21875 410.222656 601.132812 414.6875 C 602.238281 417.253906 603.121094 419.894531 603.785156 422.605469 C 604.449219 425.320312 604.886719 428.070312 605.097656 430.855469 C 605.308594 433.640625 605.285156 436.421875 605.035156 439.207031 C 604.785156 441.988281 604.304688 444.730469 603.601562 447.433594 C 601.050781 457 593.679688 466.734375 582.714844 462.613281 C 579.65625 461.472656 578.449219 465.828125 580.660156 467.480469 Z M 580.691406 467.480469 "/><path style=" stroke:none;fill-rule:nonzero;fill:#ffffff;fill-opacity:1;" d="M 305.90625 366.703125 C 305.59375 375.242188 314.652344 380.171875 322.171875 377.386719 C 331.410156 373.941406 333.679688 363.546875 333.71875 354.773438 C 333.71875 349.539062 333.867188 345.355469 338.859375 342.585938 C 342.679688 340.457031 346.847656 339.09375 349.847656 335.730469 C 357.246094 327.445312 353.421875 315.871094 355.394531 306.050781 C 356.273438 301.683594 349.824219 299.804688 348.664062 304.191406 C 346.566406 312.117188 349.410156 321.15625 345.960938 328.667969 C 343.097656 334.890625 334.886719 335.476562 330.605469 340.464844 C 325.820312 346.039062 327.738281 353.378906 326.941406 360.027344 C 326.421875 364.300781 324.703125 368.78125 320.78125 371.03125 C 316.863281 373.285156 311.28125 371.8125 311.140625 366.71875 C 311.050781 363.347656 306.039062 363.355469 305.90625 366.71875 Z M 305.90625 366.703125 "/><path style=" stroke:none;fill-rule:nonzero;fill:#ffffff;fill-opacity:1;" d="M 392.285156 350.753906 C 394.09375 356.828125 400.503906 360.371094 406.667969 359.1875 C 413.613281 357.855469 418.464844 351.101562 418.628906 344.238281 C 418.71875 340.285156 413.367188 340.019531 412.117188 343.359375 C 410.933594 346.488281 409.488281 350.121094 406.214844 351.636719 C 403.554688 352.867188 399.691406 351.957031 398.621094 349.003906 C 397.191406 345.09375 391.058594 346.636719 392.285156 350.753906 Z M 392.285156 350.753906 "/><path style=" stroke:none;fill-rule:nonzero;fill:#ffffff;fill-opacity:1;" d="M 532.773438 386.46875 C 534.695312 390.003906 539.480469 391.566406 543.269531 390.578125 C 544.253906 390.304688 545.171875 389.882812 546.023438 389.3125 C 546.871094 388.742188 547.613281 388.054688 548.238281 387.246094 C 548.867188 386.4375 549.351562 385.550781 549.691406 384.585938 C 550.03125 383.621094 550.210938 382.625 550.230469 381.601562 C 550.417969 377.921875 544.59375 377.105469 543.777344 380.722656 C 543.015625 384.117188 540.160156 384.726562 537.65625 382.703125 C 535.007812 380.558594 530.988281 383.191406 532.773438 386.46875 Z M 532.773438 386.46875 "/><path style=" stroke:none;fill-rule:nonzero;fill:#2f2f2f;fill-opacity:1;" d="M 725.101562 435.730469 C 716.15625 436.550781 707.199219 436.871094 698.238281 437.464844 C 693.890625 437.75 689.550781 438.070312 685.210938 438.375 C 681.464844 438.636719 677.214844 438.433594 673.597656 439.59375 C 667.792969 441.457031 666.644531 447.566406 666.578125 452.898438 C 666.460938 462.0625 666.628906 471.246094 666.652344 480.410156 C 666.652344 483.460938 669.832031 484.945312 672.40625 483.699219 C 679.648438 480.15625 687.972656 480.894531 695.796875 480.878906 C 704.476562 480.878906 713.167969 480.484375 721.8125 479.726562 C 726.011719 479.367188 730.195312 478.90625 734.371094 478.347656 C 737.390625 477.953125 740.683594 477.640625 742.542969 474.886719 C 744.636719 471.796875 743.570312 467.339844 743.363281 463.898438 C 743.070312 459.410156 742.78125 454.921875 742.5 450.433594 C 742.199219 445.566406 734.585938 445.5 734.890625 450.433594 C 735.152344 454.65625 735.40625 458.882812 735.65625 463.109375 C 735.746094 464.695312 735.820312 466.28125 735.925781 467.859375 C 736.140625 470.875 735.925781 470.40625 732.828125 470.808594 C 725.253906 471.789062 717.652344 472.476562 710.027344 472.871094 C 696.503906 473.585938 681.132812 470.980469 668.589844 477.128906 L 674.34375 480.417969 L 674.199219 457.757812 C 674.199219 455.125 673.886719 452.316406 674.34375 449.71875 C 675.003906 445.996094 677.988281 446.347656 681.144531 445.953125 C 695.796875 444.152344 710.414062 441.746094 725.101562 440.273438 C 727.976562 439.988281 728.019531 435.449219 725.101562 435.730469 Z M 725.101562 435.730469 "/><path style=" stroke:none;fill-rule:nonzero;fill:#ffffff;fill-opacity:1;" d="M 433.652344 494.746094 C 434.695312 497.382812 436.007812 499.878906 437.59375 502.234375 C 439.183594 504.585938 441.007812 506.738281 443.066406 508.691406 C 445.125 510.640625 447.371094 512.347656 449.804688 513.808594 C 452.238281 515.269531 454.796875 516.449219 457.488281 517.347656 C 465.847656 520.070312 475.070312 519.90625 483.027344 523.636719 C 494.683594 529.09375 501.480469 543.28125 498.449219 555.792969 C 495.414062 568.300781 482.832031 577.792969 469.992188 577.300781 C 480.941406 580.589844 493.605469 585.628906 496.203125 596.765625 C 498.160156 605.117188 493.121094 613.84375 486.136719 618.828125 C 479.148438 623.808594 470.519531 625.828125 462.183594 627.753906 C 475.605469 629.148438 491.640625 632.480469 496.292969 645.136719 C 501.292969 658.742188 488.789062 672.753906 475.554688 678.65625 C 482.222656 680.054688 489.890625 682.25 492.421875 688.5625 C 494.808594 694.496094 491 701.5625 485.363281 704.582031 C 479.722656 707.597656 472.902344 707.382812 466.636719 706.117188 C 426.484375 698.003906 401.152344 662.59375 386.835938 626.429688 C 367.816406 578.402344 360.410156 505.355469 407.785156 477.171875 "/><path style=" stroke:none;fill-rule:nonzero;fill:#2f2f2f;fill-opacity:1;" d="M 417.007812 467.785156 C 397.28125 475.585938 382.792969 490.59375 375.023438 510.222656 C 367.371094 529.53125 366.542969 551.269531 368.769531 571.703125 C 371.171875 593.351562 376.691406 614.175781 385.324219 634.171875 C 396.007812 659.117188 412.0625 683.152344 435.28125 698.011719 C 446.625 705.269531 461.058594 711.378906 474.734375 711.320312 C 482.542969 711.320312 490.1875 708.410156 494.558594 701.664062 C 498.457031 695.652344 498.308594 687.820312 493.425781 682.414062 C 489.191406 677.726562 482.632812 675.925781 476.683594 674.679688 L 477.675781 682.289062 C 491.648438 675.828125 506.488281 659.90625 499.9375 643.378906 C 494.050781 628.535156 476.253906 625.296875 462.199219 623.832031 L 463.25 631.589844 C 479.023438 627.925781 498.949219 621.136719 500.386719 602 C 501.636719 585.332031 484.179688 577.785156 470.96875 573.839844 L 470.007812 580.96875 C 488.699219 581.289062 504.734375 564.421875 502.148438 545.625 C 501.84375 543.460938 501.332031 541.351562 500.609375 539.289062 C 499.886719 537.230469 498.96875 535.261719 497.851562 533.386719 C 496.738281 531.507812 495.449219 529.757812 493.984375 528.140625 C 492.523438 526.519531 490.914062 525.058594 489.160156 523.757812 C 480.539062 517.4375 469.636719 517.859375 459.75 515.113281 C 457.117188 514.371094 454.601562 513.34375 452.199219 512.027344 C 449.800781 510.710938 447.582031 509.140625 445.542969 507.316406 C 443.5 505.492188 441.691406 503.464844 440.113281 501.226562 C 438.539062 498.992188 437.234375 496.605469 436.203125 494.070312 C 434.96875 491.011719 429.945312 492.335938 431.1875 495.453125 C 432.722656 499.367188 434.785156 502.976562 437.378906 506.285156 C 439.96875 509.59375 442.984375 512.457031 446.417969 514.882812 C 454.351562 520.4375 463.390625 521.558594 472.621094 523.496094 C 481.433594 525.355469 488.699219 529.382812 492.957031 537.585938 C 496.6875 544.785156 496.953125 553.5625 492.890625 560.671875 C 492.316406 561.671875 491.679688 562.628906 490.976562 563.542969 C 490.273438 564.460938 489.511719 565.324219 488.695312 566.136719 C 487.878906 566.949219 487.011719 567.707031 486.09375 568.402344 C 485.175781 569.101562 484.214844 569.734375 483.210938 570.304688 C 482.210938 570.875 481.171875 571.375 480.105469 571.808594 C 479.035156 572.238281 477.941406 572.597656 476.824219 572.882812 C 475.707031 573.171875 474.578125 573.382812 473.429688 573.515625 C 472.285156 573.652344 471.136719 573.710938 469.984375 573.691406 C 465.808594 573.578125 465.175781 579.628906 469.023438 580.820312 C 478.679688 583.796875 494.164062 589.164062 492.75 601.976562 C 491.109375 616.960938 473.125 621.234375 461.132812 623.957031 C 456.460938 625.015625 458.039062 631.269531 462.175781 631.722656 C 472.425781 632.839844 487.574219 634.902344 492.203125 645.777344 C 497.660156 658.609375 483.703125 670.4375 473.445312 675.082031 C 470.199219 676.558594 471.09375 681.96875 474.4375 682.691406 C 479.140625 683.703125 486.628906 685.019531 488.542969 690.238281 C 490.777344 696.328125 484.195312 701.25 479.066406 702.328125 C 472.308594 703.75 464.871094 701.597656 458.460938 699.507812 C 452.609375 697.578125 447.050781 695.007812 441.789062 691.800781 C 420.421875 678.878906 405.625 657.457031 395.316406 635.183594 C 386.910156 616.914062 381.257812 597.828125 378.359375 577.925781 C 375.589844 559.1875 375.433594 539.425781 380.652344 521.097656 C 385.585938 503.835938 395.925781 488.753906 411.824219 479.949219 C 414.765625 478.324219 417.804688 476.90625 420.9375 475.691406 "/><path style=" stroke:none;fill-rule:nonzero;fill:#ffffff;fill-opacity:1;" d="M 589.378906 535.554688 C 577.496094 523.988281 512.9375 503.046875 519.785156 536.84375 C 520.820312 541.957031 523.550781 546.542969 526.359375 550.917969 C 538.566406 569.722656 553.207031 586.386719 570.285156 600.90625 C 564.722656 617.617188 569.167969 637.246094 581.382812 649.929688 "/><path style=" stroke:none;fill-rule:nonzero;fill:#2f2f2f;fill-opacity:1;" d="M 591.535156 533.375 C 585.78125 527.730469 577.5625 524.210938 570.164062 521.375 C 560.734375 517.757812 550.707031 515.070312 540.574219 514.554688 C 532.527344 514.144531 522.71875 515.300781 517.796875 522.542969 C 510.398438 533.457031 518.890625 547.449219 525.039062 556.621094 C 536.933594 574.335938 550.96875 590.15625 567.136719 604.082031 L 565.980469 599.683594 C 560.347656 617.183594 563.964844 641.601562 579.476562 653.25 C 582.625 655.609375 586.808594 651.054688 584.785156 647.949219 C 580.214844 640.929688 575.742188 634.589844 573.738281 626.289062 C 572.789062 622.292969 572.390625 618.242188 572.542969 614.136719 C 572.695312 610.03125 573.394531 606.023438 574.644531 602.109375 C 574.871094 601.324219 574.878906 600.539062 574.671875 599.75 C 574.464844 598.960938 574.066406 598.28125 573.484375 597.710938 C 560.6875 586.914062 549.210938 574.859375 539.058594 561.542969 C 534.128906 555.042969 528.664062 548.113281 525.398438 540.59375 C 523.753906 536.878906 522.539062 531.996094 524.222656 528.050781 C 526.417969 522.914062 534.574219 522.296875 539.839844 522.429688 C 548.613281 522.601562 557.375 524.722656 565.675781 527.433594 C 572.875 529.777344 581.507812 532.488281 587.21875 537.726562 C 590.105469 540.363281 594.34375 536.179688 591.527344 533.417969 Z M 591.535156 533.375 "/><path style=" stroke:none;fill-rule:nonzero;fill:#2f2f2f;fill-opacity:1;" d="M 674.863281 78.558594 C 681.824219 78.78125 688.738281 79.726562 695.691406 80.144531 C 699.570312 80.382812 700.53125 73.945312 696.621094 73.289062 C 689.394531 72.066406 682.171875 71.949219 674.863281 71.71875 C 670.457031 71.589844 670.464844 78.425781 674.863281 78.558594 Z M 674.863281 78.558594 "/><path style=" stroke:none;fill-rule:nonzero;fill:#2f2f2f;fill-opacity:1;" d="M 83.484375 79.378906 C 78.75 79.117188 74.503906 83.488281 75.144531 88.257812 C 75.785156 93.023438 81.054688 96.289062 85.632812 94.980469 C 90.71875 93.535156 92.824219 87.507812 90.667969 82.914062 C 90.125 81.769531 89.347656 80.8125 88.34375 80.039062 C 87.335938 79.265625 86.210938 78.761719 84.964844 78.527344 C 84.222656 78.371094 83.472656 78.328125 82.71875 78.398438 C 81.960938 78.472656 81.234375 78.65625 80.53125 78.949219 C 79.832031 79.242188 79.191406 79.632812 78.609375 80.121094 C 78.03125 80.609375 77.535156 81.175781 77.125 81.8125 C 74.296875 85.832031 80.824219 90.945312 83.988281 87.105469 C 84.554688 86.425781 83.9375 86.96875 83.714844 87.105469 C 83.304688 87.105469 83.257812 87.105469 83.585938 87.105469 C 83.914062 87.105469 83.871094 87.105469 83.484375 87.105469 C 83.363281 86.875 82.53125 86.738281 83.3125 87.105469 C 82.933594 86.941406 83.089844 86.128906 83.117188 86.976562 C 83.117188 86.210938 83.117188 87.253906 83.117188 87.460938 C 83.191406 86.726562 82.96875 87.796875 83.117188 87.460938 C 83.226562 87.214844 83.175781 87.289062 82.96875 87.683594 C 83.007812 87.558594 83.085938 87.46875 83.207031 87.417969 C 83.207031 87.46875 83.027344 87.5 82.96875 87.507812 C 82.671875 87.566406 83.214844 87.617188 82.621094 87.507812 C 83.296875 87.65625 82.179688 87.171875 82.621094 87.507812 C 82.269531 87.253906 82.015625 87.1875 81.980469 86.976562 C 81.953125 86.746094 81.972656 86.523438 82.039062 86.304688 C 82.105469 86.085938 82.210938 85.886719 82.359375 85.714844 C 82.507812 85.539062 82.683594 85.398438 82.890625 85.300781 C 83.097656 85.199219 83.316406 85.144531 83.542969 85.132812 C 87.191406 85.027344 87.160156 79.683594 83.542969 79.488281 Z M 83.484375 79.378906 "/><path style=" stroke:none;fill-rule:nonzero;fill:#2f2f2f;fill-opacity:1;" d="M 121.007812 76.050781 C 117.070312 74.605469 112.402344 77.414062 111.488281 81.417969 C 110.414062 86.121094 113.800781 91.378906 118.328125 92.800781 C 123.335938 94.371094 127.371094 89.820312 127.261719 85.035156 C 127.132812 80.925781 123.621094 75.507812 118.929688 75.992188 C 114.859375 76.414062 113.101562 81.453125 116.808594 83.835938 C 117.242188 84.148438 117.714844 84.375 118.230469 84.515625 C 117.875 84.410156 117.941406 84.476562 118.417969 84.707031 C 118.207031 84.535156 118.550781 85.011719 118.671875 85.214844 C 118.417969 84.796875 118.839844 85.808594 118.671875 85.742188 C 118.632812 85.589844 118.675781 85.46875 118.796875 85.371094 C 119.402344 85.316406 119.976562 85.144531 120.515625 84.863281 C 120.121094 84.039062 118.460938 83.894531 118.609375 82.59375 C 118.695312 82.292969 118.835938 82.019531 119.027344 81.773438 C 119.207031 81.597656 118.582031 81.558594 119.40625 81.820312 C 123.128906 83.011719 124.574219 77.339844 121 76.066406 Z M 121.007812 76.050781 "/><path style=" stroke:none;fill-rule:nonzero;fill:#2f2f2f;fill-opacity:1;" d="M 152.578125 76.140625 C 151.863281 76.738281 151.25 77.425781 150.730469 78.199219 C 150.214844 78.976562 149.820312 79.808594 149.542969 80.695312 C 149.269531 81.585938 149.125 82.496094 149.113281 83.429688 C 149.101562 84.359375 149.21875 85.273438 149.472656 86.167969 C 149.632812 86.640625 149.835938 87.097656 150.078125 87.535156 C 150.320312 87.972656 150.597656 88.386719 150.910156 88.777344 C 151.222656 89.167969 151.566406 89.527344 151.941406 89.855469 C 152.316406 90.1875 152.71875 90.480469 153.144531 90.742188 C 153.574219 91.003906 154.019531 91.226562 154.484375 91.410156 C 154.949219 91.59375 155.425781 91.734375 155.914062 91.835938 C 156.40625 91.933594 156.898438 91.992188 157.398438 92.007812 C 157.898438 92.023438 158.398438 91.996094 158.890625 91.921875 C 159.390625 91.863281 159.878906 91.753906 160.355469 91.597656 C 160.835938 91.441406 161.292969 91.238281 161.730469 90.992188 C 162.167969 90.742188 162.574219 90.457031 162.957031 90.125 C 163.335938 89.796875 163.679688 89.433594 163.988281 89.039062 C 164.296875 88.640625 164.5625 88.214844 164.785156 87.765625 C 165.011719 87.316406 165.1875 86.847656 165.320312 86.363281 C 165.449219 85.878906 165.53125 85.382812 165.566406 84.882812 C 165.597656 84.382812 165.582031 83.882812 165.515625 83.382812 C 164.949219 78.878906 161.210938 75.820312 156.679688 76.542969 C 154.527344 76.890625 153.195312 79.453125 153.492188 81.417969 C 153.84375 83.777344 155.597656 85.003906 157.855469 85.273438 C 157.28125 85.175781 157.15625 85.175781 157.484375 85.273438 C 157.816406 85.363281 157.699219 85.324219 157.148438 85.140625 C 156.878906 84.984375 156.632812 84.625 157 85.042969 C 156.386719 84.351562 157 85.390625 156.738281 84.507812 C 156.8125 84.78125 156.738281 85.414062 156.863281 84.921875 C 156.933594 84.640625 157.109375 83.882812 156.863281 84.507812 C 157.003906 84.207031 157.1875 83.933594 157.414062 83.6875 C 157.667969 83.523438 157.617188 83.554688 157.257812 83.777344 L 157.59375 83.621094 C 157.175781 83.710938 157.117188 83.738281 157.429688 83.679688 C 157.742188 83.621094 157.683594 83.628906 157.238281 83.679688 C 157.238281 83.753906 157.816406 83.910156 157.050781 83.597656 C 156.613281 83.425781 157.519531 83.800781 156.84375 83.449219 C 157.117188 83.597656 157.175781 84.066406 157.109375 83.6875 C 157.109375 83.546875 156.761719 82.808594 156.925781 83.316406 C 156.746094 82.757812 156.746094 83.316406 156.871094 82.71875 C 156.761719 83.210938 156.910156 82.429688 156.960938 82.28125 C 157.089844 81.867188 157.300781 81.5 157.59375 81.179688 C 157.914062 80.84375 158.164062 80.460938 158.335938 80.03125 C 158.511719 79.597656 158.597656 79.152344 158.597656 78.6875 C 158.597656 78.21875 158.511719 77.773438 158.335938 77.339844 C 158.164062 76.910156 157.914062 76.527344 157.59375 76.191406 C 156.128906 74.726562 154.101562 74.992188 152.613281 76.191406 Z M 152.578125 76.140625 "/><path style=" stroke:none;fill-rule:nonzero;fill:#2f2f2f;fill-opacity:1;" d="M 74.980469 255.671875 C 81.554688 246.425781 88.007812 237.128906 94.46875 227.816406 C 100.285156 219.441406 109.261719 208.910156 119.296875 218.332031 C 127.296875 225.84375 134.667969 234.136719 142.3125 242.003906 C 150.390625 250.316406 158.476562 258.613281 166.578125 266.898438 C 166.78125 267.097656 167.019531 267.25 167.28125 267.355469 C 167.546875 267.460938 167.820312 267.515625 168.105469 267.515625 C 168.390625 267.515625 168.664062 267.460938 168.929688 267.355469 C 169.195312 267.25 169.429688 267.097656 169.632812 266.898438 C 180.988281 257.519531 192.316406 248.117188 203.621094 238.699219 C 206.746094 236.085938 210.683594 231.710938 214.957031 234.054688 C 217.726562 235.574219 219.734375 238.988281 221.6875 241.394531 C 226.390625 247.238281 230.730469 253.347656 234.988281 259.476562 C 236.46875 261.613281 239.960938 259.652344 238.515625 257.414062 C 233.933594 250.429688 228.984375 243.714844 223.667969 237.269531 C 219.558594 232.261719 215.226562 226.773438 208.199219 230.125 C 204.914062 231.703125 202.117188 234.410156 199.324219 236.703125 C 195.738281 239.636719 192.171875 242.59375 188.597656 245.546875 C 181.25 251.628906 173.910156 257.726562 166.585938 263.84375 L 169.644531 263.84375 C 160.191406 254.230469 150.71875 244.640625 141.226562 235.074219 C 136.675781 230.476562 132.117188 225.882812 127.558594 221.296875 C 124.074219 217.804688 120.523438 213.433594 115.773438 211.617188 C 107.074219 208.328125 99.496094 215.296875 94.625 221.726562 C 86.742188 232.105469 79.886719 243.441406 72.726562 254.332031 C 71.796875 255.753906 74.023438 257.003906 74.988281 255.65625 Z M 74.980469 255.671875 "/><path style=" stroke:none;fill-rule:nonzero;fill:#2f2f2f;fill-opacity:1;" d="M 99.390625 226.289062 C 96.828125 227.988281 97.074219 231.472656 99.457031 233.371094 C 103.023438 236.207031 107.101562 232.714844 109.320312 229.996094 L 106.460938 229.253906 C 107.28125 233.503906 113.140625 236.257812 117.144531 236.242188 C 120.875 236.242188 124.609375 232.417969 122.234375 228.84375 C 122.117188 228.652344 121.972656 228.492188 121.796875 228.351562 C 121.621094 228.214844 121.429688 228.113281 121.21875 228.042969 C 121.007812 227.976562 120.789062 227.945312 120.570312 227.957031 C 120.347656 227.964844 120.132812 228.015625 119.929688 228.101562 C 119.722656 228.1875 119.539062 228.304688 119.378906 228.457031 C 119.214844 228.609375 119.085938 228.785156 118.984375 228.980469 C 118.886719 229.179688 118.824219 229.390625 118.800781 229.613281 C 118.777344 229.832031 118.792969 230.050781 118.847656 230.265625 L 114.910156 231.910156 C 114.203125 231.6875 113.519531 231.414062 112.855469 231.085938 C 111.5 230.453125 110.386719 229.9375 109.820312 228.300781 C 109.71875 227.972656 109.535156 227.699219 109.273438 227.480469 C 109.007812 227.261719 108.707031 227.128906 108.367188 227.082031 C 108.027344 227.039062 107.703125 227.089844 107.390625 227.234375 C 107.082031 227.375 106.832031 227.59375 106.648438 227.882812 C 105.964844 228.902344 105.128906 229.777344 104.140625 230.503906 C 100.886719 231.050781 99.773438 230.4375 100.796875 228.65625 C 102.203125 227.636719 100.902344 225.285156 99.40625 226.277344 Z M 99.390625 226.289062 "/><path style=" stroke:none;fill-rule:nonzero;fill:#2f2f2f;fill-opacity:1;" d="M 206.695312 244.296875 C 206.828125 244.859375 207.042969 245.386719 207.347656 245.878906 C 207.652344 246.367188 208.027344 246.796875 208.472656 247.164062 C 208.917969 247.535156 209.410156 247.820312 209.953125 248.023438 C 210.492188 248.230469 211.050781 248.34375 211.628906 248.363281 C 212.210938 248.363281 212.777344 248.265625 213.324219 248.066406 C 213.875 247.867188 214.371094 247.585938 214.820312 247.214844 C 215.273438 246.84375 215.644531 246.40625 215.945312 245.90625 C 216.242188 245.40625 216.449219 244.867188 216.558594 244.296875 C 216.605469 244.078125 216.609375 243.863281 216.570312 243.644531 C 216.53125 243.425781 216.453125 243.222656 216.339844 243.035156 C 216.222656 242.847656 216.078125 242.6875 215.898438 242.554688 C 215.722656 242.421875 215.527344 242.324219 215.3125 242.265625 C 215.101562 242.207031 214.882812 242.191406 214.664062 242.214844 C 214.445312 242.238281 214.238281 242.300781 214.039062 242.402344 C 213.84375 242.507812 213.675781 242.644531 213.53125 242.8125 C 213.386719 242.976562 213.277344 243.167969 213.207031 243.375 C 213.207031 243.59375 213.164062 243.804688 213.082031 244.003906 C 212.996094 244.207031 212.878906 244.382812 212.726562 244.539062 C 212.570312 244.691406 212.394531 244.8125 212.191406 244.894531 C 211.988281 244.976562 211.78125 245.019531 211.5625 245.019531 C 211.34375 245.019531 211.132812 244.976562 210.933594 244.894531 C 210.730469 244.8125 210.554688 244.691406 210.398438 244.539062 C 210.246094 244.382812 210.128906 244.207031 210.042969 244.003906 C 209.960938 243.804688 209.917969 243.59375 209.917969 243.375 C 209.328125 241.261719 206.152344 242.152344 206.628906 244.273438 Z M 206.695312 244.296875 "/><path style=" stroke:none;fill-rule:nonzero;fill:#2f2f2f;fill-opacity:1;" d="M 165.015625 200.488281 C 164.410156 200.4375 163.808594 200.453125 163.207031 200.53125 C 162.605469 200.613281 162.019531 200.753906 161.449219 200.960938 C 160.882812 201.167969 160.339844 201.433594 159.828125 201.757812 C 159.3125 202.078125 158.839844 202.453125 158.410156 202.878906 C 157.976562 203.304688 157.59375 203.769531 157.261719 204.277344 C 156.929688 204.785156 156.65625 205.324219 156.441406 205.890625 C 156.226562 206.457031 156.074219 207.039062 155.984375 207.640625 C 155.894531 208.238281 155.867188 208.839844 155.90625 209.445312 C 156.269531 214.8125 161.277344 218.914062 166.394531 219.40625 C 171.515625 219.902344 176.925781 217.179688 178.726562 212.25 C 180.460938 207.449219 178.519531 201.734375 173.933594 199.375 C 171.535156 198.152344 169.46875 201.605469 171.804688 203.011719 C 177.691406 206.542969 174.746094 214.386719 168.566406 215.183594 C 167.832031 215.292969 167.09375 215.300781 166.355469 215.207031 C 165.621094 215.113281 164.910156 214.921875 164.222656 214.628906 C 163.539062 214.339844 162.90625 213.964844 162.328125 213.5 C 161.746094 213.035156 161.238281 212.5 160.808594 211.894531 C 158.257812 208.296875 160.175781 202.984375 165.023438 203.238281 C 166.832031 203.332031 166.757812 200.652344 165.023438 200.460938 Z M 165.015625 200.488281 "/><path style=" stroke:none;fill-rule:nonzero;fill:#2f2f2f;fill-opacity:1;" d="M 108.078125 490.921875 C 114.136719 497.1875 125.339844 496.875 130.871094 489.992188 C 133.335938 486.960938 134.832031 481.570312 131.144531 478.800781 C 128.125 476.53125 123.613281 478.214844 121.953125 481.363281 C 119.75 485.523438 122.773438 490.28125 126.703125 492.046875 C 128.871094 492.9375 131.109375 493.167969 133.410156 492.738281 C 137.613281 492.066406 141.410156 488.441406 145.566406 490.601562 C 148.609375 492.171875 151.222656 494.34375 154.421875 495.738281 C 156.984375 496.859375 159.628906 497.738281 162.351562 498.371094 C 168.746094 499.8125 175.160156 499.890625 181.585938 498.601562 C 183.996094 498.132812 182.964844 494.488281 180.574219 494.933594 C 176.746094 495.671875 172.890625 495.875 169.007812 495.546875 C 165.125 495.21875 161.359375 494.371094 157.707031 493.003906 C 153.960938 491.570312 150.8125 489.5 147.464844 487.355469 C 144.917969 485.710938 142.691406 485.359375 139.796875 486.460938 C 135.804688 487.980469 130.863281 491.09375 126.867188 487.800781 C 124.484375 485.828125 124.589844 480.460938 128.464844 482.234375 C 130.617188 483.222656 130.105469 484.972656 129.128906 486.796875 C 128.734375 487.515625 128.253906 488.175781 127.691406 488.769531 C 123.085938 493.652344 114.746094 493.652344 110.085938 488.949219 C 108.792969 487.644531 106.796875 489.640625 108.078125 490.957031 Z M 108.078125 490.921875 "/><path style=" stroke:none;fill-rule:nonzero;fill:#2f2f2f;fill-opacity:1;" d="M 210.632812 503.308594 C 212.785156 503.308594 212.796875 499.964844 210.632812 499.964844 C 208.472656 499.964844 208.480469 503.308594 210.632812 503.308594 Z M 210.632812 503.308594 "/><path style=" stroke:none;fill-rule:nonzero;fill:#2f2f2f;fill-opacity:1;" d="M 687.777344 219.539062 C 689.417969 218.003906 690.925781 216.398438 692.46875 214.796875 C 694.664062 212.511719 695.757812 211.1875 698.742188 213.269531 C 702.53125 215.898438 705.859375 219.6875 709.375 222.6875 C 711.136719 224.183594 713.683594 221.71875 711.941406 220.121094 C 709.203125 217.640625 706.445312 215.199219 703.671875 212.800781 C 701.972656 211.34375 699.726562 208.691406 697.410156 208.113281 C 695.476562 207.628906 694.121094 208.542969 692.765625 209.855469 C 690.300781 212.265625 688.015625 214.929688 685.796875 217.558594 C 685.679688 217.691406 685.597656 217.84375 685.539062 218.011719 C 685.480469 218.175781 685.457031 218.347656 685.464844 218.523438 C 685.472656 218.699219 685.511719 218.871094 685.582031 219.03125 C 685.652344 219.191406 685.75 219.335938 685.875 219.460938 C 686 219.585938 686.140625 219.683594 686.304688 219.753906 C 686.464844 219.824219 686.632812 219.863281 686.808594 219.871094 C 686.984375 219.878906 687.15625 219.851562 687.324219 219.796875 C 687.492188 219.738281 687.640625 219.652344 687.777344 219.539062 Z M 687.777344 219.539062 "/><path style=" stroke:none;fill-rule:nonzero;fill:#2f2f2f;fill-opacity:1;" d="M 330.335938 167.953125 C 342.335938 183.628906 346.648438 202.597656 344.972656 222.046875 C 344.785156 224.234375 348.507812 224.773438 348.84375 222.570312 C 351.894531 202.515625 345.105469 181.910156 332.40625 166.367188 C 331.476562 165.234375 329.445312 166.777344 330.351562 167.953125 Z M 330.335938 167.953125 "/><path style=" stroke:none;fill-rule:nonzero;fill:#2f2f2f;fill-opacity:1;" d="M 346.328125 243.777344 L 346.328125 244.519531 C 346.328125 244.832031 346.410156 245.121094 346.566406 245.390625 L 346.863281 245.769531 C 347.015625 245.933594 347.195312 246.050781 347.40625 246.121094 C 347.609375 246.230469 347.824219 246.277344 348.054688 246.261719 C 348.523438 246.265625 348.921875 246.101562 349.246094 245.769531 C 349.355469 245.644531 349.453125 245.511719 349.542969 245.390625 C 349.703125 245.121094 349.78125 244.832031 349.78125 244.519531 C 349.78125 244.4375 349.78125 244.355469 349.78125 244.273438 L 349.78125 243.777344 C 349.785156 243.292969 349.613281 242.875 349.273438 242.527344 C 348.925781 242.1875 348.507812 242.015625 348.023438 242.011719 C 347.539062 242.015625 347.125 242.1875 346.78125 242.527344 C 346.433594 242.875 346.261719 243.289062 346.265625 243.777344 Z M 346.328125 243.777344 "/><path style=" stroke:none;fill-rule:nonzero;fill:#2f2f2f;fill-opacity:1;" d="M 556.722656 159.207031 C 560.15625 165.5 562.535156 172.167969 563.859375 179.214844 C 564.292969 181.328125 567.394531 180.398438 567.054688 178.335938 C 565.785156 170.960938 563.148438 164.109375 559.148438 157.785156 C 559.050781 157.636719 558.925781 157.507812 558.78125 157.40625 C 558.632812 157.304688 558.472656 157.230469 558.296875 157.191406 C 558.121094 157.152344 557.945312 157.144531 557.765625 157.171875 C 557.589844 157.195312 557.421875 157.253906 557.269531 157.347656 C 557.113281 157.4375 556.980469 157.550781 556.867188 157.695312 C 556.757812 157.835938 556.675781 157.992188 556.625 158.164062 C 556.578125 158.335938 556.558594 158.511719 556.578125 158.691406 C 556.59375 158.871094 556.640625 159.039062 556.722656 159.199219 Z M 556.722656 159.207031 "/><path style=" stroke:none;fill-rule:nonzero;fill:#2f2f2f;fill-opacity:1;" d="M 568.890625 202 C 570.9375 202 570.9375 198.816406 568.890625 198.816406 C 566.84375 198.816406 566.84375 202 568.890625 202 Z M 568.890625 202 "/><path style=" stroke:none;fill-rule:nonzero;fill:#2f2f2f;fill-opacity:1;" d="M 361.265625 620.503906 C 361.984375 623.820312 363.152344 626.972656 364.777344 629.957031 C 366.398438 632.9375 368.40625 635.636719 370.800781 638.042969 C 372.5 639.738281 375.03125 637.171875 373.421875 635.429688 C 371.316406 633.199219 369.511719 630.746094 368.007812 628.070312 C 366.507812 625.394531 365.351562 622.574219 364.542969 619.617188 C 363.984375 617.503906 360.789062 618.390625 361.257812 620.511719 Z M 361.265625 620.503906 "/><path style=" stroke:none;fill-rule:nonzero;fill:#2f2f2f;fill-opacity:1;" d="M 358.46875 635.90625 C 359.421875 637.835938 360.832031 639.328125 362.703125 640.386719 C 364.59375 641.429688 366.074219 638.742188 364.347656 637.535156 C 363.097656 636.652344 362.109375 635.535156 361.386719 634.1875 C 361.273438 633.992188 361.125 633.828125 360.945312 633.691406 C 360.765625 633.554688 360.566406 633.457031 360.347656 633.398438 C 360.128906 633.34375 359.910156 633.328125 359.6875 633.359375 C 359.460938 633.390625 359.253906 633.460938 359.058594 633.578125 C 358.863281 633.691406 358.695312 633.835938 358.558594 634.015625 C 358.421875 634.195312 358.324219 634.394531 358.269531 634.613281 C 358.210938 634.832031 358.199219 635.054688 358.226562 635.277344 C 358.257812 635.503906 358.332031 635.710938 358.445312 635.90625 Z M 358.46875 635.90625 "/><path style=" stroke:none;fill-rule:nonzero;fill:#2f2f2f;fill-opacity:1;" d="M 671.765625 591.570312 C 680.273438 591.621094 688.785156 591.613281 697.300781 591.621094 C 699.375 591.621094 699.375 588.40625 697.300781 588.414062 C 688.785156 588.414062 680.273438 588.414062 671.765625 588.464844 C 671.558594 588.464844 671.359375 588.503906 671.167969 588.582031 C 670.980469 588.660156 670.8125 588.773438 670.664062 588.917969 C 670.519531 589.0625 670.40625 589.230469 670.328125 589.421875 C 670.25 589.613281 670.210938 589.8125 670.210938 590.015625 C 670.210938 590.222656 670.25 590.421875 670.328125 590.613281 C 670.40625 590.800781 670.519531 590.96875 670.664062 591.117188 C 670.8125 591.261719 670.980469 591.375 671.167969 591.453125 C 671.359375 591.53125 671.558594 591.570312 671.765625 591.570312 Z M 671.765625 591.570312 "/><path style=" stroke:none;fill-rule:nonzero;fill:#2f2f2f;fill-opacity:1;" d="M 672.453125 620.617188 L 679.234375 625.78125 C 681.109375 627.21875 682.984375 624.003906 681.09375 622.597656 L 674.261719 617.527344 C 672.40625 616.148438 670.65625 619.246094 672.453125 620.617188 Z M 672.453125 620.617188 "/><path style=" stroke:none;fill-rule:nonzero;fill:#2f2f2f;fill-opacity:1;" d="M 660.257812 650.914062 L 667.039062 659.464844 C 668.378906 661.109375 670.761719 658.757812 669.414062 657.089844 L 662.589844 648.574219 C 661.269531 646.929688 658.992188 649.253906 660.28125 650.882812 Z M 660.257812 650.914062 "/><path style=" stroke:none;fill-rule:nonzero;fill:#2f2f2f;fill-opacity:1;" d="M 433.597656 551.121094 C 436.660156 552.972656 439.710938 554.835938 442.808594 556.621094 C 444.847656 557.796875 446.65625 554.679688 444.652344 553.480469 C 441.585938 551.640625 438.46875 549.871094 435.371094 548.097656 C 435.171875 547.980469 434.957031 547.90625 434.726562 547.871094 C 434.496094 547.839844 434.265625 547.855469 434.042969 547.914062 C 433.816406 547.972656 433.613281 548.070312 433.425781 548.210938 C 433.242188 548.351562 433.089844 548.523438 432.972656 548.722656 C 432.855469 548.921875 432.777344 549.136719 432.746094 549.367188 C 432.714844 549.597656 432.726562 549.828125 432.785156 550.050781 C 432.84375 550.277344 432.945312 550.480469 433.085938 550.667969 C 433.226562 550.851562 433.394531 551.003906 433.597656 551.121094 Z M 433.597656 551.121094 "/><path style=" stroke:none;fill-rule:nonzero;fill:#2f2f2f;fill-opacity:1;" d="M 426.304688 608.066406 L 432.683594 610.925781 C 432.914062 611.054688 433.160156 611.128906 433.421875 611.152344 C 433.683594 611.175781 433.941406 611.144531 434.191406 611.058594 C 434.4375 610.972656 434.660156 610.839844 434.851562 610.660156 C 435.042969 610.480469 435.191406 610.269531 435.292969 610.027344 C 435.398438 609.78125 435.445312 609.53125 435.441406 609.265625 C 435.4375 609.003906 435.378906 608.753906 435.265625 608.515625 C 435.152344 608.273438 435 608.070312 434.800781 607.898438 C 434.601562 607.726562 434.375 607.601562 434.121094 607.523438 L 427.652344 604.886719 C 425.835938 604.136719 424.496094 607.261719 426.304688 608.074219 Z M 426.304688 608.066406 "/><path style=" stroke:none;fill-rule:nonzero;fill:#2f2f2f;fill-opacity:1;" d="M 430.421875 656.035156 L 434.105469 656.972656 C 436.21875 657.515625 437.121094 654.226562 435 653.683594 L 431.320312 652.78125 C 429.222656 652.261719 428.328125 655.484375 430.421875 656.019531 Z M 430.421875 656.035156 "/></g></svg>