<svg xmlns="http://www.w3.org/2000/svg" width="1em" height="1em" viewBox="0 0 24 24"><mask id="SVGVsxICdZh"><defs><symbol id="SVGf9bFLczd"><path d="M15.24 6.37c.41.23.8.51 1.14.83 0 0 2.62-1.08 2.63-1.06l1.56 2.7c.01.03-2.22 1.75-2.22 1.75.1.45.15.93.15 1.41"/></symbol></defs><g fill="none" stroke="#fff"><g stroke-linecap="round"><path d="M12 9c1.66 0 3 1.34 3 3s-1.34 3-3 3-3-1.34-3-3 1.34-3 3-3Z"/><path d="M12 5.5a6.5 6.5 0 1 1 0 13 6.5 6.5 0 0 1 0-13Z" opacity="0"/></g><use href="#SVGf9bFLczd"/><use href="#SVGf9bFLczd" transform="rotate(60 12 12)"/><use href="#SVGf9bFLczd" transform="rotate(120 12 12)"/><use href="#SVGf9bFLczd" transform="rotate(180 12 12)"/><use href="#SVGf9bFLczd" transform="rotate(240 12 12)"/><use href="#SVGf9bFLczd" transform="rotate(300 12 12)"/></g><g fill="none" stroke="#fff" stroke-dasharray="28" stroke-linecap="round" stroke-linejoin="round"><path stroke="#000" d="m4.222 2.808 16.97 16.97"/><path d="m2.808 4.222 16.97 16.97"/></g></mask><path fill="#2f2f2f" d="M0 0h24v24H0z" mask="url(#SVGVsxICdZh)"/></svg>