<svg xmlns="http://www.w3.org/2000/svg" width="1em" height="1em" viewBox="0 0 24 24">
	<mask id="SVGVsxICdZh">
		<defs>
			<symbol id="SVGf9bFLczd">
				<path d="M15.24 6.37C15.65 6.6 16.04 6.88 16.38 7.2C16.38 7.2 19 6.12 19.01 6.14C19.01 6.14 20.57 8.84 20.57 8.84C20.58 8.87 18.35 10.59 18.35 10.59C18.45 11.04 18.5 11.52 18.5 12" />
			</symbol>
		</defs>
		<g fill="none" stroke="#fff" stroke-width="1">
			<g stroke-linecap="round">
				<path d="M12 9c1.66 0 3 1.34 3 3c0 1.66 -1.34 3 -3 3c-1.66 0 -3 -1.34 -3 -3c0 -1.66 1.34 -3 3 -3Z" />
				<path d="M12 5.5c3.59 0 6.5 2.91 6.5 6.5c0 3.59 -2.91 6.5 -6.5 6.5c-3.59 0 -6.5 -2.91 -6.5 -6.5c0 -3.59 2.91 -6.5 6.5 -6.5Z" opacity="0" />
			</g>
			<g>
				<use href="#SVGf9bFLczd" />
				<use href="#SVGf9bFLczd" transform="rotate(60 12 12)" />
				<use href="#SVGf9bFLczd" transform="rotate(120 12 12)" />
				<use href="#SVGf9bFLczd" transform="rotate(180 12 12)" />
				<use href="#SVGf9bFLczd" transform="rotate(240 12 12)" />
				<use href="#SVGf9bFLczd" transform="rotate(300 12 12)" />
			</g>
		</g>
		<g fill="none" stroke="#fff" stroke-dasharray="28" stroke-dashoffset="28" stroke-linecap="round" stroke-linejoin="round" stroke-width="1">
			<path stroke="#000" d="M0 11h24" transform="rotate(45 12 12)" stroke-dashoffset="0" />
			<path d="M0 13h24" transform="rotate(45 12 12)" stroke-dashoffset="0" />
		</g>
	</mask>
	<rect width="24" height="24" fill="#2f2f2f" mask="url(#SVGVsxICdZh)" />
</svg>