<svg xmlns="http://www.w3.org/2000/svg" width="40" height="40" viewBox="0 0 30 30"><defs><clipPath id="d887194a2a"><path d="M.484 0h29.032v29.031H.484Zm0 0"/></clipPath></defs><g clip-path="url(#d887194a2a)"><path fill="#ffde00" d="M15.355 7.77q.135 1.223.668 2.335a7.22 7.22 0 0 0 5.727 4.059c1.96.215 4.496.352 7.766.352-3.27 0-5.805.14-7.766.355a7.2 7.2 0 0 0-2.34.668 7.3 7.3 0 0 0-1.984 1.402 7.3 7.3 0 0 0-1.403 1.985 7.2 7.2 0 0 0-.668 2.34c-.214 1.964-.355 4.496-.355 7.77 0-3.274-.137-5.806-.352-7.77a7.2 7.2 0 0 0-2.074-4.325 7.23 7.23 0 0 0-4.324-2.07c-1.96-.215-4.496-.355-7.766-.355 3.27 0 5.805-.137 7.766-.352a7.2 7.2 0 0 0 2.34-.668 7.2 7.2 0 0 0 1.984-1.406 7.2 7.2 0 0 0 1.406-1.985q.534-1.113.668-2.335C14.863 5.805 15 3.27 15 0c0 3.27.14 5.805.355 7.77m0 0"/></g></svg>