<svg xmlns="http://www.w3.org/2000/svg" xmlns:xlink="http://www.w3.org/1999/xlink" width="40" zoomAndPan="magnify" viewBox="0 0 30 30.000001" height="40" preserveAspectRatio="xMidYMid meet" version="1.0"><defs><clipPath id="6f06f6af9f"><path d="M 0.484375 0 L 29.515625 0 L 29.515625 29.03125 L 0.484375 29.03125 Z M 0.484375 0 " clip-rule="nonzero"/></clipPath></defs><g clip-path="url(#6f06f6af9f)"><path fill="#231f20" d="M 15.355469 7.769531 C 15.445312 8.585938 15.667969 9.363281 16.023438 10.105469 C 16.378906 10.847656 16.847656 11.507812 17.425781 12.089844 C 18.007812 12.671875 18.671875 13.140625 19.410156 13.496094 C 20.152344 13.851562 20.933594 14.074219 21.75 14.164062 C 23.710938 14.378906 26.246094 14.515625 29.515625 14.515625 C 26.246094 14.515625 23.710938 14.65625 21.75 14.871094 C 20.933594 14.960938 20.152344 15.183594 19.410156 15.539062 C 18.671875 15.894531 18.007812 16.363281 17.425781 16.941406 C 16.847656 17.523438 16.378906 18.1875 16.023438 18.925781 C 15.667969 19.667969 15.445312 20.449219 15.355469 21.265625 C 15.140625 23.230469 15 25.761719 15 29.035156 C 15 25.761719 14.863281 23.230469 14.648438 21.265625 C 14.558594 20.449219 14.335938 19.667969 13.980469 18.925781 C 13.625 18.1875 13.15625 17.523438 12.574219 16.941406 C 11.992188 16.363281 11.332031 15.894531 10.589844 15.539062 C 9.847656 15.183594 9.070312 14.960938 8.25 14.871094 C 6.289062 14.65625 3.753906 14.515625 0.484375 14.515625 C 3.753906 14.515625 6.289062 14.378906 8.25 14.164062 C 9.070312 14.074219 9.847656 13.851562 10.589844 13.496094 C 11.332031 13.140625 11.992188 12.671875 12.574219 12.089844 C 13.15625 11.507812 13.625 10.847656 13.980469 10.105469 C 14.335938 9.363281 14.558594 8.585938 14.648438 7.769531 C 14.863281 5.804688 15 3.269531 15 0 C 15 3.269531 15.140625 5.804688 15.355469 7.769531 Z M 15.355469 7.769531 " fill-opacity="1" fill-rule="nonzero"/></g></svg>